<?xml version="1.0" encoding="UTF-8"?>
<svg id="_레이어_2" data-name="레이어 2" xmlns="http://www.w3.org/2000/svg" viewBox="0 0 841.89 595.27">
  <defs>
    <style>
      .cls-1 {
        fill: #febb42;
      }

      .cls-1, .cls-2, .cls-3, .cls-4 {
        stroke-width: 0px;
      }

      .cls-2 {
        fill: #d81159;
      }

      .cls-3 {
        fill: #0095ff;
      }

      .cls-4 {
        fill: #fff;
      }
    </style>
  </defs>
  <g id="Layer_1" data-name="Layer 1">
    <rect class="cls-4" x="0" width="841.89" height="595.27"/>
    <polygon class="cls-1" points="752.21 398.1 651 518.09 585.89 595.27 841.89 595.27 841.89 291.81 752.21 398.1"/>
    <g>
      <path class="cls-2" d="M841.89,264.92v14.08l-155.2,175.45c-1.61,1.82-4.39,1.99-6.2.38l-.41-.36c-1.82-1.61-1.99-4.38-.38-6.2l162.19-183.35Z"/>
      <path class="cls-2" d="M245.29,0l-125.29,141.64c-1.61,1.82-4.38,1.99-6.2.38l-.41-.36c-1.82-1.61-1.99-4.39-.38-6.2L232.83,0h12.46Z"/>
      <path class="cls-1" d="M184.63,140.16c0,5.19-1.82,10.41-5.53,14.6L0,357.23v-66.54L146.08,125.55c8.06-9.12,21.99-9.97,31.11-1.9,4.93,4.35,7.44,10.42,7.44,16.51"/>
      <polygon class="cls-3" points="197.75 0 0 223.55 0 36.39 32.19 0 197.75 0"/>
    </g>
  </g>
</svg>