<svg width="350" height="350" viewBox="0 0 350 350" fill="none" xmlns="http://www.w3.org/2000/svg">
<circle cx="175" cy="175" r="175" fill="#00BDED"/>
<path d="M177.772 291C177.502 291 177.232 290.97 176.976 290.925L109.283 276.965C108.637 276.83 108.036 276.544 107.54 276.123C85.8166 257.891 75.8865 229.324 81.5802 201.57C88.2053 169.319 115.096 144.663 147.531 140.677L158.077 89.3661C151.843 86.7486 148.102 79.9944 149.514 73.1198L150.04 70.5475C150.821 66.7718 153.015 63.5075 156.244 61.3864C159.459 59.2654 163.32 58.5283 167.091 59.2955L209.711 68.0805C217.508 69.6901 222.541 77.3469 220.934 85.1541L220.408 87.7264C219.011 94.5558 212.971 99.2642 206.271 99.2642H206.136L195.59 150.575C223.803 167.062 238.781 200.337 232.156 232.604C226.447 260.373 206.046 282.681 178.899 290.835C178.524 290.94 178.148 291 177.757 291H177.772ZM111.882 269.414L177.592 282.952C201.479 275.401 219.371 255.589 224.434 230.994C230.563 201.179 216.111 170.387 189.295 156.111C187.748 155.284 186.921 153.539 187.282 151.824L199.165 94.0594C199.601 91.9234 201.704 90.5394 203.837 90.9757L204.979 91.2163C208.509 91.9384 211.965 89.6669 212.686 86.1319L213.212 83.5595C213.933 80.0245 211.664 76.5646 208.134 75.8426L165.514 67.0576C163.801 66.7116 162.058 67.0425 160.601 68.0053C159.144 68.968 158.152 70.4422 157.792 72.142L157.266 74.7144C156.545 78.2494 158.813 81.7093 162.344 82.4313L163.486 82.672C164.507 82.8826 165.409 83.4994 165.994 84.3719C166.565 85.2443 166.776 86.3274 166.565 87.3503L154.682 145.115C154.322 146.83 152.879 148.123 151.137 148.259C120.865 150.771 95.4464 173.35 89.317 203.165C84.2692 227.745 92.8925 253.047 111.851 269.414H111.882Z" fill="white"/>
<path d="M247.494 127.665C246.503 132.509 241.771 135.623 236.948 134.615C232.111 133.622 229.001 128.884 230.008 124.055C230.999 119.211 235.731 116.097 240.554 117.105C245.391 118.098 248.501 122.836 247.494 127.665Z" fill="#FCFCFC"/>
<path d="M269.863 109.884C269.127 113.48 265.612 115.796 262.021 115.059C258.431 114.322 256.117 110.802 256.853 107.207C257.589 103.612 261.105 101.295 264.695 102.032C268.286 102.769 270.599 106.289 269.863 109.884Z" fill="#FCFCFC"/>
<path d="M98.0609 210.461C98.0609 210.461 173.101 241.84 214.174 204.398C214.73 203.887 215.285 203.36 215.826 202.834C215.826 202.834 225.141 257.409 170.066 270L113.294 257.981C113.294 257.981 92.1118 234.228 98.0459 210.476L98.0609 210.461Z" fill="white"/>
</svg>
