<svg width="350" height="350" viewBox="0 0 350 350" fill="none" xmlns="http://www.w3.org/2000/svg">
<circle cx="175" cy="175" r="175" fill="#00ED98"/>
<path d="M213.501 255.535C213.725 256.973 212.676 258.325 211.161 258.556L170.163 264.763C168.648 264.995 167.24 264.01 167.016 262.572L166.443 258.836C166.22 257.398 167.269 256.047 168.784 255.815L209.781 249.608C211.297 249.376 212.705 250.361 212.928 251.799L213.501 255.535Z" fill="white"/>
<path d="M210.966 269.088C211.19 270.526 210.374 271.839 209.15 272.032L176.107 277.042C174.884 277.226 173.718 276.212 173.495 274.774L172.922 271.038C172.698 269.6 173.514 268.287 174.738 268.094L207.781 263.084C209.004 262.9 210.17 263.914 210.393 265.352L210.966 269.088Z" fill="white"/>
<path d="M201.982 276.83C202.721 281.657 199.389 286.165 194.533 286.898C189.676 287.632 185.141 284.321 184.402 279.494" fill="white"/>
<path d="M213.753 242.05L163.519 249.656C160.314 250.139 157.332 247.417 156.72 243.449C156.467 241.789 156.671 240.148 157.283 238.796C154.165 226.827 144.637 217.482 137.615 210.609C134.837 207.887 132.438 205.532 130.767 203.379C123.823 194.923 119.267 184.681 117.587 173.754C116.354 165.722 116.694 157.701 118.597 149.901C120.433 142.362 123.648 135.363 128.155 129.079C132.661 122.795 138.227 117.544 144.705 113.489C151.417 109.281 158.808 106.549 166.685 105.352C174.552 104.155 182.429 104.58 190.102 106.607C197.504 108.566 204.39 111.916 210.567 116.588C216.745 121.25 221.912 126.984 225.923 133.635C230.08 140.518 232.809 148.077 234.043 156.098C234.82 161.166 234.966 166.292 234.48 171.341C234.121 175.096 233.412 178.812 232.363 182.432L232.576 182.48L231.275 185.801C230.983 186.631 230.673 187.452 230.352 188.243C229.41 190.782 227.817 193.716 225.981 197.114C221.436 205.522 215.288 216.894 215.618 229.105C216.628 230.012 217.56 231.547 217.959 234.163C218.706 239.047 216.385 241.634 213.743 242.04L213.753 242.05ZM163.198 243.44L211.869 236.065C211.869 235.823 211.869 235.505 211.801 235.109C211.713 234.559 211.606 234.173 211.509 233.941L209.674 233.651L209.489 231.199C208.401 216.585 215.394 203.649 220.503 194.199C222.242 190.985 223.738 188.214 224.534 186.071L224.563 185.984C224.864 185.251 225.156 184.478 225.428 183.716V183.677C228.419 175.231 229.264 166.022 227.885 157.044C226.778 149.814 224.32 143.018 220.591 136.831C216.987 130.865 212.345 125.71 206.808 121.53C201.272 117.351 195.114 114.349 188.51 112.601C181.672 110.796 174.65 110.42 167.637 111.482C160.624 112.543 154.029 114.986 148.046 118.731C142.258 122.361 137.285 127.042 133.254 132.67C129.213 138.308 126.329 144.592 124.677 151.359C122.968 158.367 122.657 165.587 123.774 172.817C125.28 182.664 129.388 191.882 135.643 199.489L135.701 199.566C137.11 201.391 139.383 203.621 142.015 206.188C149.804 213.834 160.488 224.297 163.664 238.613L163.995 240.119L163.004 241.277C162.946 241.374 162.79 241.818 162.897 242.513C162.965 242.938 163.091 243.247 163.208 243.43L163.198 243.44Z" fill="white"/>
<path d="M164.335 90.0036C162.636 90.2642 161.043 89.0962 160.781 87.4069L156.973 62.5694C156.711 60.8801 157.886 59.297 159.586 59.0364C161.286 58.7757 162.878 59.9438 163.141 61.6331L166.948 86.4705C167.21 88.1598 166.035 89.7429 164.335 90.0036Z" fill="white"/>
<path d="M272.35 147.594L247.359 151.378C245.659 151.639 244.066 150.471 243.804 148.782C243.542 147.092 244.717 145.509 246.417 145.249L271.408 141.465C273.108 141.204 274.7 142.372 274.963 144.061C275.225 145.751 274.05 147.334 272.35 147.594Z" fill="white"/>
<path d="M103.582 173.155L78.5915 176.939C76.8917 177.2 75.2989 176.032 75.0366 174.343C74.7744 172.653 75.9496 171.07 77.6493 170.81L102.64 167.026C104.34 166.765 105.933 167.933 106.195 169.622C106.457 171.312 105.282 172.895 103.582 173.155Z" fill="white"/>
<path d="M217.222 96.5483C216.513 96.6545 215.775 96.5193 215.114 96.1235C213.648 95.2258 213.191 93.3145 214.095 91.8569L227.372 70.4752C228.275 69.0176 230.198 68.5639 231.665 69.4616C233.132 70.3594 233.588 72.2707 232.685 73.7283L219.407 95.1099C218.902 95.9208 218.096 96.4131 217.222 96.5483Z" fill="white"/>
<path d="M115.169 112.003C114.295 112.138 113.372 111.897 112.653 111.279L93.5678 94.801C92.2663 93.6813 92.1303 91.7217 93.257 90.4282C94.3837 89.1346 96.3554 88.9995 97.6569 90.1193L116.742 106.597C118.044 107.717 118.18 109.676 117.053 110.97C116.548 111.549 115.878 111.897 115.169 112.003Z" fill="white"/>
</svg>
