<svg width="350" height="350" viewBox="0 0 350 350" fill="none" xmlns="http://www.w3.org/2000/svg">
<circle cx="175" cy="175" r="175" fill="#6587FF"/>
<path d="M92 86.9112V263.365C92 277.113 103.675 288.291 118.037 288.291H232.845C247.192 288.291 258.868 277.999 258.868 265.354V105.711C258.868 98.5538 255.164 91.9486 248.848 87.6225V86.9257C248.848 73.1781 237.172 62 222.825 62H118.037C103.69 62 92 73.1781 92 86.9257V86.9112ZM100.321 86.9112C100.321 77.7655 108.264 70.3183 118.023 70.3183H222.81C232.569 70.3183 240.512 77.7655 240.512 86.9112V89.9162C240.512 91.426 241.325 92.8196 242.661 93.56C247.599 96.2892 250.547 100.833 250.547 105.696V265.34C250.547 273.397 242.603 279.958 232.845 279.958H118.037C108.279 279.958 100.335 272.511 100.335 263.365V86.9112H100.321Z" fill="white"/>
<path d="M120.564 99.3522C121.305 99.9619 122.249 100.296 123.207 100.296H143.654V169.919C143.654 171.589 144.641 173.084 146.18 173.752C146.703 173.97 147.269 174.086 147.807 174.086C148.867 174.086 149.898 173.694 150.682 172.939L167.919 156.491L186.013 172.997C187.233 174.115 188.99 174.391 190.5 173.737C192.01 173.07 192.983 171.574 192.983 169.934V100.31H233.469C235.139 100.31 236.635 99.3232 237.289 97.7844C237.623 97.015 240.396 90.1339 237.158 83.9787C235.764 81.3366 232.714 77.9106 226.078 76.5895C225.817 76.5315 225.541 76.5024 225.265 76.5024H123.207C122.96 76.5024 122.728 76.5314 122.481 76.5605C121.624 76.7056 114.044 78.2155 112.432 84.3126C110.631 91.1791 118.096 97.3343 120.55 99.3522H120.564ZM123.643 84.8207H224.829C227.356 85.3868 229.011 86.403 229.781 87.8257C230.449 89.0741 230.478 90.642 230.289 91.9921H188.83C186.536 91.9921 184.662 93.8502 184.662 96.1584V160.512L170.664 147.737C169.865 147.011 168.863 146.649 167.861 146.649C166.859 146.649 165.784 147.026 164.986 147.795L151.974 160.207V96.1584C151.974 93.8647 150.116 91.9921 147.807 91.9921H124.732C120.404 88.1596 120.477 86.4611 120.477 86.4466C120.651 85.9965 122.162 85.1691 123.628 84.8352L123.643 84.8207Z" fill="white"/>
<path d="M159.438 131.145L158.465 136.835C158.334 137.619 158.654 138.403 159.293 138.868C159.656 139.129 160.092 139.26 160.513 139.26C160.847 139.26 161.181 139.172 161.486 139.027L166.612 136.342L171.723 139.027C172.42 139.39 173.277 139.332 173.916 138.868C174.555 138.403 174.874 137.619 174.744 136.835L173.771 131.145L177.91 127.109C178.476 126.557 178.679 125.73 178.432 124.975C178.185 124.22 177.532 123.668 176.748 123.567L171.026 122.739L168.47 117.557C168.122 116.845 167.396 116.395 166.597 116.395C165.799 116.395 165.087 116.845 164.724 117.557L162.168 122.739L156.447 123.567C155.662 123.683 155.009 124.234 154.762 124.975C154.515 125.73 154.719 126.557 155.285 127.109L159.424 131.145H159.438ZM163.853 126.688C164.535 126.586 165.116 126.165 165.421 125.555L166.597 123.175L167.773 125.555C168.078 126.165 168.659 126.601 169.342 126.688L171.97 127.065L170.068 128.923C169.574 129.403 169.356 130.085 169.472 130.767L169.923 133.395L167.57 132.161C167.265 132.001 166.931 131.928 166.597 131.928C166.263 131.928 165.929 132.001 165.624 132.161L163.272 133.395L163.722 130.782C163.838 130.114 163.62 129.417 163.127 128.938L161.224 127.08L163.853 126.702V126.688Z" fill="white"/>
</svg>
