<svg width="350" height="350" viewBox="0 0 350 350" fill="none" xmlns="http://www.w3.org/2000/svg">
<circle cx="175" cy="175" r="175" fill="#E8CA1A"/>
<path d="M80.6785 183.145C75.9356 184.161 72.3574 188.41 72.3574 193.491C72.3574 195.834 73.1152 198.064 74.4903 199.885L70.0983 226.026C69.9159 227.141 70.2245 228.285 70.9542 229.16C71.6839 230.021 72.7504 230.529 73.8729 230.529H91.8481C92.9566 230.529 94.009 230.049 94.7387 229.202C95.4684 228.355 95.7911 227.24 95.6508 226.139L91.9042 198.883C92.8724 197.26 93.3776 195.397 93.3776 193.491C93.3776 189.68 91.357 186.335 88.326 184.472V170.328L111.998 180.661V239.788C111.998 247.072 117.892 253 125.132 253H233.166C240.406 253 246.3 247.072 246.3 239.788V177.047L302.695 152.431C304.14 151.795 305.066 150.327 304.996 148.747C304.926 147.152 303.902 145.768 302.4 145.26L174.133 101.207C173.291 100.911 172.379 100.939 171.537 101.25C127.616 117.976 55.4908 144.639 48.7975 145.048C46.9874 145.063 45.4438 146.347 45.0789 148.111C44.7141 149.904 45.6403 151.711 47.3101 152.431L80.6505 166.983V183.145H80.6785ZM78.4193 222.822L82.3624 199.292C82.5869 197.937 82.0817 196.568 81.0433 195.693C80.3979 195.143 80.019 194.338 80.019 193.491C80.019 191.91 81.2959 190.626 82.8675 190.626C84.4391 190.626 85.7161 191.91 85.7161 193.491C85.7161 194.366 85.3372 195.001 85.0145 195.368C84.2848 196.201 83.962 197.33 84.1023 198.431L87.456 222.822H78.4193ZM238.666 239.788C238.666 242.823 236.211 245.293 233.194 245.293H125.16C122.143 245.293 119.688 242.823 119.688 239.788V184.006L173.515 207.493C174.006 207.705 174.525 207.818 175.045 207.818C175.564 207.818 176.083 207.719 176.574 207.493L238.68 180.392V239.788H238.666ZM60.4862 149.777C88.2137 141.082 154.81 115.859 172.982 108.942L290.571 149.325L175.017 199.758L98.7098 166.447L163.145 157.893C165.966 159.629 170.162 160.702 175.017 160.702C183.899 160.702 190.606 157.145 190.606 152.431C190.606 147.716 183.913 144.159 175.017 144.159C167.355 144.159 161.335 146.813 159.82 150.567L85.0565 160.49L60.4862 149.763V149.777ZM163.272 152.445C163.272 150.638 167.846 148.027 175.031 148.027C182.215 148.027 186.79 150.638 186.79 152.445C186.79 154.251 182.215 156.863 175.031 156.863C167.846 156.863 163.272 154.251 163.272 152.445Z" fill="white"/>
</svg>
