<svg width="350" height="350" viewBox="0 0 350 350" fill="none" xmlns="http://www.w3.org/2000/svg">
<circle cx="175" cy="175" r="175" fill="#FF6765"/>
<path d="M250.762 75C243.422 75 237.451 80.8785 237.451 88.1055V96.918C234 94.2722 229.682 92.6868 224.987 92.6868C214.217 92.6868 205.392 100.984 204.712 111.424H176.532C175.852 100.984 167.027 92.6868 156.257 92.6868C149.523 92.6868 143.563 95.94 139.861 100.923C136.16 95.94 130.189 92.6868 123.455 92.6868C118.76 92.6868 114.442 94.2722 110.991 96.918V88.1055C110.991 80.8785 105.02 75 97.68 75C90.3396 75 84.369 80.8785 84.369 88.1055V239.328C78.7643 242.715 75 248.789 75 255.738C75 266.363 83.7729 275 94.5535 275H255.446C266.227 275 275 266.363 275 255.738C275 248.171 270.535 241.624 264.073 238.484V88.1055C264.073 80.8785 258.102 75 250.762 75ZM245.325 155.774V88.1055C245.325 85.1612 247.761 82.7521 250.762 82.7521C253.763 82.7521 256.189 85.1509 256.189 88.1055V236.517C255.938 236.517 255.697 236.476 255.446 236.476H245.325V155.764V155.774ZM224.976 100.449C231.846 100.449 237.441 105.957 237.441 112.721C237.441 119.484 231.846 124.992 224.976 124.992C218.107 124.992 212.512 119.484 212.512 112.721C212.512 105.957 218.107 100.449 224.976 100.449ZM156.246 100.449C163.116 100.449 168.71 105.957 168.71 112.721C168.71 119.484 163.116 124.992 156.246 124.992C149.377 124.992 143.782 119.484 143.782 112.721C143.782 105.957 149.377 100.449 156.246 100.449ZM139.851 124.508C143.552 129.481 149.523 132.734 156.246 132.734C166.567 132.734 175.099 125.116 176.396 115.294H204.816C206.113 125.116 214.646 132.734 224.966 132.734C229.661 132.734 233.979 131.138 237.43 128.503V139.971C233.979 137.326 229.661 135.74 224.966 135.74C217.186 135.74 210.421 140.064 207.002 146.385C203.583 140.054 196.817 135.74 189.038 135.74C178.268 135.74 169.442 144.038 168.763 154.477H110.97V128.503C114.421 131.138 118.739 132.734 123.434 132.734C130.168 132.734 136.128 129.481 139.84 124.508H139.851ZM189.059 223.484C199.609 223.484 208.309 215.526 209.302 205.396H237.451V236.487H110.991V219.253C114.442 221.899 118.76 223.484 123.455 223.484C134.006 223.484 142.705 215.526 143.699 205.396H168.825C169.819 215.536 178.519 223.484 189.069 223.484H189.059ZM176.595 203.45C176.595 196.686 182.189 191.179 189.059 191.179C195.929 191.179 201.512 196.686 201.512 203.45C201.512 210.214 195.929 215.722 189.059 215.722C182.189 215.722 176.595 210.214 176.595 203.45ZM209.292 201.515C208.298 191.384 199.599 183.426 189.048 183.426C178.498 183.426 169.798 191.384 168.805 201.515H143.678C142.684 191.384 133.985 183.426 123.434 183.426C118.739 183.426 114.421 185.022 110.97 187.658V158.369H168.888C170.185 168.19 178.717 175.808 189.038 175.808C196.817 175.808 203.583 171.484 207.002 165.153C210.421 171.484 217.186 175.808 224.966 175.808C229.661 175.808 233.979 174.212 237.43 171.577V201.515H209.281H209.292ZM176.595 155.774C176.595 149.01 182.189 143.503 189.059 143.503C195.929 143.503 201.512 149.01 201.512 155.774C201.512 162.538 195.929 168.046 189.059 168.046C182.189 168.046 176.595 162.538 176.595 155.774ZM224.976 168.046C218.107 168.046 212.512 162.538 212.512 155.774C212.512 149.01 218.107 143.503 224.976 143.503C231.846 143.503 237.441 149.01 237.441 155.774C237.441 162.538 231.846 168.046 224.976 168.046ZM123.445 100.449C130.314 100.449 135.898 105.947 135.909 112.71C135.909 119.474 130.314 124.972 123.445 124.972C116.575 124.972 110.981 119.464 110.981 112.7C110.981 105.936 116.575 100.429 123.445 100.429V100.449ZM123.445 191.179C130.314 191.179 135.909 196.686 135.909 203.45C135.909 210.214 130.314 215.722 123.445 215.722C116.575 215.722 110.981 210.214 110.981 203.45C110.981 196.686 116.575 191.179 123.445 191.179ZM92.2426 88.1055C92.2426 85.1612 94.679 82.7521 97.68 82.7521C100.681 82.7521 103.107 85.1509 103.107 88.1055V112.659C103.107 112.659 103.107 112.7 103.107 112.721C103.107 112.741 103.107 112.762 103.107 112.772V203.388C103.107 203.388 103.107 203.43 103.107 203.45C103.107 203.471 103.107 203.491 103.107 203.512V236.487H94.543C93.7588 236.487 92.9955 236.548 92.2322 236.631V88.1055H92.2426ZM267.116 255.738C267.116 262.08 261.877 267.238 255.436 267.238H94.543C88.1019 267.238 82.8632 262.08 82.8632 255.738C82.8632 249.396 88.1019 244.239 94.543 244.239H255.436C261.877 244.239 267.116 249.396 267.116 255.738Z" fill="white"/>
</svg>
