<svg width="300" height="280" viewBox="0 0 300 280" fill="none" xmlns="http://www.w3.org/2000/svg">
<g clip-path="url(#clip0_54_729)">
<path d="M17.3625 235.315C0.027504 213.671 -4.83124 182.467 5.07841 156.471C12.1126 138.032 25.5771 122.986 38.7534 108.4C54.1325 91.3793 69.5117 74.359 84.8908 57.3387C97.9916 42.8354 111.298 28.1651 127.659 17.59C148.274 4.2686 173.316 -1.8776 197.651 0.500228C221.979 2.88501 245.435 13.8077 262.983 31.0435C297.077 64.5348 305.772 118.001 296.569 165.196C288.869 204.716 268.295 243.595 233.755 263.543C212.762 275.668 188.091 280.007 163.928 279.847C141.734 279.701 117.783 277.385 96.5161 270.69C79.4556 265.315 60.8991 264.551 44.6827 256.798C34.176 251.779 24.6987 244.464 17.3625 235.308V235.315Z" fill="#DFE6EE"/>
<path d="M123.102 152.062C169.727 165.099 218.609 169.827 266.826 165.954C243.445 199.744 218.939 227.764 196.395 262.075C194.02 265.691 187.569 271.392 183.596 273.026C180.7 274.215 177.468 274.055 174.345 273.881C164.058 273.304 153.764 272.72 143.477 272.143C134.439 271.635 125.277 271.107 116.514 268.611C112.966 267.603 108.718 267.13 108.457 262.979C108.169 258.314 109.795 252.759 110.413 248.107C113.11 227.694 115.807 207.274 118.504 186.861C120.034 175.264 121.572 163.66 123.102 152.062Z" fill="white"/>
<path d="M285.191 133.832C285.623 133.665 286.076 133.505 286.536 133.561C286.995 133.61 287.455 133.93 287.565 134.416C287.689 134.993 287.291 135.543 286.879 135.939C285.973 136.808 284.895 137.42 283.818 138.011C280.901 139.61 277.93 141.105 274.924 142.495C274.821 142.043 274.375 140.987 274.512 140.549C274.65 140.124 275.487 139.631 275.809 139.367C276.77 138.567 277.765 137.823 278.795 137.142C280.826 135.793 282.967 134.75 285.191 133.839V133.832Z" fill="#313B59"/>
<path d="M274.849 129.632C275.651 128.158 276.605 126.684 278.033 125.829C278.726 125.419 279.769 125.245 280.208 125.926C280.572 126.489 280.249 127.233 279.934 127.817C278.026 131.342 276.111 134.861 274.203 138.386C273.702 138.107 272.145 137.586 271.904 137.058C271.651 136.501 272.392 135.153 272.591 134.603C273.229 132.886 274.183 131.315 274.855 129.632H274.849Z" fill="#313B59"/>
<path d="M266.174 126.052C266.209 125.433 266.27 124.8 266.559 124.251C266.847 123.702 267.403 123.257 268.013 123.299C268.59 123.333 269.077 123.792 269.317 124.321C269.558 124.849 269.606 125.447 269.64 126.031C269.832 129.493 269.743 132.963 269.654 136.425C269.654 136.488 266.991 136.863 266.778 136.655C266.339 136.217 266.449 133.846 266.387 133.206C266.161 130.835 266.03 128.444 266.174 126.059V126.052Z" fill="#313B59"/>
<path d="M254.954 130.842C254.768 130.189 254.617 129.494 254.741 128.826C254.865 128.152 255.311 127.505 255.956 127.324C256.525 127.171 257.143 127.401 257.589 127.783C258.042 128.166 258.364 128.68 258.673 129.181C260.657 132.386 262.64 135.591 264.623 138.796C264.006 139.248 263.395 139.721 262.763 140.152C262.077 140.618 261.926 140.576 261.274 140.055C260.279 139.248 259.353 138.337 258.522 137.357C256.916 135.466 255.626 133.248 254.947 130.842H254.954Z" fill="#313B59"/>
<path d="M261.006 139.86C262.715 137.447 265.495 135.841 268.418 135.591C270.271 135.431 272.234 135.834 273.668 137.037C275.329 138.435 276.042 140.68 276.392 142.85C276.818 145.513 276.804 148.287 275.974 150.845C275.137 153.404 273.414 155.726 271.026 156.922C268.638 158.118 265.591 158.034 263.456 156.421C260.876 154.461 260.547 151.36 259.606 148.488C258.659 145.596 259.236 142.37 261.006 139.853V139.86Z" fill="#7991D1"/>
<path d="M260.025 146.847C260.924 146.548 261.899 146.569 262.832 146.729C265.097 147.112 267.217 148.321 268.72 150.087C270.223 151.853 271.088 154.155 271.129 156.484C271.149 157.61 270.772 158.987 269.695 159.244C268.953 159.425 268.219 158.973 267.588 158.535C264.87 156.63 262.345 154.454 260.053 152.048C258.447 150.359 256.964 147.856 260.039 146.847H260.025Z" fill="#313B59"/>
<path d="M251.769 151.325C254.473 149.33 257.596 147.571 260.938 147.689C263.8 147.787 266.545 149.344 268.233 151.687C269.921 154.03 270.546 157.096 270.045 159.947C269.091 165.342 264.527 169.291 259.909 172.156C254.597 175.451 248.805 177.954 242.786 179.567C239.979 180.318 237.269 180.005 236.109 176.96C235.388 175.062 235.381 172.42 236.109 170.515C237.859 165.968 241.489 161.324 244.694 157.757C246.828 155.386 249.196 153.224 251.763 151.332L251.769 151.325Z" fill="#7991D1"/>
<path d="M267.924 160.016C266.73 162.074 265.44 163.992 263.765 165.689C262.104 167.378 260.224 168.832 258.227 170.083C253.862 172.829 249.004 174.491 244.317 176.535C244.22 176.577 244.289 176.737 244.385 176.709C249.409 175.172 254.425 173.17 258.858 170.312C262.653 167.865 266.455 164.493 268.308 160.245C268.425 159.981 268.068 159.751 267.917 160.016H267.924Z" fill="#4C5980"/>
<path d="M262.846 162.832C262.283 163.263 261.885 163.882 261.418 164.41C260.931 164.959 260.41 165.474 259.881 165.981C258.804 167.003 257.637 167.914 256.367 168.686C256.203 168.79 256.347 169.041 256.518 168.95C257.843 168.248 259.099 167.4 260.238 166.419C260.808 165.933 261.336 165.39 261.837 164.834C262.324 164.299 262.873 163.736 263.12 163.04C263.175 162.894 262.976 162.728 262.846 162.825V162.832Z" fill="#4C5980"/>
<path d="M274.148 141.098C274.039 140.834 273.689 140.931 273.723 141.216C273.867 142.259 274.107 143.267 274.162 144.324C274.21 145.263 274.183 146.201 274.08 147.133C273.867 149.149 273.263 151.138 272.33 152.932C272.241 153.105 272.488 153.258 272.591 153.084C273.668 151.277 274.361 149.302 274.643 147.209C274.903 145.263 274.883 142.94 274.148 141.098Z" fill="#4C5980"/>
<path d="M130.177 116.638C130.877 116.332 131.708 116.068 132.367 116.451C133.005 116.819 133.224 117.688 133.046 118.411C132.867 119.134 132.38 119.732 131.879 120.275C129.416 122.924 126.176 124.815 122.676 125.642C122.141 124.815 121.331 123.459 121.853 122.59C122.395 121.686 123.562 120.859 124.365 120.198C126.128 118.745 128.084 117.535 130.177 116.631V116.638Z" fill="#313B59"/>
<path d="M115.951 111.855C116.075 110.506 116.322 109.046 117.303 108.122C117.687 107.76 118.236 107.496 118.73 107.677C119.334 107.892 119.561 108.622 119.671 109.262C120.371 113.197 119.89 117.23 119.41 121.2C119.41 121.214 116.562 121.512 116.349 121.408C115.752 121.109 115.889 119.308 115.848 118.655C115.704 116.395 115.738 114.122 115.951 111.862V111.855Z" fill="#313B59"/>
<path d="M106.398 112.759C106.295 112.133 106.227 111.486 106.412 110.881C106.59 110.277 107.071 109.727 107.689 109.651C108.567 109.54 109.267 110.36 109.754 111.111C111.909 114.441 113.494 118.154 114.407 122.034C113.275 122.479 112.19 123.362 111.209 122.402C110.344 121.554 109.603 120.546 108.958 119.517C107.702 117.514 106.687 115.13 106.391 112.759H106.398Z" fill="#313B59"/>
<path d="M99.6867 122.006C99.1514 121.443 98.6435 120.817 98.4102 120.073C98.1769 119.329 98.273 118.432 98.822 117.883C99.3504 117.355 100.194 117.257 100.908 117.452C101.629 117.647 102.253 118.092 102.85 118.537C105.602 120.581 108.183 122.847 110.763 125.114C110.804 125.149 110.166 126.894 110.063 127.019C109.679 127.478 109.452 127.332 108.821 127.193C107.668 126.936 106.542 126.567 105.458 126.087C103.296 125.128 101.32 123.737 99.6867 122.013V122.006Z" fill="#313B59"/>
<path d="M108.91 131.83C107.949 129.369 108.299 126.449 109.706 124.217C111.12 121.985 113.529 120.47 116.109 120.045C117.639 119.795 119.3 119.934 120.611 120.776C121.681 121.464 122.443 122.576 122.91 123.779C123.376 124.982 123.562 126.268 123.672 127.547C123.775 128.709 123.802 129.946 123.253 130.968C122.752 131.9 121.846 132.526 120.975 133.117C119.705 133.972 118.435 134.827 117.166 135.682C113.961 137.837 110.166 135.022 108.917 131.823L108.91 131.83Z" fill="#7991D1"/>
<path d="M115.272 133.659C116.253 131.851 118.003 130.488 119.979 130.002C121.167 129.71 122.471 129.731 123.541 130.328C124.612 130.926 125.367 132.178 125.154 133.395C124.941 134.618 123.891 135.487 122.917 136.238C121.743 137.142 120.563 138.046 119.231 138.686C118.264 139.151 115.471 140.257 114.627 139.11C113.68 137.824 114.613 134.876 115.272 133.666V133.659Z" fill="#313B59"/>
<path d="M117.049 148.719C115.601 145.618 114.373 142.26 114.64 138.839C114.908 135.418 117.042 131.942 120.33 131.114C122.67 130.523 125.188 131.358 127.124 132.825C129.052 134.292 130.486 136.322 131.776 138.387C136.56 146.028 139.895 154.601 141.542 163.493C141.83 165.065 142.057 166.761 141.357 168.193C137.404 176.279 123.013 158.897 120.885 155.651C119.437 153.44 118.161 151.117 117.042 148.719H117.049Z" fill="#7991D1"/>
<path d="M133.183 163.382C132.497 162.513 131.42 161.852 130.596 161.115C129.738 160.35 128.894 159.558 128.084 158.737C126.451 157.069 124.948 155.275 123.596 153.363C120.899 149.553 118.868 145.318 117.296 140.917C117.248 140.785 117.049 140.834 117.084 140.973C118.305 145.631 120.515 149.963 123.315 153.863C124.674 155.761 126.183 157.555 127.817 159.21C128.661 160.065 129.539 160.886 130.466 161.657C131.255 162.311 132.133 163.173 133.094 163.542C133.19 163.576 133.238 163.451 133.183 163.382Z" fill="#4C5980"/>
<path d="M129.882 155.498C129.608 155.101 129.203 154.795 128.846 154.475C128.475 154.142 128.112 153.808 127.755 153.453C127.027 152.73 126.348 151.966 125.717 151.159C124.44 149.532 123.308 147.752 122.395 145.889C122.333 145.764 122.114 145.854 122.162 145.986C122.93 147.954 123.926 149.775 125.209 151.444C125.854 152.278 126.547 153.071 127.281 153.815C127.961 154.503 128.757 155.414 129.67 155.769C129.814 155.824 129.972 155.623 129.882 155.491V155.498Z" fill="#4C5980"/>
<path d="M169.713 249.414C156.962 238.095 147.183 223.369 141.645 207.135C136.107 190.9 134.947 173.901 138.076 157.019C138.66 153.891 142.379 151.165 145.371 150.192C148.363 149.218 151.554 149.156 154.698 149.107C172.678 148.864 190.706 149.038 208.562 151.186C215.542 152.027 222.596 153.195 228.958 156.234C232.52 157.937 236.816 161.087 239.273 164.208C241.434 182.188 235.752 200.119 225.945 215.262C216.139 230.405 200.924 241.863 183.781 247.015C179.17 248.399 174.469 250.179 169.72 249.421L169.713 249.414Z" fill="#7991D1"/>
<path d="M232.691 183.823C221.423 179.609 209.763 176.696 197.912 174.791C186.135 172.893 174.16 172.066 162.24 172.316C158.911 172.386 155.583 172.546 152.261 172.789C148.926 173.032 145.481 173.199 142.235 174.047C141.878 174.138 141.967 174.68 142.324 174.687C145.309 174.708 148.295 174.27 151.273 174.047C154.203 173.825 157.141 173.679 160.085 173.588C166.021 173.408 171.964 173.498 177.886 173.873C189.724 174.624 201.521 176.481 213.016 179.463C219.522 181.153 225.952 183.086 232.3 185.325C233.24 185.658 233.611 184.164 232.698 183.823H232.691Z" fill="#313B59"/>
<path d="M175.285 173.539C176.528 168.971 180.865 165.46 185.531 165.238C190.198 165.015 194.844 168.095 196.511 172.524C198.172 176.953 196.724 182.383 193.094 185.359C184.872 192.096 172.479 183.864 175.285 173.539Z" fill="#313B59"/>
<path d="M177.262 174.082C178.278 170.355 181.812 167.491 185.627 167.303C189.436 167.122 193.231 169.639 194.583 173.248C195.942 176.863 194.762 181.292 191.79 183.725C185.078 189.225 174.97 182.502 177.262 174.082Z" fill="#FFD075"/>
<path d="M239.939 165.696C239.904 165.467 239.527 165.467 239.485 165.696C239.3 166.753 239.424 167.921 239.417 168.992L239.396 172.225C239.396 173.303 239.383 174.38 239.396 175.458C239.396 176.042 239.41 176.619 239.417 177.203C239.417 177.634 239.355 178.086 239.595 178.462C239.609 178.476 239.63 178.476 239.637 178.462C239.877 178.093 239.822 177.634 239.836 177.203L239.884 175.458C239.911 174.38 239.925 173.303 239.932 172.225L239.966 168.992C239.98 167.921 240.117 166.753 239.945 165.696H239.939Z" fill="white"/>
<path d="M146.181 149.816C142.812 150.094 140.066 152.479 138.509 155.413C137.568 157.179 137.068 159.154 136.786 161.128C136.635 162.185 136.539 163.256 136.505 164.327C136.47 165.279 136.23 166.6 136.573 167.49C136.587 167.532 136.656 167.56 136.683 167.504C136.992 166.795 136.869 165.877 136.91 165.112C136.965 164.167 137.026 163.221 137.122 162.283C137.342 160.218 137.768 158.118 138.66 156.234C140.08 153.237 142.784 150.658 146.174 150.414C146.552 150.386 146.552 149.789 146.174 149.816H146.181Z" fill="white"/>
<path d="M229.974 156.074C225.74 153.682 221.032 152.431 216.269 151.659C211.177 150.839 206.009 150.401 200.876 149.97C190.02 149.052 179.129 148.572 168.231 148.544C162.075 148.524 155.912 148.635 149.763 149.01C149.516 149.024 149.509 149.407 149.763 149.4C171.12 148.885 192.6 149.08 213.819 151.93C219.296 152.667 224.786 153.863 229.658 156.617C230.008 156.818 230.324 156.269 229.974 156.074Z" fill="white"/>
<path d="M227.345 195.67C224.806 204.562 220.84 212.954 215.185 220.254C209.654 227.381 202.695 233.312 194.844 237.657C190.294 240.174 185.497 242.003 180.583 243.636C180.323 243.72 180.432 244.109 180.693 244.047C189.512 242.044 197.932 237.358 204.953 231.678C212.145 225.865 218.101 218.523 222.384 210.277C224.765 205.695 226.645 200.842 227.826 195.802C227.901 195.482 227.428 195.35 227.339 195.663L227.345 195.67Z" fill="#4C5980"/>
<path d="M219.206 203.617C217.971 206.225 216.928 208.888 215.521 211.411C214.066 214.026 212.419 216.529 210.587 218.886C207.011 223.495 202.784 227.507 198.076 230.9C195.414 232.819 192.6 234.494 189.656 235.934C189.45 236.038 189.628 236.337 189.834 236.246C200.492 231.331 209.454 223.002 215.411 212.802C217.051 209.993 218.719 206.941 219.611 203.784C219.68 203.548 219.323 203.381 219.213 203.61L219.206 203.617Z" fill="#4C5980"/>
<path d="M184.028 170.869C184.241 170.432 184.735 170.147 185.209 170.202C185.689 170.258 186.108 170.682 186.128 171.168C186.142 171.488 185.998 171.808 185.765 172.037C185.538 172.26 185.229 172.399 184.92 172.461C183.987 172.649 183.671 171.599 184.028 170.876V170.869Z" fill="white"/>
<path d="M180.851 174.179C180.865 173.852 181.091 173.533 181.407 173.435C181.723 173.338 182.094 173.484 182.238 173.783C182.334 173.977 182.327 174.221 182.245 174.422C182.162 174.624 182.011 174.791 181.833 174.916C181.304 175.291 180.824 174.728 180.851 174.179Z" fill="white"/>
<path d="M198.014 77.5226C198.996 70.2987 201.892 63.346 206.325 57.5961C206.675 57.1442 207.499 57.6239 207.622 58.1871C207.746 58.7503 207.43 59.2995 207.142 59.7932C203.916 65.2372 202.159 71.5572 202.105 77.905C200.856 78.1206 199.174 78.051 198.014 77.5296V77.5226Z" fill="#313B59"/>
<path d="M203.971 57.3523C203.175 55.9131 203.134 54.1054 203.738 52.5758C204.342 51.0462 205.556 49.8017 207.004 49.0508C208.569 48.2373 210.587 48.0287 212.021 49.0647C212.872 49.6835 213.414 50.6708 213.682 51.6998C214.162 53.577 213.757 55.6698 212.611 57.2272C210.47 60.1334 205.927 60.8913 203.978 57.3523H203.971Z" fill="#FFD075"/>
<path d="M212.742 52.0339C212.659 51.7697 212.268 51.8809 212.337 52.1451C212.824 53.9946 212.083 56.1847 210.491 57.2554C209.66 57.8185 208.658 58.0549 207.663 57.9924C207.169 57.9576 206.682 57.8394 206.215 57.6656C205.975 57.5752 205.742 57.457 205.522 57.3319C205.357 57.2345 205.234 57.1441 205.035 57.1859C205.007 57.1859 204.987 57.2206 204.987 57.2484C205.014 57.6934 205.742 57.9715 206.085 58.1245C206.565 58.333 207.087 58.4512 207.608 58.493C208.713 58.5903 209.873 58.3122 210.799 57.6795C212.584 56.4628 213.38 54.1058 212.742 52.0269V52.0339Z" fill="#EB9921"/>
<path d="M148.034 114.399C147.677 107.113 150.278 99.8334 154.608 93.9444C158.939 88.0555 164.93 83.4945 171.463 80.185C181.366 75.1721 192.847 72.9403 203.779 74.9357C214.705 76.9311 224.95 83.3693 230.592 92.8946C235.45 101.099 236.699 110.951 236.576 120.476C236.535 123.487 236.329 126.643 234.75 129.216C232.952 132.157 229.123 134.555 225.897 135.814C215.075 140.048 203.738 140.291 192.14 139.478C183.795 138.894 177.399 138.65 169.212 136.94C165.849 136.238 159.261 134.187 156.551 132.052C153.956 130.008 152.371 127.943 150.868 125.016C149.18 121.734 148.206 118.077 148.027 114.392L148.034 114.399Z" fill="#7991D1"/>
<path d="M161.217 117.264C161.505 111.25 162.26 105.264 163.475 99.3677C163.983 96.8786 164.662 94.2575 166.481 92.5123C168.567 90.5099 171.662 90.1206 174.524 89.8703C189.422 88.5423 204.774 88.1669 218.959 92.9712C220.62 93.5344 222.329 94.2157 223.447 95.5785C225.026 97.5044 225.026 100.265 224.875 102.768C224.58 107.746 224.031 112.703 223.242 117.626C222.686 121.088 221.828 124.829 219.103 126.998C216.997 128.68 214.176 129.063 211.5 129.25C205.666 129.654 199.806 129.383 193.979 128.945C186.588 128.388 179.218 127.547 171.888 126.428C169.397 126.045 165.582 126.157 163.495 124.592C161.334 122.972 161.1 119.732 161.224 117.271L161.217 117.264Z" fill="#313B59"/>
<path d="M179.829 99.4923C178.099 99.3254 176.377 100.243 175.217 101.502C173.906 102.92 173.165 104.797 172.685 106.647C172.575 107.064 173.206 107.363 173.391 106.953C174.538 104.415 176.047 100.48 179.485 100.841C180.81 100.98 181.901 101.967 182.512 103.115C182.889 103.817 183.088 104.616 183.171 105.409C183.26 106.278 183.171 107.119 183.205 107.982C183.232 108.76 184.433 109.004 184.605 108.176C185.312 104.797 183.733 99.8955 179.822 99.5062L179.829 99.4923Z" fill="white"/>
<path d="M209.324 105.278C208.754 103.804 207.739 102.538 206.353 101.773C203.498 100.195 199.833 100.89 197.836 103.512C196.813 104.853 196.113 106.772 196.573 108.469C196.711 108.983 197.41 108.844 197.452 108.351C197.589 106.675 197.939 105.111 199.126 103.852C200.286 102.629 201.94 102.072 203.594 102.26C205.241 102.448 206.737 103.352 207.588 104.805C207.993 105.5 208.253 106.272 208.35 107.078C208.446 107.927 208.288 108.643 208.164 109.477C208.061 110.151 208.995 110.708 209.351 109.985C210.038 108.594 209.866 106.703 209.317 105.298L209.324 105.278Z" fill="white"/>
<path d="M202.77 117.402C202.743 117.222 202.557 117.131 202.4 117.117C200.711 116.957 199.016 116.832 197.321 116.742C196.491 116.693 195.661 116.658 194.83 116.631C194.432 116.617 194.034 116.61 193.629 116.617C193.211 116.624 192.764 116.582 192.366 116.707C192.339 116.714 192.332 116.735 192.312 116.749C192.195 116.749 192.071 116.797 191.989 116.93C191.564 117.625 191.152 118.334 190.74 119.043C190.534 119.398 190.328 119.752 190.129 120.107C190.074 120.204 190.013 120.302 189.958 120.406C189.889 120.024 189.793 119.648 189.724 119.28C189.601 118.598 189.491 117.917 189.381 117.235C189.278 116.582 189.189 115.921 189.079 115.261C189.024 114.934 188.969 114.607 188.915 114.281C188.86 113.954 188.839 113.641 188.668 113.356C188.599 113.252 188.468 113.245 188.386 113.314C188.331 113.3 188.269 113.3 188.215 113.314C188.009 113.377 187.885 113.537 187.741 113.69C187.618 113.822 187.515 113.961 187.405 114.107C187.185 114.392 186.966 114.677 186.753 114.962C186.533 115.254 186.293 115.539 186.094 115.845C185.977 116.026 185.833 116.234 185.744 116.45C185.085 116.339 184.399 116.332 183.74 116.283C182.937 116.22 182.127 116.151 181.324 116.095C180.549 116.04 179.774 115.984 178.998 115.928C178.257 115.873 177.433 115.72 176.692 115.88C176.425 115.935 176.479 116.29 176.692 116.373C177.365 116.631 178.195 116.61 178.909 116.665C179.684 116.728 180.46 116.791 181.235 116.853C182.011 116.916 182.786 116.971 183.562 117.034C184.323 117.089 185.126 117.236 185.888 117.187C186.039 117.18 186.149 117.076 186.197 116.95C186.417 116.825 186.609 116.596 186.767 116.422C187.007 116.158 187.219 115.866 187.446 115.588C187.659 115.317 187.878 115.038 188.091 114.767C188.16 114.684 188.221 114.593 188.29 114.503C188.324 114.774 188.366 115.045 188.393 115.289C188.455 115.956 188.558 116.624 188.654 117.291C188.75 117.952 188.853 118.605 188.969 119.266C189.079 119.919 189.12 120.677 189.361 121.303C189.436 121.504 189.656 121.581 189.827 121.532C189.896 121.546 189.978 121.532 190.047 121.477C190.349 121.233 190.568 120.837 190.774 120.503C190.987 120.156 191.2 119.808 191.413 119.453C191.838 118.751 192.257 118.056 192.662 117.34C192.668 117.326 192.668 117.305 192.675 117.291C192.957 117.34 193.252 117.333 193.533 117.354C193.965 117.388 194.398 117.409 194.83 117.423C195.661 117.451 196.491 117.493 197.321 117.534C199.016 117.625 200.711 117.757 202.4 117.91C202.578 117.924 202.715 117.771 202.77 117.625C202.798 117.548 202.784 117.493 202.77 117.416V117.402Z" fill="#FFD075"/>
<path d="M229.054 130.258C226.44 131.718 223.811 133.025 220.97 133.999C218.17 134.958 215.281 135.646 212.364 136.119C206.112 137.134 199.737 137.141 193.43 136.78C189.724 136.564 186.025 136.251 182.32 136.119C182.196 136.119 182.169 136.321 182.292 136.335C188.825 137.322 195.475 137.809 202.084 137.704C208.219 137.614 214.389 136.87 220.256 134.979C223.406 133.964 226.597 132.65 229.384 130.828C229.74 130.599 229.425 130.042 229.054 130.251V130.258Z" fill="#4C5980"/>
<path d="M178.236 135.326C177.481 135.187 176.685 135.201 175.917 135.118C175.141 135.027 174.366 134.909 173.597 134.756C172.863 134.61 172.122 134.451 171.394 134.263C170.626 134.068 169.836 133.707 169.061 133.603C168.855 133.575 168.711 133.839 168.91 133.964C169.541 134.353 170.379 134.527 171.085 134.736C171.861 134.965 172.643 135.166 173.439 135.319C174.201 135.472 174.97 135.59 175.738 135.688C176.514 135.785 177.372 135.938 178.154 135.862C178.435 135.834 178.545 135.382 178.223 135.326H178.236Z" fill="#4C5980"/>
<path d="M163.99 84.3286C154.993 89.849 148.926 99.4786 147.924 110.102C147.615 113.342 147.698 116.728 148.473 119.892C148.549 120.198 148.967 120.059 148.926 119.767C148.178 114.142 148.274 108.635 149.99 103.184C151.541 98.2827 154.245 93.7982 157.799 90.1202C159.748 88.1039 161.938 86.3588 164.319 84.8987C164.683 84.6762 164.353 84.0991 163.99 84.3216V84.3286Z" fill="white"/>
<path d="M225.252 85.5036C212.81 74.5947 195.187 71.1253 179.616 76.2564C177.461 76.9656 175.347 77.8347 173.309 78.8498C171.298 79.844 169.226 80.9356 167.517 82.4165C167.339 82.5695 167.565 82.8407 167.757 82.7364C169.562 81.7699 171.257 80.6227 173.083 79.6841C174.881 78.7664 176.733 77.9599 178.628 77.2785C182.443 75.9088 186.43 75.0258 190.466 74.6851C198.33 74.0107 206.305 75.4291 213.51 78.6968C217.6 80.5532 221.395 83.0075 224.841 85.9207C225.129 86.1641 225.541 85.7539 225.252 85.4966V85.5036Z" fill="white"/>
<path d="M85.5084 258.224C86.0643 258.245 83.8477 258.634 84.4036 258.655C66.3823 261.304 47.7022 260.184 30.1064 255.436C24.1908 237.247 22.8869 217.592 25.1722 198.583C31.623 194.579 38.6641 191.554 45.9934 189.649C52.0462 188.071 58.5657 187.195 64.7215 188.307C70.5548 189.357 76.4772 190.616 81.5213 193.772C82.8595 201.357 84.5545 208.859 85.8928 216.452C88.3015 230.114 86.4143 244.381 85.5153 258.231L85.5084 258.224Z" fill="#B345B5"/>
<path d="M75.9694 193.668C76.2645 192.938 76.4772 192.111 76.539 191.311C72.7645 189.851 68.7225 189.031 64.7215 188.308C58.5658 187.202 52.0463 188.078 45.9934 189.65C44.3601 190.074 42.7474 190.56 41.1484 191.096C41.0317 192.25 42.0405 193.64 43.015 194.934C44.9846 197.562 47.462 199.814 50.3306 201.4C54.7433 203.847 60.0824 204.66 64.9343 203.312C69.7862 201.963 74.0547 198.382 75.9694 193.668Z" fill="white"/>
<path d="M39.7345 214.456C39.0139 211.098 37.3188 207.942 35.164 205.3C34.0728 203.965 32.8375 202.755 31.4787 201.698C30.2297 200.732 28.6376 199.55 27.0798 199.195C26.819 199.133 26.7023 199.466 26.9013 199.619C27.5533 200.113 28.3219 200.44 29.0082 200.878C29.7013 201.316 30.367 201.796 31.0121 202.31C32.3091 203.332 33.4963 204.479 34.5532 205.752C36.7149 208.359 38.1629 211.376 39.0894 214.637C39.206 215.047 39.81 214.881 39.7207 214.463L39.7345 214.456Z" fill="#D66EC0"/>
<path d="M80.135 193.543C80.6016 193.265 81.2193 193.397 81.6516 193.724C82.0839 194.05 82.3722 194.537 82.6398 195.01C85.3986 199.877 87.4642 205.147 88.7476 210.605C89.8181 215.173 90.6348 219.713 91.3073 224.357L94.7318 247.983C94.7935 247.837 100.771 251.904 103.66 254.171C106.172 256.138 108.704 258.127 111.552 259.552C111.415 260.866 111.161 262.25 110.756 263.508C110.358 264.76 109.665 265.962 108.615 266.734C107.819 267.325 106.865 267.638 105.911 267.902C100.393 269.439 94.4779 269.467 88.9534 267.972C86.6064 267.339 84.129 266.254 83.0516 264.05C82.4339 262.785 82.3722 261.332 82.3584 259.92C82.3241 256.333 82.53 252.738 82.9761 249.172C84.8633 234.056 81.082 218.621 80.1899 203.416C79.9977 200.162 80.3271 196.79 80.135 193.536V193.543Z" fill="#B345B5"/>
<path d="M86.5038 219.288C86.4832 219.059 86.1331 219.059 86.1468 219.288C86.5381 224.753 86.6617 230.232 86.5587 235.711C86.4557 241.203 85.8722 246.626 85.5152 252.098C85.5015 252.342 85.9065 252.404 85.9477 252.154C86.8402 246.821 87.0118 241.28 87.1148 235.884C87.2178 230.343 86.9912 224.802 86.5038 219.288Z" fill="#D66EC0"/>
<path d="M84.2319 206.593C83.5799 203.137 82.9691 199.675 82.3515 196.219C82.3172 196.011 82.0084 196.101 82.0427 196.303C82.6466 199.71 83.2437 203.11 83.8064 206.523C84.3691 209.923 84.8289 213.372 85.6181 216.73C85.6662 216.939 86.023 216.904 85.9956 216.674C85.5907 213.288 84.8564 209.937 84.225 206.586L84.2319 206.593Z" fill="#D66EC0"/>
<path d="M93.2974 260.267C95.4454 260.156 97.5522 259.322 99.1992 257.924C99.5492 257.625 99.8924 257.285 100.043 256.847C100.194 256.409 100.002 255.818 99.611 255.574C96.214 256.728 92.4601 256.784 89.0288 255.727C89.6053 257.82 91.2454 259.662 93.3042 260.267H93.2974Z" fill="white"/>
<path d="M71.7487 253.363C77.0398 251.666 82.9142 251.924 88.0406 254.072C91.1013 255.358 93.565 257.764 96.1248 259.885C98.6846 262.012 100.929 264.626 102.178 267.734C90.669 268.061 79.0917 268.117 67.5968 267.519C67.0135 262.534 68.4272 257.09 71.7487 253.363Z" fill="white"/>
<path d="M39.8444 225.74C34.3131 235.481 28.7612 245.194 23.2231 254.942C39.4669 254.399 55.6971 253.628 71.9409 253.085C69.1615 257.264 67.391 262.548 67.5625 267.589C50.1315 269.827 32.3023 271.343 14.782 272.657C10.5066 269.41 7.04785 265.051 4.91357 260.087C10.3351 239.173 17.1016 218.614 25.1652 198.59C30.223 200.745 34.8141 204.395 37.4081 209.29C40.0022 214.185 42.5826 220.929 39.8444 225.747V225.74Z" fill="#B345B5"/>
<path d="M40.7984 224.266C41.1415 223.293 41.2925 222.208 41.32 221.207C41.3474 219.789 41.1484 218.377 40.7298 217.029C40.6406 216.737 40.1945 216.855 40.2768 217.154C40.6268 218.454 40.7778 219.789 40.7161 221.138C40.6612 222.271 40.4415 223.349 40.2219 224.44C36.2073 231.455 32.0417 238.408 28.2466 245.549C28.1025 245.82 28.4937 246.049 28.6515 245.792C32.9064 238.86 40.8808 224.357 40.7984 224.266Z" fill="#D66EC0"/>
<path d="M21.2947 255.129C20.9379 255.095 20.5467 255.192 20.1899 255.255C19.8467 255.31 19.4967 255.373 19.1536 255.435C18.4399 255.574 17.733 255.741 17.033 255.929C16.3331 256.117 15.6331 256.318 14.9537 256.576C14.6517 256.687 14.3566 256.819 14.0615 256.951C13.7458 257.09 13.3615 257.201 13.1145 257.465C13.039 257.549 13.0939 257.681 13.2037 257.681C13.5125 257.681 13.8076 257.528 14.0958 257.431C14.4252 257.313 14.7615 257.215 15.0909 257.104C15.7772 256.874 16.4634 256.638 17.1634 256.436C17.836 256.249 18.5154 256.082 19.2016 255.936C19.5448 255.866 19.8879 255.797 20.231 255.741C20.5879 255.679 20.9928 255.672 21.3359 255.54C21.5624 255.456 21.5212 255.143 21.281 255.122L21.2947 255.129Z" fill="#D66EC0"/>
<path d="M69.8753 252.988C63.3078 253.204 56.7402 253.44 50.1727 253.676C46.9472 253.795 43.7218 253.899 40.5032 254.003C38.8288 254.059 37.1611 254.114 35.4866 254.17C33.9563 254.219 32.3024 254.128 30.7926 254.434C30.6416 254.462 30.6965 254.67 30.8269 254.684C32.4534 254.9 34.2033 254.67 35.8435 254.615C37.3945 254.559 38.9454 254.504 40.5032 254.455C43.7904 254.344 47.0708 254.226 50.358 254.121C56.8637 253.913 63.3764 253.697 69.8822 253.468C70.1841 253.454 70.1841 252.981 69.8822 252.988H69.8753Z" fill="#D66EC0"/>
<path d="M47.2491 191.547C46.4461 186.75 45.6432 181.945 44.8403 177.148C44.7167 176.432 44.6824 175.521 45.3069 175.16C45.6638 174.951 46.103 175.021 46.5079 175.09C48.3471 175.417 50.1863 175.751 52.0255 176.077C53.8578 176.404 55.944 175.737 57.7763 176.022C59.6155 176.307 61.441 177.19 62.4635 178.768C63.0057 179.602 63.287 180.576 63.5615 181.535C64.4125 184.49 65.2635 187.452 66.1213 190.407C63.5272 192.562 60.2194 193.981 56.8705 194.231C53.5215 194.474 50.1245 193.306 47.2559 191.547H47.2491Z" fill="white"/>
<path d="M41.2856 172.615C45.5473 178.719 53.0893 182.3 60.4461 181.709C61.8254 181.598 62.8274 180.569 63.6578 179.449C66.3273 175.855 68.0361 173.866 68.99 169.472C69.5939 166.684 67.8989 161.915 65.9705 159.836C65.8401 155.768 65.0509 151.59 63.8019 147.724C59.0324 145.611 53.3364 145.179 48.4159 146.89C43.4954 148.607 39.3023 152.605 37.7376 157.639C36.1729 162.666 38.2798 168.311 41.2856 172.615Z" fill="white"/>
<path d="M64.248 177.927C62.6627 181.633 59.2863 181.549 55.8344 181.007C53.0893 180.576 50.111 180.346 47.7914 178.671C47.7571 178.643 47.7159 178.706 47.7433 178.733C50.4747 181.167 54.2217 181.953 57.7765 182.029C60.3431 182.085 64.2411 181.229 64.4264 177.983C64.4264 177.892 64.2823 177.844 64.248 177.934V177.927Z" fill="#DFE6EE"/>
<path d="M44.7649 176.432C42.1434 171.927 41.2375 166.42 42.2806 161.296C42.7198 159.113 43.413 156.936 44.7786 155.184C47.4276 154.684 49.706 152.591 50.3236 149.935C54.1049 151.632 58.5794 151.59 62.4979 150.241C66.4096 148.892 69.7929 146.007 71.7625 142.329C73.3478 139.374 73.9723 135.557 72.2017 132.713C71.1654 131.045 69.4223 129.918 67.5626 129.334C65.7028 128.75 63.7263 128.681 61.7842 128.771C52.904 129.202 44.7992 133.687 38.6297 140.166C33.2014 142.774 30.4357 146.438 30.0995 151.486C29.7632 156.533 31.6161 161.511 34.2719 165.794C36.9072 170.049 40.764 173.484 44.7786 176.439L44.7649 176.432Z" fill="#313B59"/>
<path d="M41.9375 164.029C41.4297 163.445 40.5101 163.34 39.8238 163.681C39.1376 164.029 38.6846 164.752 38.5405 165.517C38.4033 166.281 38.5405 167.074 38.8219 167.804C39.8101 170.411 42.6169 172.184 45.362 171.927C44.71 169.118 43.8248 166.184 41.9375 164.022V164.029Z" fill="white"/>
<path d="M41.1072 160.35C41.5464 164.612 43.9552 168.624 47.4894 170.981C48.0659 170.154 47.5924 168.833 47.3453 167.887C46.0071 162.805 44.662 157.618 44.8885 152.362C44.9091 151.882 44.5179 151.361 44.0718 151.215C43.6258 151.068 43.1179 151.215 42.7405 151.507C42.363 151.799 42.0954 152.209 41.8689 152.626C40.6131 154.948 40.8327 157.715 41.1072 160.343V160.35Z" fill="#313B59"/>
<path d="M55.5667 170.855C57.5157 172.204 60.0961 172.573 62.3401 171.822C61.7225 172.955 60.9745 174.137 59.7804 174.61C58.7578 175.013 57.5226 174.784 56.7059 174.047C55.8893 173.31 55.3059 171.933 55.5736 170.855H55.5667Z" fill="#4C5980"/>
<path d="M60.2058 167.866C60.8443 167.63 61.4827 167.394 62.1143 167.15C61.977 167.415 61.8122 167.706 61.5994 167.915C61.3866 168.123 61.1052 168.269 60.81 168.283C60.5148 168.297 60.3431 168.13 60.199 167.866H60.2058Z" fill="#4C5980"/>
<path d="M53.3706 160.996C53.3843 160.83 53.4118 160.656 53.4941 160.51C53.5697 160.364 53.707 160.239 53.8717 160.204C54.0502 160.162 54.2424 160.239 54.3797 160.364C54.517 160.489 54.6063 160.656 54.6818 160.83C54.8603 161.24 54.9701 161.678 55.0044 162.123C55.0456 162.7 54.6269 163.395 54.0296 162.922C53.5147 162.519 53.3294 161.615 53.3774 160.996H53.3706Z" fill="#313B59"/>
<path d="M60.4392 159.238C60.4529 159.071 60.4804 158.897 60.5627 158.751C60.6383 158.605 60.7756 158.48 60.9403 158.445C61.1188 158.403 61.311 158.48 61.4483 158.605C61.5856 158.73 61.6749 158.897 61.7504 159.071C61.9289 159.481 62.0387 159.919 62.073 160.364C62.1142 160.941 61.6955 161.636 61.0982 161.164C60.5833 160.76 60.398 159.856 60.446 159.238H60.4392Z" fill="#313B59"/>
<path d="M58.6685 156.067C58.6685 155.942 58.6548 155.824 58.6548 155.699C59.5401 154.99 60.7479 154.698 61.8528 154.913C61.99 155.17 61.4341 155.177 61.194 155.212C60.3224 155.351 59.4165 155.581 58.6685 156.067Z" fill="#313B59"/>
<path d="M54.4344 156.428C54.3932 156.31 54.3521 156.199 54.3109 156.081C53.2266 155.762 51.9982 155.956 51.058 156.581C51.0237 156.865 51.5453 156.664 51.7786 156.608C52.6364 156.407 53.5629 156.268 54.4344 156.428Z" fill="#313B59"/>
<path d="M70.7331 134.256C69.8753 132.219 67.4116 131.142 65.3734 130.836C62.7313 130.439 60.0068 131.051 57.4676 131.767C52.5608 133.151 47.5168 135.473 43.7355 138.991C43.66 139.061 43.7561 139.2 43.8453 139.137C47.9423 136.461 52.0324 134.055 56.7402 132.643C59.1558 131.92 61.7499 131.274 64.2891 131.406C65.49 131.468 66.6979 131.74 67.7684 132.303C68.8253 132.852 69.5733 133.666 70.3419 134.555C70.5409 134.785 70.8223 134.493 70.7262 134.256H70.7331Z" fill="#4C5980"/>
<path d="M65.4488 135.397C64.5635 134.882 63.2665 134.82 62.2714 134.743C61.0842 134.653 59.8901 134.695 58.7166 134.854C56.4382 135.167 54.3039 135.953 52.3686 137.198C52.2245 137.295 52.3549 137.517 52.5059 137.434C54.4754 136.328 56.6921 135.591 58.9362 135.334C60.0067 135.209 61.091 135.188 62.1685 135.279C62.7175 135.32 63.2665 135.39 63.8086 135.494C64.3233 135.591 64.8312 135.772 65.3527 135.779C65.5517 135.779 65.6272 135.501 65.4557 135.397H65.4488Z" fill="#4C5980"/>
<path d="M82.1045 269.807C83.1064 270.092 84.1015 270.384 85.0966 270.697C106.364 277.392 130.328 279.117 152.508 279.854C193.842 281.223 214.876 272.664 218.383 270.933C180.885 268.674 119.643 268.298 82.1114 269.814L82.1045 269.807Z" fill="#313B59"/>
<path d="M123.918 223.335C117.186 238.102 110.337 252.953 103.605 267.721C101.066 267.749 98.4855 267.651 95.9464 267.721C94.3748 267.763 76.1202 267.784 74.0203 267.784C77.2388 268.507 80.43 269.306 83.573 270.245C102.761 270.426 122.038 270.711 141.185 270.843C153.867 270.933 166.831 270.989 179.513 271.024C186.519 256.193 193.965 240.883 200.972 226.053C200.416 225.08 199.833 223.968 199.277 222.994C174.256 223.05 148.94 223.279 123.918 223.328V223.335Z" fill="#BFCAD4"/>
<path d="M104.538 270.467C116.768 270.613 129.004 270.759 141.178 270.849C153.86 270.94 166.824 270.995 179.506 271.03C186.512 256.2 193.958 240.89 200.965 226.06C200.862 225.886 200.759 225.698 200.656 225.511C175.656 225.594 150.518 225.594 125.524 225.678C118.531 240.605 111.531 255.533 104.538 270.467Z" fill="#A1B0BA"/>
<path d="M153.606 245.312C154.821 244.22 156.516 243.699 158.122 243.907C159.282 244.06 160.448 244.638 161.011 245.673C161.491 246.556 161.471 247.641 161.231 248.621C160.894 250.026 160.119 251.34 158.959 252.188C157.806 253.029 156.255 253.356 154.903 252.904C151.328 251.708 150.992 247.648 153.606 245.305V245.312Z" fill="white"/>
<path d="M137.85 130.127C120.117 129.661 102.185 128.98 84.4859 130.218C84.4996 138.192 84.5202 147.537 84.5339 155.505C81.0545 158.321 77.7536 161.359 74.6929 164.634L90.374 158.244C106.096 157.611 121.002 158.175 136.669 158.028C136.971 149.192 137.87 138.971 137.843 130.127H137.85Z" fill="#D66EC0"/>
<path d="M131.296 138.47C131.412 138.31 131.337 138.15 131.344 137.99C131.351 137.824 131.344 137.657 131.351 137.49C131.358 137.156 131.378 136.822 131.385 136.489C131.385 136.301 131.399 136.113 131.392 135.926C131.392 135.912 131.323 135.912 131.241 135.905C131.213 135.905 131.179 135.905 131.131 135.905C126.169 135.891 121.208 135.884 116.246 135.884C111.312 135.884 106.371 135.884 101.436 135.884C98.6365 135.884 95.8434 135.884 93.0435 135.898C92.9474 135.898 92.8925 135.898 92.865 135.912C92.7964 135.912 92.7346 135.912 92.7346 135.926C92.7003 136.593 92.7346 137.253 92.7209 137.921C92.7209 138.011 92.7209 138.102 92.7209 138.192C92.7209 138.289 92.6866 138.387 92.7621 138.477C92.769 138.491 92.8856 138.491 92.9337 138.477C92.9474 138.477 92.9542 138.477 92.968 138.477C94.1964 138.491 95.4454 138.491 96.6807 138.498C97.9434 138.498 99.2061 138.505 100.469 138.505C102.946 138.505 105.424 138.512 107.901 138.519C112.876 138.519 117.859 138.519 122.834 138.519C125.648 138.519 128.009 138.505 130.829 138.498C131.069 138.498 131.255 138.498 131.282 138.456L131.296 138.47Z" fill="white"/>
<path d="M120.439 145.172C120.521 145.012 120.473 144.853 120.473 144.693C120.473 144.526 120.473 144.359 120.48 144.192C120.48 143.858 120.501 143.525 120.508 143.191C120.508 143.003 120.515 142.815 120.508 142.628C120.508 142.614 120.46 142.614 120.405 142.607C120.384 142.607 120.357 142.607 120.329 142.607C116.768 142.593 113.199 142.586 109.637 142.586C106.089 142.586 102.541 142.586 98.9933 142.586C96.9826 142.586 94.9718 142.586 92.9679 142.6C92.8993 142.6 92.8581 142.6 92.8376 142.614C92.7895 142.614 92.7415 142.614 92.7415 142.628C92.714 143.295 92.7415 143.956 92.7346 144.623C92.7346 144.713 92.7346 144.804 92.7346 144.894C92.7346 144.992 92.714 145.089 92.7621 145.186C92.7621 145.2 92.8513 145.2 92.8856 145.186C92.8925 145.186 92.8993 145.186 92.913 145.186C93.7983 145.2 94.6905 145.2 95.5826 145.207C96.4885 145.207 97.3943 145.214 98.3071 145.214C100.084 145.214 101.869 145.228 103.646 145.228C107.222 145.228 110.797 145.228 114.379 145.228C116.404 145.228 118.099 145.214 120.123 145.207C120.295 145.207 120.432 145.207 120.453 145.165L120.439 145.172Z" fill="white"/>
<path d="M125.751 151.875C125.847 151.716 125.785 151.556 125.792 151.396C125.792 151.229 125.792 151.062 125.799 150.895C125.806 150.561 125.819 150.228 125.833 149.894C125.833 149.706 125.847 149.519 125.84 149.331C125.84 149.317 125.778 149.317 125.716 149.31C125.689 149.31 125.662 149.31 125.62 149.31C121.372 149.296 117.124 149.289 112.876 149.289C108.649 149.289 104.422 149.289 100.194 149.289C97.7992 149.289 95.4042 149.289 93.0091 149.303C92.9267 149.303 92.8787 149.303 92.8581 149.317C92.7964 149.317 92.7483 149.317 92.7483 149.331C92.7209 149.998 92.7483 150.659 92.7346 151.326C92.7346 151.417 92.7346 151.507 92.7346 151.597C92.7346 151.695 92.7071 151.792 92.7689 151.882C92.7758 151.896 92.8718 151.896 92.913 151.882C92.9199 151.882 92.9336 151.882 92.9405 151.882C93.9905 151.896 95.061 151.896 96.1179 151.903C97.1953 151.903 98.2796 151.91 99.357 151.91C101.478 151.91 103.598 151.924 105.719 151.924C109.98 151.924 114.242 151.924 118.504 151.924C120.913 151.924 122.937 151.91 125.346 151.903C125.552 151.903 125.71 151.903 125.737 151.862L125.751 151.875Z" fill="white"/>
<path d="M146.723 98.5543C144.321 95.1684 141.926 91.7893 139.524 88.4034C139.359 88.167 139.188 87.9306 139.009 87.7011C139.14 71.1884 139.27 54.6757 139.407 38.1699C139.421 36.0563 139.016 32.9624 136.93 32.8928C113.034 32.0724 89.1181 31.8777 65.2155 32.3366C62.8136 32.3853 59.897 32.8372 58.545 34.8465C58.3872 53.5216 58.2362 72.2035 58.0784 90.8785C58.7852 92.9435 65.14 92.6723 68.9351 92.6515C88.8436 92.5611 108.745 92.4777 128.654 92.3873C129.422 92.7905 130.184 93.1243 130.616 93.3746C135.077 95.9471 139.62 98.3666 144.225 100.661C144.753 100.925 145.302 101.189 145.893 101.203C146.483 101.217 147.121 100.904 147.299 100.334C147.492 99.7154 147.1 99.0758 146.73 98.5474L146.723 98.5543Z" fill="#EB9921"/>
<path d="M126.478 65.2858C126.856 67.0865 127.233 68.8803 127.618 70.6811C127.782 71.4737 128.942 71.14 128.777 70.3474C128.42 68.6648 128.07 66.9822 127.714 65.3066C129.319 65.3275 130.925 65.3484 132.531 65.3692C133.307 65.3831 133.307 64.1247 132.531 64.1108C130.836 64.0899 129.141 64.0621 127.446 64.0412C127.247 63.1026 127.048 62.164 126.849 61.2184C126.725 60.6275 125.799 60.6066 125.689 61.2184C125.518 62.1501 125.353 63.0748 125.181 64.0065C124.474 63.9995 123.768 63.9856 123.068 63.9787C121.187 57.4709 119.3 50.9701 117.461 44.4485C117.282 43.8227 116.521 44.0174 116.452 44.5945C115.663 51.0188 114.881 57.4362 114.098 63.8605C114.071 63.8605 114.05 63.8605 114.023 63.8605C113.844 62.9844 113.666 62.1153 113.487 61.2393C113.378 60.7109 112.492 60.6622 112.417 61.2393C112.307 62.1153 112.156 62.9775 111.991 63.8327C110.921 63.8188 109.857 63.8049 108.786 63.7909C108.601 62.901 108.443 62.011 108.334 61.1002C108.258 60.4954 107.407 60.252 107.236 60.9473C107.002 61.8859 106.776 62.8245 106.542 63.7631C105.321 63.7492 104.092 63.7284 102.871 63.7145C102.487 62.2544 102.102 60.8013 101.718 59.3412C101.54 58.6737 100.709 58.8893 100.641 59.4942C100.476 60.8917 100.311 62.2822 100.146 63.6797C99.8925 63.6797 99.6386 63.6727 99.3847 63.6658C98.5063 63.6519 97.6347 63.6449 96.7563 63.631C96.1318 58.2427 95.5004 52.8543 94.8965 47.466C94.8348 46.9445 94.025 46.7012 93.9289 47.3269C93.0916 52.7361 92.2544 58.1453 91.4172 63.5546C91.0809 63.5546 90.7378 63.5476 90.4015 63.5406C89.9829 61.7955 89.5642 60.0573 89.1456 58.3122C89.0221 57.7977 88.3153 57.8255 88.178 58.3122C87.6908 60.0365 87.1966 61.7677 86.7094 63.492L84.9663 63.4711C84.3898 61.4896 83.8202 59.5081 83.2506 57.5265C83.1065 57.012 82.4408 57.0399 82.283 57.5265C81.6516 59.4594 81.1438 61.4201 80.7458 63.4085C80.6291 63.4085 80.5193 63.4085 80.4026 63.4016C79.7301 57.3527 78.8311 51.3386 77.7948 45.3454C77.7125 44.8726 76.937 44.8587 76.8615 45.3454C76.0105 51.3734 74.8988 57.3458 73.54 63.2625C72.3322 63.2486 71.1243 63.2417 69.9165 63.2486C69.8685 63.2417 69.8204 63.2486 69.7724 63.2486C68.5989 63.2556 67.4254 63.2834 66.2519 63.3251C65.6068 63.3529 65.6068 64.3333 66.2519 64.375C67.3293 64.4445 68.4067 64.4932 69.491 64.5349C70.0469 67.3021 70.6302 70.0623 71.2136 72.8225C71.3302 73.3718 72.0988 73.3301 72.243 72.8225C72.9773 70.111 73.6567 67.3855 74.288 64.6461C76.038 64.667 77.788 64.667 79.5379 64.6809C79.6752 66.0436 79.8124 67.3994 79.936 68.7621C79.9977 69.4505 80.8899 69.4505 80.9585 68.7621C81.0958 67.3925 81.2948 66.0367 81.5418 64.6948C81.9193 64.6948 82.3036 64.6948 82.681 64.7087C83.2163 64.7157 83.7516 64.7226 84.2869 64.7296C84.6506 65.995 85.0143 67.2604 85.378 68.5188C85.5222 69.0194 86.2084 69.0263 86.3525 68.5188C86.7025 67.2673 87.0594 66.0158 87.4094 64.7713C88.1643 64.7782 88.926 64.7921 89.6809 64.7991L90.6554 68.8317C90.7721 69.3045 91.5338 69.3531 91.6162 68.8317C91.8221 67.4967 92.0279 66.1688 92.2338 64.8339C93.4348 64.8478 94.6357 64.8686 95.8436 64.8825C96.5092 70.9592 97.1749 77.0359 97.8818 83.1056C97.971 83.8495 98.9112 83.8565 98.9935 83.1056C99.6798 77.0567 100.4 71.0079 101.114 64.959C101.437 64.959 101.752 64.966 102.075 64.9729C102.809 67.7749 103.55 70.5698 104.285 73.3718C104.429 73.9141 105.211 73.928 105.348 73.3718C106.035 70.5977 106.714 67.8166 107.4 65.0424C107.592 65.0424 107.785 65.0424 107.97 65.0494C108.485 67.1561 109.191 69.1932 110.118 71.1747C110.351 71.6684 110.976 71.4528 111.134 71.0357C111.868 69.1028 112.437 67.1283 112.87 65.1189C112.966 65.1189 113.069 65.1189 113.165 65.1189C113.336 65.9671 113.515 66.8154 113.686 67.6636C113.831 68.3589 114.702 68.1016 114.771 67.5106C114.867 66.725 114.956 65.9324 115.052 65.1467C117.454 65.1815 119.849 65.2093 122.251 65.2441C122.814 67.2604 123.376 69.2697 123.939 71.279C124.097 71.8352 124.969 71.9117 125.085 71.279C125.456 69.2836 125.813 67.2882 126.176 65.2927C126.279 65.2927 126.382 65.2927 126.485 65.2927M71.7626 70.4099C71.3371 68.4632 70.9047 66.5164 70.4655 64.5697C71.3783 64.5975 72.2979 64.6114 73.2106 64.6253C72.7508 66.5581 72.2704 68.491 71.7626 70.4099ZM74.5831 63.2625C75.6743 58.3678 76.6076 53.4244 77.3625 48.4602C78.2066 53.4036 78.8585 58.3748 79.387 63.3668C77.788 63.3321 76.1821 63.2903 74.5763 63.2625H74.5831ZM82.9624 63.4364C82.5644 63.4364 82.1663 63.4224 81.7683 63.4155C82.0428 62.0736 82.3653 60.7457 82.7428 59.4316C83.1271 60.7735 83.5183 62.1084 83.9026 63.4503C83.5869 63.4503 83.2781 63.4433 82.9624 63.4364ZM85.8447 66.5234C85.6731 65.9254 85.5016 65.3275 85.33 64.7365C85.6731 64.7365 86.0094 64.7435 86.3525 64.7504C86.1878 65.3414 86.0163 65.9324 85.8516 66.5234H85.8447ZM87.7525 63.4989C88.0407 62.4769 88.329 61.4548 88.6172 60.4328L89.3652 63.5198C88.8299 63.5128 88.2947 63.5059 87.7525 63.4989ZM91.0191 66.1201C90.9162 65.6821 90.8064 65.2441 90.7034 64.806C90.875 64.806 91.0466 64.806 91.2181 64.813C91.1495 65.251 91.0809 65.6821 91.0191 66.1201ZM92.4122 63.5615C93.0505 59.4385 93.6887 55.3086 94.3269 51.1857C94.7867 55.3225 95.2396 59.4664 95.6926 63.6102C94.6014 63.5963 93.5103 63.5824 92.4191 63.5685L92.4122 63.5615ZM98.4376 78.2526C97.9367 73.7959 97.422 69.3462 96.9004 64.8895C97.7308 64.9034 98.5543 64.9103 99.3847 64.9242C99.5906 64.9242 99.7964 64.9242 100.002 64.9312C99.4808 69.374 98.9661 73.8098 98.4376 78.2526ZM101.244 63.6797C101.292 63.2625 101.341 62.8384 101.395 62.4213C101.505 62.8454 101.615 63.2625 101.725 63.6867C101.567 63.6867 101.402 63.6867 101.244 63.6867V63.6797ZM104.779 70.9592C104.25 68.9638 103.729 66.9683 103.207 64.9729C104.216 64.9868 105.225 65.0007 106.24 65.0146C105.753 66.9962 105.266 68.9777 104.786 70.9592H104.779ZM110.53 69.367C109.939 67.9626 109.459 66.5234 109.082 65.0494L111.731 65.0842C111.401 66.5303 111.01 67.9556 110.53 69.367ZM115.189 63.8744C115.855 58.3192 116.514 52.7639 117.173 47.2018C118.765 52.7848 120.323 58.3748 121.887 63.9648C119.657 63.937 117.427 63.9022 115.189 63.8744ZM124.372 68.491C124.063 67.4064 123.747 66.3287 123.431 65.2441C123.939 65.2441 124.447 65.258 124.955 65.2649C124.763 66.3426 124.564 67.4133 124.372 68.491Z" fill="white"/>
<path d="M286.59 105.688C287.078 96.496 287.407 87.2906 287.585 78.0713C287.599 77.2857 287.613 76.4861 287.428 75.7491C287.242 75.0121 285.204 74.9982 284.655 74.9426C273.057 73.8024 263.374 73.9553 251.323 74.9496C251.049 74.9704 250.754 75.0399 250.555 75.3041C250.356 75.5683 250.294 76.0481 250.541 76.215C250.26 85.0449 250.383 93.8957 250.912 102.705C250.994 104.033 251.097 105.423 251.639 106.501C262.153 106.96 272.762 107.426 283.283 107.162C284.545 107.127 286.446 107.377 286.597 105.681L286.59 105.688Z" fill="#D66EC0"/>
<path d="M262.502 86.6158C261.789 86.1361 261.13 87.2972 261.837 87.7769C262.873 88.4861 263.58 89.6333 263.539 90.9335C263.491 92.2197 262.743 93.0471 261.905 93.9162C261.905 93.9162 261.919 93.9232 261.926 93.9301C261.473 94.4168 261.995 95.2442 262.66 94.9035C266.002 93.1862 265.234 88.4444 262.516 86.6228L262.502 86.6158Z" fill="#FFD075"/>
<path d="M270.154 90.322C269.941 86.6301 267.478 83.4388 264.136 82.0691C263.868 81.9578 263.532 82.1456 263.394 82.375C263.36 82.4376 263.333 82.4723 263.326 82.5419L263.305 82.7087C263.285 82.9173 263.443 83.1954 263.628 83.2788C266.496 84.5999 268.679 87.2836 268.795 90.5723C268.905 93.5133 267.389 95.9537 265.158 97.6015C265.014 97.4763 264.808 97.4485 264.65 97.6362C264.444 97.8656 264.252 98.109 264.06 98.3523C263.58 98.9433 264.163 99.6942 264.849 99.3883C268.205 97.8865 270.367 93.9999 270.147 90.3289L270.154 90.322Z" fill="#FFD075"/>
<path d="M269.008 78.3842C268.246 77.9809 267.567 79.149 268.329 79.5592C272.577 81.8188 275.418 86.505 275.027 91.4275C274.835 93.854 273.833 96.204 272.33 98.0882C271.657 98.9295 270.875 99.6943 270.01 100.334C269.091 101.008 267.986 101.37 267.094 102.051C266.709 102.343 266.764 103.143 267.368 103.087C269.708 102.886 272.055 100.647 273.448 98.8739C275.02 96.8715 276.063 94.4589 276.351 91.9142C276.976 86.3729 273.84 80.9219 269.015 78.3842H269.008Z" fill="#FFD075"/>
<path d="M297.269 261.61C297.447 243.31 296.898 225.567 297.735 207.281C297.804 205.793 297.859 204.243 297.248 202.887C296.637 201.531 294.839 200.662 293.371 200.69C264.973 201.253 235.093 201.066 208.157 201.309C206.524 201.323 205.014 202.366 204.342 203.874C203.676 205.383 203.669 207.101 203.669 208.755C203.71 225.574 203.758 242.393 203.8 259.218C203.8 260.664 203.779 262.222 204.568 263.425C206.325 266.122 264.87 265.024 292.623 264.62C295.066 264.586 295.834 263.619 297.262 261.617L297.269 261.61Z" fill="#FFBB39"/>
<path d="M248.798 223.572C245.106 215.541 236.013 211.286 227.544 212.712C219.275 214.102 212.343 221.194 210.909 229.53C210.024 234.689 210.847 240.154 213.524 244.673C216.029 248.914 220.222 252.245 225.225 252.474C225.499 252.488 229.754 252.53 231.641 252.286C236.129 251.702 240.192 250.041 243.692 247.114C246.856 244.465 249.285 240.752 250.225 236.685C251.248 232.277 250.678 227.653 248.805 223.572H248.798ZM242.47 242.421C239.739 245.362 236.095 247.253 232.183 247.962C230.035 248.351 227.709 248.337 225.554 248.052C224.442 247.906 223.365 247.607 222.267 247.406C220.332 246.46 218.664 244.791 217.504 242.942C215.548 239.827 214.677 236.135 214.862 232.457C215.205 225.491 220.036 219.372 226.501 217.384C232.787 215.451 240.322 217.864 244.008 223.648C247.761 229.537 247.226 237.296 242.477 242.407L242.47 242.421Z" fill="white"/>
<path d="M248.798 223.571C245.236 215.819 236.637 211.606 228.423 212.6C228.423 214.053 228.429 215.506 228.436 216.952C234.27 215.993 240.686 218.461 244.001 223.662C247.755 229.551 247.219 237.31 242.47 242.42C239.739 245.361 236.095 247.252 232.183 247.961C231.566 248.073 230.934 248.142 230.296 248.191C231.01 249.533 231.813 250.84 232.671 252.119C236.747 251.424 240.467 249.811 243.692 247.113C246.856 244.464 249.285 240.751 250.225 236.684C251.248 232.276 250.678 227.653 248.805 223.571H248.798Z" fill="#EB9921"/>
<path d="M289.946 221.521C290.036 221.215 289.981 220.902 289.987 220.603C289.987 220.283 289.987 219.964 289.994 219.644C290.001 219.004 290.015 218.371 290.022 217.732C290.022 217.37 290.029 217.016 290.029 216.654C290.029 216.633 289.974 216.619 289.919 216.619C289.898 216.619 289.871 216.612 289.836 216.612C286.076 216.585 282.308 216.578 278.547 216.571C274.8 216.557 271.053 216.571 267.313 216.571C265.193 216.571 263.065 216.571 260.945 216.598C260.876 216.598 260.828 216.612 260.808 216.626C260.753 216.626 260.705 216.64 260.705 216.661C260.677 217.933 260.705 219.213 260.691 220.485C260.691 220.659 260.691 220.833 260.691 221.006C260.691 221.187 260.663 221.375 260.725 221.563C260.725 221.584 260.814 221.584 260.856 221.577C260.862 221.577 260.869 221.577 260.883 221.577C261.816 221.604 262.763 221.604 263.704 221.611C264.664 221.618 265.618 221.625 266.579 221.632C268.459 221.639 270.34 221.653 272.213 221.653C275.988 221.66 279.769 221.653 283.543 221.639C285.678 221.625 287.469 221.604 289.61 221.597C289.788 221.597 289.933 221.597 289.953 221.521H289.946Z" fill="white"/>
<path d="M283.468 236.094C283.537 235.788 283.495 235.475 283.495 235.176C283.495 234.857 283.495 234.537 283.495 234.217C283.495 233.577 283.509 232.945 283.516 232.305C283.516 231.943 283.523 231.589 283.516 231.227C283.516 231.206 283.475 231.193 283.427 231.193C283.406 231.193 283.386 231.186 283.365 231.186C280.435 231.158 277.504 231.151 274.574 231.144C271.657 231.13 268.741 231.144 265.824 231.144C264.17 231.144 262.516 231.144 260.869 231.172C260.814 231.172 260.78 231.186 260.766 231.199C260.725 231.199 260.691 231.213 260.691 231.234C260.67 232.507 260.691 233.786 260.684 235.058C260.684 235.232 260.684 235.406 260.684 235.58C260.684 235.76 260.663 235.948 260.712 236.136C260.712 236.157 260.78 236.157 260.814 236.15C260.814 236.15 260.828 236.15 260.835 236.15C261.562 236.178 262.297 236.178 263.031 236.185C263.779 236.192 264.52 236.199 265.268 236.205C266.73 236.212 268.192 236.226 269.66 236.226C272.598 236.233 275.542 236.226 278.479 236.212C280.14 236.198 281.54 236.178 283.2 236.171C283.345 236.171 283.454 236.171 283.468 236.094Z" fill="white"/>
<path d="M289.946 250.666C290.036 250.361 289.981 250.048 289.987 249.749C289.987 249.429 289.987 249.109 289.994 248.789C290.001 248.15 290.015 247.517 290.022 246.877C290.022 246.516 290.029 246.161 290.029 245.8C290.029 245.779 289.974 245.765 289.919 245.765C289.898 245.765 289.871 245.758 289.836 245.758C286.076 245.73 282.308 245.723 278.547 245.716C274.8 245.702 271.053 245.716 267.313 245.716C265.193 245.716 263.065 245.716 260.945 245.744C260.876 245.744 260.828 245.758 260.808 245.772C260.753 245.772 260.705 245.786 260.705 245.807C260.677 247.079 260.705 248.358 260.691 249.631C260.691 249.804 260.691 249.978 260.691 250.152C260.691 250.333 260.663 250.52 260.725 250.708C260.725 250.729 260.814 250.729 260.856 250.722C260.862 250.722 260.869 250.722 260.883 250.722C261.816 250.75 262.763 250.75 263.704 250.757C264.664 250.764 265.618 250.771 266.579 250.778C268.459 250.785 270.34 250.799 272.213 250.799C275.988 250.806 279.769 250.799 283.543 250.785C285.678 250.771 287.469 250.75 289.61 250.743C289.788 250.743 289.933 250.743 289.953 250.666H289.946Z" fill="white"/>
<path d="M187.096 63.6452C187.24 56.3101 187.412 47.3272 187.563 39.9921C178.442 39.6444 169.219 39.8878 160.105 40.4231C160.05 48.0989 159.995 55.7817 159.934 63.4575C169.088 63.68 177.962 64.3405 187.096 63.6452Z" fill="white"/>
<path d="M182.216 47.675C181.901 46.5417 181.029 45.2068 179.938 44.7132C178.854 44.2265 177.687 43.9067 176.424 44.1431C174.592 44.4907 173.192 46.5626 173.089 46.7642C172.664 47.3761 172.444 48.1965 172.382 48.85C172.293 49.7678 172.485 50.6995 172.924 51.506C172.76 51.6311 172.595 51.7563 172.424 51.8745C171.95 52.1874 169.068 54.5513 168.635 54.8781C168.21 55.2048 166.638 56.5884 166.281 56.9639C165.904 57.3602 165.52 57.7495 165.149 58.1458C164.84 58.4726 164.387 58.8967 164.435 59.3904C164.449 59.5364 164.538 59.7171 164.703 59.745C165.177 59.8284 165.533 59.5503 165.89 59.2652C166.316 58.9315 167.983 57.6035 168.381 57.2489C168.793 56.8874 170.426 55.5664 170.831 55.2674C171.25 54.9545 172.952 53.6405 173.384 53.272C173.583 53.0982 173.803 52.9522 174.009 52.7922C174.379 53.0773 174.791 53.2928 175.237 53.4597C175.306 53.4875 176.644 53.8769 177.035 53.8769C177.385 53.8769 178.188 53.6405 178.531 53.557C178.936 53.4597 180.535 52.3612 181.029 51.8606C182.079 50.7968 182.635 49.1699 182.223 47.682L182.216 47.675ZM179.883 50.1085C179.67 50.4005 179.307 50.7134 178.998 50.9289C178.579 51.2209 178.106 51.3947 177.625 51.5616C176.713 51.8745 175.978 51.6937 175.23 51.2418C174.887 51.0332 174.551 50.762 174.276 50.4422C173.885 49.4967 173.995 48.3425 174.606 47.39C175.011 46.7573 175.635 46.2289 176.349 45.9925C177.07 45.7561 177.859 45.7978 178.518 46.0968C178.73 46.1941 179.979 47.3205 180.082 47.5638C180.446 48.4468 180.439 49.3645 179.883 50.1085Z" fill="#A1B0BA"/>
<path d="M187.096 31.9128C187.24 24.5777 187.412 15.5948 187.563 8.25963C178.442 7.912 169.219 8.15534 160.105 8.6907C160.05 16.3665 159.995 24.0493 159.934 31.7251C169.088 31.9476 177.962 32.6081 187.096 31.9128Z" fill="white"/>
<path d="M182.011 17.7151C182.011 17.7151 181.715 17.6943 181.585 17.6804L178.298 17.1937C177.694 17.0824 177.09 16.9642 176.493 16.8252C176.418 16.6166 176.342 16.408 176.26 16.1994C176.047 15.6502 175.82 15.1078 175.58 14.5725C175.107 13.5157 174.578 12.445 173.871 11.5272C173.871 11.5133 173.871 11.4994 173.871 11.4855C173.871 11.402 173.769 11.3603 173.714 11.416C173.7 11.4299 173.693 11.4438 173.686 11.4507C173.659 11.4716 173.631 11.4994 173.624 11.5341C173.35 11.8887 171.566 15.8935 171.154 16.7209C171.065 16.7209 170.975 16.7348 170.886 16.7417C170.598 16.7626 166.281 17.3466 165.231 17.6456C165.087 17.6873 165.142 17.875 165.279 17.875C166.027 18.6398 166.789 19.3977 167.551 20.1555C167.928 20.531 169.239 21.8242 169.239 21.8242C169.294 21.8798 169.356 21.9285 169.411 21.9841C169.39 22.137 169.376 22.297 169.363 22.443C169.342 22.6724 169.315 22.9018 169.287 23.1382C169.225 23.6875 169.143 24.2298 169.061 24.7721C168.896 25.7872 168.69 26.7884 168.443 27.7896C168.409 27.9148 168.58 27.9704 168.635 27.873C168.642 27.873 168.649 27.873 168.656 27.873C169.726 27.4072 173.611 25.238 173.775 25.1476C175.484 26.0375 177.186 26.9344 178.902 27.8105C178.922 27.8174 178.936 27.8105 178.957 27.8105L178.998 27.8313V27.8105C179.108 27.7966 179.176 27.6506 179.101 27.5602C178.977 26.559 178.819 25.5786 178.607 24.5914C178.497 24.0769 178.38 23.5693 178.257 23.0548C178.181 22.7489 178.126 22.3943 178.03 22.0745C178.71 21.4626 179.389 20.8508 180.041 20.2042C180.412 19.8287 180.782 19.4603 181.153 19.0848C181.331 18.904 181.516 18.7233 181.695 18.5425C181.88 18.3548 182.12 18.174 182.244 17.9446C182.326 17.7916 182.162 17.6317 182.011 17.7082V17.7151Z" fill="#A1B0BA"/>
<path d="M282.699 30.8563C282.534 30.1888 281.979 29.5283 281.292 29.5283C263.765 29.5283 246.924 30.0984 228.67 30.015C227.908 30.015 227.105 29.8481 226.494 30.3209C225.883 30.7868 225.698 31.4473 225.684 32.219C225.52 39.6932 225.479 47.1118 225.314 54.579C224.964 55.0518 225.17 55.7748 225.609 56.1572C226.048 56.5396 226.652 56.6717 227.229 56.7482C228.038 56.8595 228.848 56.8942 229.665 56.8734C227.194 59.5641 225.197 63.0196 223.708 66.2178C229.102 62.9222 234.434 59.5154 239.698 56.0112C253.108 55.1769 266.613 55.754 280.057 55.462C280.537 55.455 281.066 55.6149 281.409 55.2742C281.752 54.9336 281.862 54.6902 281.889 54.2105C282.226 46.9727 281.196 40.013 282.61 32.9073C282.747 32.226 282.878 31.5237 282.713 30.8493L282.699 30.8563Z" fill="#FFBB39"/>
<path d="M242.525 44.3166C243.321 42.634 242.615 40.3744 241.002 39.4705C239.389 38.5667 237.124 39.1507 236.136 40.7359C233.357 45.1996 240.281 49.0444 242.525 44.3166Z" fill="white"/>
<path d="M256.861 44.3166C257.657 42.634 256.95 40.3744 255.338 39.4705C253.725 38.5667 251.46 39.1507 250.472 40.7359C247.693 45.1996 254.617 49.0444 256.861 44.3166Z" fill="white"/>
<path d="M271.197 44.3166C271.994 42.634 271.287 40.3744 269.674 39.4705C268.061 38.5667 265.797 39.1507 264.808 40.7359C262.029 45.1996 268.953 49.0444 271.197 44.3166Z" fill="white"/>
<path d="M8.47538 168.116C9.12046 170.974 9.9577 173.783 10.9734 176.522C12.0096 176.209 13.0322 175.903 14.0684 175.584C13.7322 173.901 13.5812 172.121 13.2449 170.446C16.34 168.554 17.6644 163.875 16.086 160.58C14.5076 157.291 10.2871 155.595 6.91069 156.895C3.53428 158.195 1.48921 162.304 2.46371 165.822C3.69898 165.356 5.11268 164.974 6.34796 164.508C6.07345 163.277 6.23816 161.901 7.12344 161.011C8.00872 160.121 9.38124 159.759 10.5753 160.128C11.7694 160.496 12.7165 161.588 12.888 162.839C13.0528 164.042 12.5312 165.266 11.7008 166.142C10.8704 167.018 9.60085 167.706 8.47538 168.116Z" fill="#A1B0BA"/>
<path d="M11.9822 178.469C11.7558 178.802 11.6666 179.226 11.694 179.63C11.7558 180.54 12.4215 181.375 13.2862 181.625C14.1508 181.868 15.1597 181.493 15.64 180.728C16.1273 179.963 16.0381 178.865 15.4273 178.197C14.9949 177.725 14.3155 177.502 13.691 177.586C13.142 177.662 12.3048 177.996 11.9822 178.469Z" fill="#A1B0BA"/>
<path d="M76.6145 110.472C76.4704 112.252 76.2096 114.018 75.8253 115.756C75.1734 115.658 74.5283 115.561 73.8763 115.464C73.9381 114.421 73.8763 113.336 73.9312 112.293C71.9067 111.424 70.7058 108.72 71.3783 106.599C72.0509 104.478 74.4459 103.081 76.5939 103.568C78.7419 104.054 80.3272 106.349 80.039 108.56C79.2566 108.386 78.3713 108.282 77.589 108.108C77.6508 107.343 77.4312 106.523 76.8204 106.071C76.2096 105.612 75.3518 105.514 74.6655 105.841C73.9793 106.168 73.4989 106.912 73.5057 107.677C73.5057 108.414 73.9312 109.109 74.5008 109.561C75.0704 110.013 75.9008 110.319 76.6145 110.465V110.472Z" fill="#A1B0BA"/>
<path d="M75.386 117.021C75.5507 117.202 75.6399 117.445 75.6537 117.695C75.6948 118.252 75.3654 118.815 74.8645 119.037C74.3635 119.26 73.7253 119.121 73.3684 118.704C73.0115 118.286 72.9704 117.619 73.2792 117.16C73.4988 116.833 73.89 116.646 74.2743 116.639C74.6105 116.639 75.1458 116.764 75.3792 117.021H75.386Z" fill="#A1B0BA"/>
</g>
<defs>
<clipPath id="clip0_54_729">
<rect width="300" height="280" fill="white"/>
</clipPath>
</defs>
</svg>
