<svg width="25" height="25" viewBox="0 0 25 25" fill="none" xmlns="http://www.w3.org/2000/svg">
<mask id="mask0_341_169" style="mask-type:alpha" maskUnits="userSpaceOnUse" x="0" y="0" width="25" height="25">
<rect x="0.174805" y="0.325195" width="24" height="24" fill="#D9D9D9"/>
</mask>
<g mask="url(#mask0_341_169)">
<path d="M13.6748 22.3252C11.8748 22.3252 10.3415 21.6919 9.0748 20.4252C7.80814 19.1585 7.1748 17.6252 7.1748 15.8252V15.2502C5.74147 15.0169 4.5498 14.346 3.5998 13.2377C2.6498 12.1294 2.1748 10.8252 2.1748 9.3252V3.3252H5.1748V2.3252H7.1748V6.3252H5.1748V5.3252H4.1748V9.3252C4.1748 10.4252 4.56647 11.3669 5.3498 12.1502C6.13314 12.9335 7.0748 13.3252 8.1748 13.3252C9.2748 13.3252 10.2165 12.9335 10.9998 12.1502C11.7831 11.3669 12.1748 10.4252 12.1748 9.3252V5.3252H11.1748V6.3252H9.1748V2.3252H11.1748V3.3252H14.1748V9.3252C14.1748 10.8252 13.6998 12.1294 12.7498 13.2377C11.7998 14.346 10.6081 15.0169 9.1748 15.2502V15.8252C9.1748 17.0752 9.6123 18.1377 10.4873 19.0127C11.3623 19.8877 12.4248 20.3252 13.6748 20.3252C14.9248 20.3252 15.9873 19.8877 16.8623 19.0127C17.7373 18.1377 18.1748 17.0752 18.1748 15.8252V14.1502C17.5915 13.9502 17.1123 13.5919 16.7373 13.0752C16.3623 12.5585 16.1748 11.9752 16.1748 11.3252C16.1748 10.4919 16.4665 9.78353 17.0498 9.2002C17.6331 8.61686 18.3415 8.3252 19.1748 8.3252C20.0081 8.3252 20.7165 8.61686 21.2998 9.2002C21.8831 9.78353 22.1748 10.4919 22.1748 11.3252C22.1748 11.9752 21.9873 12.5585 21.6123 13.0752C21.2373 13.5919 20.7581 13.9502 20.1748 14.1502V15.8252C20.1748 17.6252 19.5415 19.1585 18.2748 20.4252C17.0081 21.6919 15.4748 22.3252 13.6748 22.3252ZM19.1748 12.3252C19.4581 12.3252 19.6956 12.2294 19.8873 12.0377C20.079 11.846 20.1748 11.6085 20.1748 11.3252C20.1748 11.0419 20.079 10.8044 19.8873 10.6127C19.6956 10.421 19.4581 10.3252 19.1748 10.3252C18.8915 10.3252 18.654 10.421 18.4623 10.6127C18.2706 10.8044 18.1748 11.0419 18.1748 11.3252C18.1748 11.6085 18.2706 11.846 18.4623 12.0377C18.654 12.2294 18.8915 12.3252 19.1748 12.3252Z" fill="#1F4298"/>
</g>
</svg>
