<svg width="400" height="272" viewBox="0 0 400 272" fill="none" xmlns="http://www.w3.org/2000/svg">
<g clip-path="url(#clip0_88_334)">
<path d="M189.173 35.3447H223.895C317.553 35.3447 393.586 110.366 393.586 202.778V271.662H19.4819V202.778C19.4819 110.366 95.5153 35.3447 189.173 35.3447Z" fill="#4E4ECE"/>
<path d="M65.8854 134.869C65.6822 134.55 65.4882 134.24 65.3127 133.93C65.5344 134.231 65.7191 134.541 65.8854 134.869Z" fill="#130F40"/>
<path d="M102.225 140.058L100.293 134.641L98.8331 138.125L97.0309 134.778L96.2546 131.313C96.0882 131.441 95.9311 131.577 95.7555 131.696C89.4433 136.228 77.9186 144.9 74.878 147.198C74.6931 147.326 74.4991 147.417 74.2865 147.472C71.0611 150.098 71.1442 146.761 71.1442 146.761C63.8431 150.107 66.2275 145.511 66.2275 145.511C63.0945 146.332 61.3848 144.599 61.3848 144.599C65.4605 144.052 67.8726 138.9 65.8856 134.897C65.8856 134.888 65.8763 134.888 65.8763 134.879C65.71 134.559 65.5344 134.249 65.3033 133.939C60.1648 125.13 66.7821 121.556 66.7821 121.556C66.588 120.753 66.6989 119.705 67.1795 118.574C67.4475 117.945 67.8079 117.297 68.2885 116.641C70.8115 113.212 76.4306 109.893 85.9406 110.768C91.0976 111.242 94.7112 112.911 97.0124 115.154C104.073 121.136 103.565 135.207 102.206 140.067L102.225 140.058Z" fill="#130F40"/>
<path d="M129.221 161.707H93.9443C99.055 174.792 94.1845 181.167 89.6005 186.31C86.6431 189.62 83.8151 192.41 83.8151 196.14C83.8151 197.699 83.7966 199.24 83.7781 200.727C83.7412 203.253 83.6672 205.624 83.584 207.684L51.5515 203.581C52.3186 202.541 53.1411 201.484 54.0838 200.362C63.4274 189.392 58.5846 182.945 58.9266 169.877C59.1946 159.591 64.2407 153.728 71.8838 151.685C73.954 151.129 76.209 150.864 78.6211 150.864H129.221V161.707Z" fill="white"/>
<path d="M28.613 256.999L24.4541 255.321L23.7979 263.902C20.3137 264.103 17.0605 262.461 17.0605 255.987V241.615L27.6703 244.588L28.6037 256.99L28.613 256.999Z" fill="#F8D4B5"/>
<path d="M31.7552 271.744H15.9237C13.8351 271.744 12.1438 270.075 12.1438 268.015V240.238L17.079 241.615V255.987C17.079 262.461 20.3321 264.103 23.8164 263.902L23.7055 265.452C30.5814 265.954 31.7644 271.744 31.7644 271.744H31.7552Z" fill="#171659"/>
<path d="M84.3788 159.49C78.9446 159.992 75.636 157.365 73.7414 154.885C73.4456 154.511 73.1869 154.128 72.9651 153.773C72.4568 152.961 72.0963 152.213 71.8745 151.684C71.8745 151.684 71.8745 151.684 71.8838 151.684C72.6878 151.465 73.2885 150.809 73.381 149.988L74.5454 139.301L84.3788 143.158L84.0461 150.854H87.5581C89.351 153.718 91.4767 158.824 84.3788 159.49Z" fill="#F8D4B5"/>
<path d="M84.3788 143.158L83.9167 150.189C75.7561 145.411 74.5454 139.292 74.5454 139.292L84.3788 143.149V143.158Z" fill="#ED7562"/>
<path d="M281.186 0H188.896C184.772 0 181.428 3.29882 181.428 7.36811V92.147C181.428 96.2163 184.772 99.5151 188.896 99.5151H281.186C285.31 99.5151 288.653 96.2163 288.653 92.147V7.36811C288.653 3.29882 285.31 0 281.186 0Z" fill="#CACAFF"/>
<path d="M288.653 7.36811V9.30133H181.428V7.36811C181.428 3.30106 184.774 0 188.896 0H281.186C285.308 0 288.653 3.30106 288.653 7.36811Z" fill="#6A6AE2"/>
<path d="M191.012 6.82109C192.227 6.82109 193.212 5.84941 193.212 4.65078C193.212 3.45215 192.227 2.48047 191.012 2.48047C189.797 2.48047 188.812 3.45215 188.812 4.65078C188.812 5.84941 189.797 6.82109 191.012 6.82109Z" fill="#54C3EA"/>
<path d="M200.975 4.65078C200.975 5.84536 199.995 6.82109 198.775 6.82109C197.555 6.82109 196.576 5.85448 196.576 4.65078C196.576 3.44708 197.555 2.48047 198.775 2.48047C199.995 2.48047 200.975 3.44708 200.975 4.65078Z" fill="#F4CC4D"/>
<path d="M206.548 6.82109C207.763 6.82109 208.747 5.84941 208.747 4.65078C208.747 3.45215 207.763 2.48047 206.548 2.48047C205.333 2.48047 204.348 3.45215 204.348 4.65078C204.348 5.84941 205.333 6.82109 206.548 6.82109Z" fill="#FF4A7E"/>
<path d="M196.585 15.666H190.171V21.9946H196.585V15.666Z" fill="white"/>
<path d="M196.585 25.2139H190.171V31.5424H196.585V25.2139Z" fill="#6A6AE2"/>
<path d="M204.283 69.9424H203.424C201.086 69.9424 199.191 71.8123 199.191 74.1189V83.019C199.191 85.3256 201.086 87.1954 203.424 87.1954H204.283C206.621 87.1954 208.516 85.3256 208.516 83.019V74.1189C208.516 71.8123 206.621 69.9424 204.283 69.9424Z" fill="#FF4A7E"/>
<path d="M225.078 51.5586H224.218C221.881 51.5586 219.986 53.4285 219.986 55.7351V83.0281C219.986 85.3347 221.881 87.2046 224.218 87.2046H225.078C227.416 87.2046 229.311 85.3347 229.311 83.0281V55.7351C229.311 53.4285 227.416 51.5586 225.078 51.5586Z" fill="#54C3EA"/>
<path d="M245.863 58.6621H245.003C242.666 58.6621 240.771 60.532 240.771 62.8386V83.0279C240.771 85.3345 242.666 87.2044 245.003 87.2044H245.863C248.201 87.2044 250.096 85.3345 250.096 83.0279V62.8386C250.096 60.532 248.201 58.6621 245.863 58.6621Z" fill="#FF4A7E"/>
<path d="M266.657 28.3779H265.798C263.46 28.3779 261.565 30.2478 261.565 32.5544V83.0278C261.565 85.3344 263.46 87.2043 265.798 87.2043H266.657C268.995 87.2043 270.89 85.3344 270.89 83.0278V32.5544C270.89 30.2478 268.995 28.3779 266.657 28.3779Z" fill="#54C3EA"/>
<path d="M279.153 136.967H112.41C108.285 136.967 104.942 140.266 104.942 144.335V209.216C104.942 213.286 108.285 216.584 112.41 216.584H279.153C283.277 216.584 286.62 213.286 286.62 209.216V144.335C286.62 140.266 283.277 136.967 279.153 136.967Z" fill="#CACAFF"/>
<path d="M286.62 144.335V146.268H104.942V144.335C104.942 140.268 108.288 136.967 112.41 136.967H279.153C283.274 136.967 286.62 140.268 286.62 144.335Z" fill="#6A6AE2"/>
<path d="M116.716 141.609C116.716 142.803 115.737 143.779 114.517 143.779C113.297 143.779 112.317 142.812 112.317 141.609C112.317 140.405 113.297 139.438 114.517 139.438C115.737 139.438 116.716 140.405 116.716 141.609Z" fill="#54C3EA"/>
<path d="M124.489 141.609C124.489 142.803 123.509 143.779 122.289 143.779C121.069 143.779 120.09 142.812 120.09 141.609C120.09 140.405 121.069 139.438 122.289 139.438C123.509 139.438 124.489 140.405 124.489 141.609Z" fill="#F4CC4D"/>
<path d="M132.252 141.609C132.252 142.803 131.272 143.779 130.052 143.779C128.832 143.779 127.853 142.812 127.853 141.609C127.853 140.405 128.832 139.438 130.052 139.438C131.272 139.438 132.252 140.405 132.252 141.609Z" fill="#FF4A7E"/>
<path d="M178.12 163.083V205.951H270.89" stroke="#130F40" stroke-width="0.75" stroke-linecap="round" stroke-linejoin="round"/>
<path d="M183.591 201.429C183.591 201.429 192.251 194.772 198.36 188.991C204.469 183.209 213.516 178.814 220.134 185.471C226.76 192.128 245.096 180.319 260.123 168.382" stroke="white" stroke-width="0.75" stroke-linecap="round" stroke-linejoin="round"/>
<path d="M184.997 201.429C184.997 202.195 184.368 202.815 183.591 202.815C182.815 202.815 182.186 202.195 182.186 201.429C182.186 200.663 182.815 200.043 183.591 200.043C184.368 200.043 184.997 200.663 184.997 201.429Z" fill="white"/>
<path d="M260.133 169.34C260.909 169.34 261.538 168.719 261.538 167.953C261.538 167.188 260.909 166.567 260.133 166.567C259.357 166.567 258.728 167.188 258.728 167.953C258.728 168.719 259.357 169.34 260.133 169.34Z" fill="white"/>
<path d="M122.289 163.083H144.128" stroke="#130F40" stroke-width="0.75" stroke-linecap="round" stroke-linejoin="round"/>
<path d="M122.289 169.339H166.031" stroke="#130F40" stroke-width="0.75" stroke-linecap="round" stroke-linejoin="round"/>
<path d="M122.289 175.594H166.031" stroke="#130F40" stroke-width="0.75" stroke-linecap="round" stroke-linejoin="round"/>
<path d="M122.289 181.85H166.031" stroke="#130F40" stroke-width="0.75" stroke-linecap="round" stroke-linejoin="round"/>
<path d="M122.289 187.185H144.128" stroke="#130F40" stroke-width="0.75" stroke-linecap="round" stroke-linejoin="round"/>
<path d="M122.289 193.44H166.031" stroke="#130F40" stroke-width="0.75" stroke-linecap="round" stroke-linejoin="round"/>
<path d="M122.289 199.695H166.031" stroke="#130F40" stroke-width="0.75" stroke-linecap="round" stroke-linejoin="round"/>
<path d="M122.289 205.951H166.031" stroke="#130F40" stroke-width="0.75" stroke-linecap="round" stroke-linejoin="round"/>
<path d="M69.5547 130.228C69.5547 133.62 69.9613 135.8 71.44 137.614C72.1794 138.526 73.1868 139.356 74.5546 140.195C75.525 141.627 76.671 142.922 77.9741 143.998C80.5896 146.186 83.7965 147.518 87.2437 147.481C87.5765 147.481 87.9184 147.454 88.2511 147.436C97.3082 146.651 98.2971 138.508 98.2971 130.493C98.2971 130.401 98.3156 130.319 98.3156 130.228C98.3156 123.252 93.214 117.452 86.4951 116.267C85.6634 116.121 84.8131 116.039 83.9351 116.039C75.9963 116.039 69.5547 122.395 69.5547 130.228Z" fill="#F8D4B5"/>
<path d="M77.2071 134.769C77.2071 134.769 74.7118 128.86 70.4143 130.683L77.2071 134.769Z" fill="#F8D4B5"/>
<path d="M92.7981 132.58C92.7981 133.328 93.0569 133.939 93.3713 133.939C93.6856 133.939 93.9444 133.337 93.9444 132.58C93.9444 131.824 93.6856 131.222 93.3713 131.222C93.0569 131.222 92.7981 131.833 92.7981 132.58Z" fill="#130F40"/>
<path d="M83.2329 132.58C83.2329 133.328 83.4918 133.939 83.8061 133.939C84.1204 133.939 84.3792 133.337 84.3792 132.58C84.3792 131.824 84.1204 131.222 83.8061 131.222C83.4918 131.222 83.2329 131.833 83.2329 132.58Z" fill="#130F40"/>
<path d="M90.0348 129.452L89.4895 133.474L92.8905 134.924C93.445 135.206 93.4728 135.963 92.9552 136.291L90.044 138.115" fill="#F8D4B5"/>
<path d="M90.0348 129.452L89.4895 133.474L92.8905 134.924C93.445 135.206 93.4728 135.963 92.9552 136.291L90.044 138.115" stroke="#ED7562" stroke-width="0.75" stroke-linecap="round" stroke-linejoin="round"/>
<path d="M69.3515 130.337C69.3515 133.729 69.9615 135.799 71.4402 137.614L76.6711 135.544C76.6711 135.544 78.0482 132.17 77.5584 126.79C77.5584 126.79 85.8484 123.671 86.4861 116.039C85.6543 115.893 84.804 115.811 83.9261 115.811C75.9872 115.811 69.3423 122.504 69.3423 130.337H69.3515Z" fill="#130F40"/>
<path d="M77.281 135.781C77.281 135.781 76.3568 128.605 71.3569 130.21C66.357 131.815 69.4623 143.341 75.4788 139.757C77.1054 138.818 77.281 135.781 77.281 135.781Z" fill="#F8D4B5"/>
<path d="M70.6453 135.033C70.6453 135.033 70.1462 132.781 72.1425 132.58C74.148 132.379 74.5546 136.693 74.5546 136.693" stroke="#ED7562" stroke-width="0.75" stroke-linecap="round" stroke-linejoin="round"/>
<path d="M73.2241 136.939C73.2241 136.939 72.1425 136.702 72.1148 135.453C72.087 134.204 72.8174 133.328 73.6217 133.501" stroke="#ED7562" stroke-width="0.75" stroke-linecap="round" stroke-linejoin="round"/>
<path d="M78.2883 125.878C90.1642 123.689 85.9406 115.947 85.9406 115.947C85.9406 115.947 89.2308 117.607 87.8352 121.09" stroke="#130F40" stroke-width="0.75" stroke-linecap="round" stroke-linejoin="round"/>
<path d="M82.5488 139.647C82.5488 139.647 84.046 141.189 87.1698 141.79L82.5488 139.647Z" fill="#F8D4B5"/>
<path d="M82.5488 139.647C82.5488 139.647 84.046 141.189 87.1698 141.79" stroke="#ED7562" stroke-width="0.75" stroke-linecap="round" stroke-linejoin="round"/>
<path d="M80.1738 127.911C80.1738 127.911 81.6063 126.771 83.8152 127.309" stroke="#130F40" stroke-width="0.75" stroke-linecap="round" stroke-linejoin="round"/>
<path d="M90.9775 125.878C90.9775 125.878 93.2233 124.291 95.1179 125.495" stroke="#130F40" stroke-width="0.75" stroke-linecap="round" stroke-linejoin="round"/>
<path d="M127.104 263.273C125.958 267.276 115.404 265.252 106.125 265.087L106.864 259.735L106.587 252.439H117.927L117.437 256.917C117.308 258.057 117.992 259.124 119.082 259.516C121.494 260.4 124.239 261.604 127.095 263.273H127.104Z" fill="#F8D4B5"/>
<path d="M137.705 271.744H104L105.099 265.051C114.369 265.215 125.949 267.276 127.095 263.264C128.888 264.303 130.746 265.553 132.576 267.012C134.553 268.58 136.263 270.203 137.696 271.735L137.705 271.744Z" fill="#171659"/>
<path d="M44.9156 229.013C44.9156 239.819 45.5071 247.516 45.5071 247.516L25.3875 242.737V261.002L46.1818 270.349C55.7287 274.644 66.5695 267.76 66.5695 257.41V232.187H104.646V254.346H126.041L121.956 225.147C121.217 219.867 116.744 215.873 111.347 215.672L89.1937 214.851C85.9406 214.733 83.4083 212.034 83.5284 208.833C83.5469 208.432 83.5654 208.021 83.5746 207.593L51.5421 203.489C44.7955 212.69 44.9156 219.302 44.9156 229.013Z" fill="#171659"/>
<path d="M91.4026 188.607L74.5546 167.232L65.6731 178.294L79.9796 197.389C82.4564 200.69 86.4397 202.532 90.5893 202.313L113.093 201.1L113.417 191.58L91.4119 188.607H91.4026Z" fill="white"/>
<path d="M141.568 188.024C141.503 185.361 128.833 188.024 128.833 188.024C136.226 184.859 140.551 187.467 140.551 184.786C140.551 182.662 131.476 184.203 127.677 184.941C126.624 185.151 125.663 185.653 124.905 186.41L118.916 192.328L113.417 191.58L113.094 201.1L118.916 200.79C124.701 200.79 127.696 198.593 130.247 196.833C132.797 195.073 137.825 195.328 137.317 193.878C136.808 192.437 129.674 193.878 129.674 193.878C133.49 191.434 140.939 193.194 140.551 190.933C140.172 188.671 129.729 191.051 129.729 191.051C136.919 187.978 141.642 190.677 141.568 188.024Z" fill="#F8D4B5"/>
<path d="M74.5547 167.232L89.6005 186.309" stroke="#130F40" stroke-width="0.75" stroke-linecap="round" stroke-linejoin="round"/>
<path d="M83.7688 200.727C82.2993 199.897 81.0054 198.766 79.9703 197.389L65.6638 178.294" stroke="#130F40" stroke-width="0.75" stroke-linecap="round" stroke-linejoin="round"/>
<path d="M120.08 54.8412L92.595 89.2287C82.3087 81.204 75.71 68.7931 75.71 54.8594C75.71 42.5853 80.83 31.4875 89.0738 23.5449L120.071 54.8412H120.08Z" fill="#54C3EA"/>
<path d="M120.08 54.8415L89.083 23.5453C91.5044 21.2017 94.203 19.1317 97.1235 17.3809C105.367 30.4574 119.637 54.1029 120.09 54.8324L120.08 54.8415Z" fill="#4E4ECE"/>
<path d="M164.469 54.8595C164.469 79.043 144.599 98.6487 120.09 98.6487C109.702 98.6487 100.155 95.1197 92.595 89.2288L120.08 54.8413V54.8595L120.09 11.0703C144.599 11.0703 164.469 30.6761 164.469 54.8595Z" fill="#CACAFF"/>
<path d="M120.09 11.0791V54.8683C120.09 54.8683 105.487 30.6848 97.1143 17.3985C103.815 13.3953 111.68 11.0882 120.09 11.0882V11.0791Z" fill="#4E4ECE"/>
<path d="M120.08 54.8415L89.083 23.5453C91.5044 21.2017 94.203 19.1317 97.1235 17.3809C105.367 30.4574 119.637 54.1029 120.09 54.8324L120.08 54.8415Z" fill="#FF4A7E"/>
<path d="M361.174 214.359C361.174 214.359 343.282 165.108 351.683 161.333C360.084 157.566 368.235 198.584 368.235 198.584C368.235 198.584 365.176 129.927 377.912 129.672C390.647 129.416 377.912 197.772 377.912 197.772C377.912 197.772 388.605 154.047 397.264 157.311C405.924 160.576 383.253 203.298 383.253 203.298C383.253 203.298 395.859 189.227 399.233 193.75C402.606 198.273 383.512 214.359 383.512 214.359H361.165H361.174Z" fill="#54C3EA"/>
<path d="M356.785 211.095H390.277V262.079C390.277 267.368 385.934 271.654 380.573 271.654H366.489C361.128 271.654 356.785 267.368 356.785 262.079V211.095Z" fill="#F4CC4D"/>
<path d="M253.312 109.801C253.312 109.801 248.83 104.895 245.003 104.238C241.177 103.573 239.005 104.175 236.575 103.126C234.144 102.077 232.111 105.679 240.392 107.713C240.392 107.713 226.584 107.02 226.399 108.98C226.224 110.932 237.055 110.777 237.055 110.777C237.055 110.777 226.205 111.151 226.316 113.321C226.427 115.491 237.998 113.439 237.998 113.439C237.998 113.439 228.553 115.181 228.368 116.868C228.183 118.555 238.34 116.193 238.34 116.193C238.34 116.193 233.368 118.519 233.645 119.823C233.922 121.127 247.499 118.865 252.212 116.513L253.303 109.801H253.312Z" fill="#F8D4B5"/>
<path d="M318.708 256.953L319.595 271.653H286.611C286.611 271.653 296.795 259.716 308.385 256.196L318.699 256.953H318.708Z" fill="#171659"/>
<path d="M332.016 256.953L331.129 271.653H364.113C364.113 271.653 353.929 259.716 342.339 256.196L332.025 256.953H332.016Z" fill="#171659"/>
<path d="M356.785 129.799C356.785 129.799 355.768 134.806 351.304 136.155L352.774 136.438C353.92 136.657 354.659 137.76 354.4 138.882C354.188 139.812 353.347 140.478 352.376 140.478H349.548C347.728 140.478 346.194 139.137 345.972 137.359L344.724 127.501L351.572 122.769L356.776 129.799H356.785Z" fill="#F8D4B5"/>
<path d="M306.481 140.478C302.784 172.64 301.897 258.212 301.897 258.212H321.767L326.092 162.591L330.676 258.212H347.617L345.195 140.478H306.481Z" fill="#6A6AE2"/>
<path d="M334.077 77.8568H322.525L322.284 74.7016L321.406 63.5127H331.443L332.007 66.5949L334.077 77.8568Z" fill="#F8D4B5"/>
<path d="M331.443 63.5127C329.687 66.3578 326.887 68.9293 321.97 70.6893L321.416 63.5127H331.452H331.443Z" fill="#ED7562"/>
<path d="M340.556 49.4696C340.556 53.1354 340.112 55.4972 338.514 57.4669C337.719 58.4609 336.619 59.3545 335.14 60.2573C334.096 61.8075 332.848 63.2118 331.443 64.3791C328.606 66.75 325.14 68.1908 321.407 68.1452C321.046 68.1452 320.677 68.1178 320.316 68.0905C310.51 67.2333 309.438 58.4244 309.438 49.7523C309.438 49.6611 309.42 49.5608 309.42 49.4696C309.42 41.9191 314.947 35.6453 322.22 34.3595C323.116 34.1954 324.041 34.1133 324.983 34.1133C333.578 34.1133 340.547 40.989 340.547 49.4696H340.556Z" fill="#F8D4B5"/>
<path d="M332.275 54.3941C332.275 54.3941 334.974 47.9926 339.622 49.9714L332.275 54.3941Z" fill="#F8D4B5"/>
<path d="M324.632 51.1293C324.632 51.9409 324.355 52.5974 324.013 52.5974C323.671 52.5974 323.394 51.9409 323.394 51.1293C323.394 50.3177 323.671 49.6611 324.013 49.6611C324.355 49.6611 324.632 50.3177 324.632 51.1293Z" fill="#130F40"/>
<path d="M312.405 52.142C312.405 52.9536 312.128 53.6101 311.786 53.6101C311.444 53.6101 311.167 52.9536 311.167 52.142C311.167 51.3304 311.444 50.6738 311.786 50.6738C312.128 50.6738 312.405 51.3304 312.405 52.142Z" fill="#130F40"/>
<path d="M326.794 58.6621C326.794 58.6621 326.609 59.4463 326.268 60.3673C325.426 62.5924 323.569 65.6107 320.769 60.2579L321.859 59.9661L326.794 58.6621Z" fill="#ED7562"/>
<path d="M326.795 58.6621C326.795 58.6621 326.61 59.4463 326.268 60.3673L323.523 61.2428C322.987 61.416 322.405 61.1425 322.155 60.6044L321.859 59.9752L326.795 58.6712V58.6621Z" fill="white"/>
<path d="M317.247 51.2394C317.414 53.8018 315.288 56.0178 312.506 56.191C309.724 56.3643 307.331 54.4311 307.174 51.8686C307.007 49.3062 309.133 47.0903 311.915 46.917C314.697 46.7438 317.09 48.677 317.247 51.2394Z" stroke="#130F40" stroke-width="0.75" stroke-linecap="round" stroke-linejoin="round"/>
<path d="M330.843 50.3908C331.009 52.9532 328.883 55.1691 326.102 55.3424C323.32 55.5156 320.926 53.5824 320.769 51.02C320.603 48.4576 322.728 46.2417 325.51 46.0684C328.292 45.8952 330.686 47.8284 330.843 50.3908Z" stroke="#130F40" stroke-width="0.75" stroke-linecap="round" stroke-linejoin="round"/>
<path d="M318.394 48.6309L318.985 52.9897L315.307 54.5582C314.715 54.8591 314.678 55.6889 315.242 56.0446L318.394 58.0143" fill="#F8D4B5"/>
<path d="M318.394 48.6309L318.985 52.9897L315.307 54.5582C314.715 54.8591 314.678 55.6889 315.242 56.0446L318.394 58.0143" stroke="#ED7562" stroke-width="0.75" stroke-linecap="round" stroke-linejoin="round"/>
<path d="M317.248 51.5578C317.248 51.5578 318.255 49.7262 320.76 51.0202" stroke="#130F40" stroke-width="0.75" stroke-linecap="round" stroke-linejoin="round"/>
<path d="M314.253 39.9951C314.253 39.9951 306.841 42.2201 306.204 44.8282C305.566 47.4362 312.479 44.8282 312.479 44.8282C312.479 44.8282 312.359 46.9346 314.263 46.9711C316.157 47.0076 319.05 45.1656 319.05 45.1656C319.05 45.1656 318.56 47.3906 320.566 47.2903C322.571 47.19 326.712 44.8738 326.712 41.9739L314.253 39.9951Z" fill="#4E4ECE"/>
<path d="M340.778 49.5883C340.778 53.2541 340.121 55.5065 338.523 57.467L332.857 55.2329C332.857 55.2329 331.36 51.5762 331.896 45.7583C331.896 45.7583 322.922 42.3843 322.229 34.1225C323.125 33.9584 324.05 33.8672 324.992 33.8672C333.587 33.8672 340.778 41.1076 340.778 49.5883Z" fill="#4E4ECE"/>
<path d="M316.166 33.5574C316.166 33.5574 324.512 24.8579 341.951 26.6179C344.105 26.8367 345.805 28.542 345.916 30.6667C346.147 34.8888 346.12 41.7006 343.754 44.2904L316.157 33.5574H316.166Z" fill="#171659"/>
<path d="M345.232 49.3702L343.541 51.3763C342.663 52.425 341.074 52.5618 340.011 51.6772C328.662 42.2847 317.257 40.999 312.248 40.9442C310.899 40.9169 309.891 39.7041 310.15 38.3909L311.019 34.0503C311.222 33.0746 312.082 32.3451 313.08 32.3177C314.595 32.2904 316.056 32.3451 317.47 32.418C331.166 33.3117 340.186 39.1752 344.632 42.9504C344.659 42.9778 344.678 42.9869 344.706 43.0051C346.61 44.6283 346.831 47.4552 345.232 49.3702Z" fill="#171659"/>
<path d="M332.201 55.4794C332.201 55.4794 333.199 47.71 338.615 49.4517C344.031 51.1935 340.667 63.6591 334.151 59.7926C332.386 58.7804 332.201 55.4885 332.201 55.4885V55.4794Z" fill="#F8D4B5"/>
<path d="M339.373 54.6767C339.373 54.6767 339.909 52.2419 337.756 52.0231C335.584 51.8042 335.149 56.4731 335.149 56.4731" stroke="#ED7562" stroke-width="0.75" stroke-linecap="round" stroke-linejoin="round"/>
<path d="M336.591 56.7373C336.591 56.7373 337.765 56.4729 337.793 55.1233C337.821 53.7736 337.035 52.8253 336.166 53.0168" stroke="#ED7562" stroke-width="0.75" stroke-linecap="round" stroke-linejoin="round"/>
<path d="M317.469 32.4268C331.166 33.3204 340.186 39.1839 344.631 42.9591" stroke="white" stroke-width="0.75" stroke-linecap="round" stroke-linejoin="round"/>
<path d="M381.156 116.248L360.592 134.678C358.938 136.164 356.304 135.708 355.251 133.757L349.678 123.407L366.812 108.689L349.853 98.7948L347.857 142.101H304.18L305.594 105.534L291.315 117.489C287.064 121.027 281.592 122.796 276.056 122.404L253.996 120.854C251.131 120.653 248.913 118.3 248.913 115.473V105.05H280.104L299.956 85.0252C301.943 83.0282 304.17 81.3047 306.592 79.9004C309.115 78.4322 311.841 77.3106 314.697 76.5537L318.181 75.6509L317.784 74.0825C317.46 72.8149 318.394 71.5748 319.715 71.5109L329.928 71.0276L334.854 70.7996C336.868 70.7085 338.56 72.2951 338.56 74.2831V75.7695C342.617 76.5719 346.702 77.8942 350.731 79.5447C363.762 84.9067 372.394 91.8279 380.694 98.5304C386.294 103.062 386.497 111.443 381.137 116.248H381.156Z" fill="#171659"/>
<path d="M305.603 105.534C305.603 98.7583 306.351 90.9707 306.351 90.9707" stroke="white" stroke-width="0.75" stroke-linecap="round" stroke-linejoin="round"/>
<path d="M303.939 251.883H319.595" stroke="#171659" stroke-width="0.75" stroke-linecap="round" stroke-linejoin="round"/>
<path d="M332.293 251.883H345.574" stroke="#171659" stroke-width="0.75" stroke-linecap="round" stroke-linejoin="round"/>
<path d="M314.835 251.883L317.47 168.226" stroke="#171659" stroke-width="0.75" stroke-linecap="round" stroke-linejoin="round"/>
<path d="M332.293 167.031L336.157 251.883" stroke="#171659" stroke-width="0.75" stroke-linecap="round" stroke-linejoin="round"/>
<path d="M240.401 107.713C240.401 107.713 240.641 111.698 243.7 113.522L240.401 107.713Z" fill="#F8D4B5"/>
<path d="M240.401 107.713C240.401 107.713 240.641 111.698 243.7 113.522" stroke="#ED7562" stroke-width="0.75" stroke-linecap="round" stroke-linejoin="round"/>
<path d="M12.7563 271.745L393.622 271.745" stroke="#171659" stroke-width="0.75" stroke-linecap="round" stroke-linejoin="round"/>
</g>
<defs>
<clipPath id="clip0_88_334">
<rect width="400" height="272" fill="white"/>
</clipPath>
</defs>
</svg>
