<svg width="100" height="100" viewBox="0 0 100 100" fill="none" xmlns="http://www.w3.org/2000/svg">
<mask id="mask0_12_264" style="mask-type:alpha" maskUnits="userSpaceOnUse" x="0" y="0" width="100" height="100">
<rect width="100" height="100" fill="#1F4298"/>
</mask>
<g mask="url(#mask0_12_264)">
<path d="M19.6875 83.3337C15.5208 83.3337 11.9618 81.8406 9.01042 78.8545C6.05903 75.8684 4.51389 72.2573 4.375 68.0212C4.375 67.3962 4.40972 66.7712 4.47917 66.1462C4.54861 65.5212 4.65278 64.8962 4.79167 64.2712L13.5417 29.2712C14.5139 25.5212 16.4931 22.483 19.4792 20.1566C22.4653 17.8302 25.8681 16.667 29.6875 16.667H70.3125C74.132 16.667 77.5347 17.8302 80.5208 20.1566C83.507 22.483 85.4861 25.5212 86.4583 29.2712L95.2083 64.2712C95.3472 64.8962 95.4688 65.5385 95.5729 66.1982C95.6771 66.858 95.7292 67.5003 95.7292 68.1253C95.7292 72.3614 94.2188 75.9552 91.1979 78.9066C88.1771 81.858 84.5486 83.3337 80.3125 83.3337C77.3958 83.3337 74.6875 82.5698 72.1875 81.042C69.6875 79.5142 67.8125 77.4309 66.5625 74.792L63.6458 68.7503C63.2986 68.0559 62.7778 67.535 62.0833 67.1878C61.3889 66.8406 60.6597 66.667 59.8958 66.667H40.1042C39.3403 66.667 38.6111 66.8406 37.9167 67.1878C37.2222 67.535 36.7014 68.0559 36.3542 68.7503L33.4375 74.792C32.1875 77.4309 30.3125 79.5142 27.8125 81.042C25.3125 82.5698 22.6042 83.3337 19.6875 83.3337ZM20 75.0003C21.3194 75.0003 22.5174 74.6531 23.5938 73.9587C24.6701 73.2642 25.4861 72.3267 26.0417 71.1462L28.9583 65.2087C30 63.0559 31.5278 61.3719 33.5417 60.1566C35.5556 58.9413 37.7431 58.3337 40.1042 58.3337H59.8958C62.2569 58.3337 64.4444 58.9587 66.4583 60.2087C68.4722 61.4587 70.0347 63.1253 71.1458 65.2087L74.0625 71.1462C74.6181 72.3267 75.434 73.2642 76.5104 73.9587C77.5868 74.6531 78.7847 75.0003 80.1042 75.0003C82.0486 75.0003 83.7153 74.358 85.1042 73.0732C86.4931 71.7885 87.2222 70.1739 87.2917 68.2295C87.2917 68.2989 87.2222 67.6392 87.0833 66.2503L78.3333 31.3545C77.8472 29.4795 76.875 27.9517 75.4167 26.7712C73.9583 25.5906 72.257 25.0003 70.3125 25.0003H29.6875C27.7431 25.0003 26.0243 25.5906 24.5313 26.7712C23.0382 27.9517 22.0833 29.4795 21.6667 31.3545L12.9167 66.2503C12.7778 66.667 12.7083 67.292 12.7083 68.1253C12.7083 70.0698 13.4201 71.7017 14.8438 73.0212C16.2674 74.3406 17.9861 75.0003 20 75.0003ZM56.25 45.8337C57.4306 45.8337 58.4201 45.4344 59.2188 44.6357C60.0174 43.8371 60.4167 42.8475 60.4167 41.667C60.4167 40.4864 60.0174 39.4969 59.2188 38.6982C58.4201 37.8996 57.4306 37.5003 56.25 37.5003C55.0694 37.5003 54.0799 37.8996 53.2813 38.6982C52.4826 39.4969 52.0833 40.4864 52.0833 41.667C52.0833 42.8475 52.4826 43.8371 53.2813 44.6357C54.0799 45.4344 55.0694 45.8337 56.25 45.8337ZM64.5833 37.5003C65.7639 37.5003 66.7535 37.101 67.5521 36.3024C68.3507 35.5038 68.75 34.5142 68.75 33.3337C68.75 32.1531 68.3507 31.1635 67.5521 30.3649C66.7535 29.5663 65.7639 29.167 64.5833 29.167C63.4028 29.167 62.4132 29.5663 61.6146 30.3649C60.816 31.1635 60.4167 32.1531 60.4167 33.3337C60.4167 34.5142 60.816 35.5038 61.6146 36.3024C62.4132 37.101 63.4028 37.5003 64.5833 37.5003ZM64.5833 54.167C65.7639 54.167 66.7535 53.7677 67.5521 52.9691C68.3507 52.1705 68.75 51.1809 68.75 50.0003C68.75 48.8198 68.3507 47.8302 67.5521 47.0316C66.7535 46.233 65.7639 45.8337 64.5833 45.8337C63.4028 45.8337 62.4132 46.233 61.6146 47.0316C60.816 47.8302 60.4167 48.8198 60.4167 50.0003C60.4167 51.1809 60.816 52.1705 61.6146 52.9691C62.4132 53.7677 63.4028 54.167 64.5833 54.167ZM72.9167 45.8337C74.0972 45.8337 75.0868 45.4344 75.8854 44.6357C76.684 43.8371 77.0833 42.8475 77.0833 41.667C77.0833 40.4864 76.684 39.4969 75.8854 38.6982C75.0868 37.8996 74.0972 37.5003 72.9167 37.5003C71.7361 37.5003 70.7465 37.8996 69.9479 38.6982C69.1493 39.4969 68.75 40.4864 68.75 41.667C68.75 42.8475 69.1493 43.8371 69.9479 44.6357C70.7465 45.4344 71.7361 45.8337 72.9167 45.8337ZM35.4167 52.0837C36.3194 52.0837 37.066 51.7885 37.6562 51.1982C38.2465 50.608 38.5417 49.8614 38.5417 48.9587V44.792H42.7083C43.6111 44.792 44.3576 44.4969 44.9479 43.9066C45.5382 43.3163 45.8333 42.5698 45.8333 41.667C45.8333 40.7642 45.5382 40.0177 44.9479 39.4274C44.3576 38.8371 43.6111 38.542 42.7083 38.542H38.5417V34.3753C38.5417 33.4725 38.2465 32.726 37.6562 32.1357C37.066 31.5455 36.3194 31.2503 35.4167 31.2503C34.5139 31.2503 33.7674 31.5455 33.1771 32.1357C32.5868 32.726 32.2917 33.4725 32.2917 34.3753V38.542H28.125C27.2222 38.542 26.4757 38.8371 25.8854 39.4274C25.2951 40.0177 25 40.7642 25 41.667C25 42.5698 25.2951 43.3163 25.8854 43.9066C26.4757 44.4969 27.2222 44.792 28.125 44.792H32.2917V48.9587C32.2917 49.8614 32.5868 50.608 33.1771 51.1982C33.7674 51.7885 34.5139 52.0837 35.4167 52.0837Z" fill="#1F4298"/>
</g>
</svg>
