<svg width="100" height="100" viewBox="0 0 100 100" fill="none" xmlns="http://www.w3.org/2000/svg">
<mask id="mask0_12_223" style="mask-type:alpha" maskUnits="userSpaceOnUse" x="0" y="0" width="100" height="100">
<rect width="100" height="100" fill="#1F4298"/>
</mask>
<g mask="url(#mask0_12_223)">
<path d="M20.8335 95.8337V91.667C20.8335 82.0142 22.8474 74.1844 26.8752 68.1774C30.9029 62.1705 36.4585 56.1114 43.5418 50.0003C36.4585 43.8892 30.9029 37.8302 26.8752 31.8232C22.8474 25.8163 20.8335 17.9864 20.8335 8.33366V4.16699H29.1668V8.33366C29.1668 9.09755 29.1842 9.80935 29.2189 10.4691C29.2536 11.1288 29.3057 11.8059 29.3752 12.5003H70.6252C70.6946 11.8059 70.7467 11.1288 70.7814 10.4691C70.8161 9.80935 70.8335 9.09755 70.8335 8.33366V4.16699H79.1668V8.33366C79.1668 17.9864 77.1529 25.8163 73.1252 31.8232C69.0974 37.8302 63.5418 43.8892 56.4585 50.0003C63.5418 56.1114 69.0974 62.1705 73.1252 68.1774C77.1529 74.1844 79.1668 82.0142 79.1668 91.667V95.8337H70.8335V91.667C70.8335 90.9031 70.8161 90.1913 70.7814 89.5316C70.7467 88.8719 70.6946 88.1948 70.6252 87.5003H29.3752C29.3057 88.1948 29.2536 88.8719 29.2189 89.5316C29.1842 90.1913 29.1668 90.9031 29.1668 91.667V95.8337H20.8335ZM35.2085 29.167H64.7918C65.6946 27.8475 66.4759 26.5281 67.1356 25.2087C67.7953 23.8892 68.4029 22.4309 68.9585 20.8337H31.0418C31.5974 22.3614 32.205 23.8024 32.8647 25.1566C33.5245 26.5107 34.3057 27.8475 35.2085 29.167ZM50.0002 44.5837C51.3891 43.4031 52.7432 42.2226 54.0627 41.042C55.3821 39.8614 56.6321 38.6809 57.8127 37.5003H42.1877C43.3682 38.6809 44.6182 39.8614 45.9377 41.042C47.2571 42.2226 48.6113 43.4031 50.0002 44.5837ZM42.1877 62.5003H57.8127C56.6321 61.3198 55.3821 60.1392 54.0627 58.9587C52.7432 57.7781 51.3891 56.5976 50.0002 55.417C48.6113 56.5976 47.2571 57.7781 45.9377 58.9587C44.6182 60.1392 43.3682 61.3198 42.1877 62.5003ZM31.0418 79.167H68.9585C68.4029 77.6392 67.7953 76.1982 67.1356 74.8441C66.4759 73.4899 65.6946 72.1531 64.7918 70.8337H35.2085C34.3057 72.1531 33.5245 73.4726 32.8647 74.792C32.205 76.1114 31.5974 77.5698 31.0418 79.167Z" fill="#1F4298"/>
</g>
</svg>
