<svg width="100" height="100" viewBox="0 0 100 100" fill="none" xmlns="http://www.w3.org/2000/svg">
<mask id="mask0_12_240" style="mask-type:alpha" maskUnits="userSpaceOnUse" x="0" y="0" width="100" height="100">
<rect width="100" height="100" fill="#D9D9D9"/>
</mask>
<g mask="url(#mask0_12_240)">
<path d="M27.0832 66.6665C30.3471 66.6665 33.5241 67.0311 36.6144 67.7603C39.7047 68.4894 42.7776 69.5832 45.8332 71.0415V29.9998C42.9859 28.3332 39.9651 27.0832 36.7707 26.2498C33.5762 25.4165 30.3471 24.9998 27.0832 24.9998C24.5832 24.9998 22.1005 25.2429 19.6353 25.729C17.17 26.2151 14.7915 26.9443 12.4998 27.9165V69.1665C14.9304 68.3332 17.3436 67.7082 19.7394 67.2915C22.1353 66.8748 24.5832 66.6665 27.0832 66.6665ZM54.1665 71.0415C57.2221 69.5832 60.295 68.4894 63.3853 67.7603C66.4755 67.0311 69.6526 66.6665 72.9165 66.6665C75.4165 66.6665 77.8644 66.8748 80.2603 67.2915C82.6561 67.7082 85.0693 68.3332 87.4998 69.1665V27.9165C85.2082 26.9443 82.8297 26.2151 80.3644 25.729C77.8991 25.2429 75.4165 24.9998 72.9165 24.9998C69.6526 24.9998 66.4234 25.4165 63.229 26.2498C60.0346 27.0832 57.0137 28.3332 54.1665 29.9998V71.0415ZM49.9998 83.3332C46.6665 80.6943 43.0554 78.6457 39.1665 77.1873C35.2776 75.729 31.2498 74.9998 27.0832 74.9998C24.1665 74.9998 21.3019 75.3818 18.4894 76.1457C15.6769 76.9096 12.9859 77.9859 10.4165 79.3748C8.95817 80.1387 7.55192 80.104 6.19775 79.2707C4.84359 78.4373 4.1665 77.2221 4.1665 75.6248V25.4165C4.1665 24.6526 4.35748 23.9234 4.73942 23.229C5.12137 22.5346 5.69428 22.0137 6.45817 21.6665C9.65261 19.9998 12.9859 18.7498 16.4582 17.9165C19.9304 17.0832 23.4721 16.6665 27.0832 16.6665C31.1109 16.6665 35.0519 17.1873 38.9061 18.229C42.7603 19.2707 46.4582 20.8332 49.9998 22.9165C53.5415 20.8332 57.2394 19.2707 61.0936 18.229C64.9478 17.1873 68.8887 16.6665 72.9165 16.6665C76.5276 16.6665 80.0693 17.0832 83.5415 17.9165C87.0137 18.7498 90.3471 19.9998 93.5415 21.6665C94.3054 22.0137 94.8783 22.5346 95.2603 23.229C95.6422 23.9234 95.8332 24.6526 95.8332 25.4165V75.6248C95.8332 77.2221 95.1561 78.4373 93.8019 79.2707C92.4478 80.104 91.0415 80.1387 89.5832 79.3748C87.0137 77.9859 84.3228 76.9096 81.5103 76.1457C78.6978 75.3818 75.8332 74.9998 72.9165 74.9998C68.7498 74.9998 64.7221 75.729 60.8332 77.1873C56.9443 78.6457 53.3332 80.6943 49.9998 83.3332Z" fill="#1F4298"/>
</g>
</svg>
