<svg width="100" height="100" viewBox="0 0 100 100" fill="none" xmlns="http://www.w3.org/2000/svg">
<mask id="mask0_12_252" style="mask-type:alpha" maskUnits="userSpaceOnUse" x="0" y="0" width="100" height="100">
<rect width="100" height="100" fill="#D9D9D9"/>
</mask>
<g mask="url(#mask0_12_252)">
<path d="M86.0417 39.0626L80.2083 33.2293L83.3333 30.0001L70 16.6668L66.7708 19.7918L60.8333 13.8543L63.9583 10.6251C65.5556 9.02791 67.5347 8.24666 69.8958 8.28138C72.257 8.3161 74.2361 9.13208 75.8333 10.7293L89.2708 24.1668C90.8681 25.764 91.6667 27.7258 91.6667 30.0522C91.6667 32.3786 90.8681 34.3404 89.2708 35.9376L86.0417 39.0626ZM36.0417 89.1668C34.4444 90.764 32.4826 91.5626 30.1563 91.5626C27.8299 91.5626 25.8681 90.764 24.2708 89.1668L10.8333 75.7293C9.23611 74.1321 8.4375 72.1703 8.4375 69.8439C8.4375 67.5175 9.23611 65.5557 10.8333 63.9585L13.9583 60.8335L19.8958 66.771L16.6667 69.896L30.1042 83.3335L33.2292 80.1043L39.1667 86.0418L36.0417 89.1668ZM77.3958 54.1668L83.3333 48.2293L51.7708 16.6668L45.8333 22.6043L77.3958 54.1668ZM48.2292 83.3335L54.1667 77.2918L22.7083 45.8335L16.6667 51.771L48.2292 83.3335ZM47.6042 58.9585L59.0625 47.6043L52.3958 40.9376L41.0417 52.396L47.6042 58.9585ZM54.1667 89.1668C52.5695 90.764 50.5903 91.5626 48.2292 91.5626C45.8681 91.5626 43.8889 90.764 42.2917 89.1668L10.8333 57.7085C9.23611 56.1112 8.4375 54.1321 8.4375 51.771C8.4375 49.4099 9.23611 47.4307 10.8333 45.8335L16.7708 39.896C18.3681 38.2987 20.3299 37.5001 22.6563 37.5001C24.9826 37.5001 26.9444 38.2987 28.5417 39.896L35.1042 46.4585L46.5625 35.0001L40 28.5418C38.4028 26.9446 37.6042 24.9654 37.6042 22.6043C37.6042 20.2432 38.4028 18.264 40 16.6668L45.9375 10.7293C47.5347 9.13208 49.4965 8.33346 51.8229 8.33346C54.1493 8.33346 56.1111 9.13208 57.7083 10.7293L89.2708 42.2918C90.8681 43.889 91.6667 45.8508 91.6667 48.1772C91.6667 50.5036 90.8681 52.4654 89.2708 54.0626L83.3333 60.0001C81.7361 61.5974 79.757 62.396 77.3958 62.396C75.0347 62.396 73.0556 61.5974 71.4583 60.0001L65 53.4376L53.5417 64.896L60.1042 71.4585C61.7014 73.0557 62.5 75.0175 62.5 77.3439C62.5 79.6703 61.7014 81.6321 60.1042 83.2293L54.1667 89.1668Z" fill="#1F4298"/>
</g>
</svg>
