<svg width="12" height="12" viewBox="0 0 12 12" fill="none" xmlns="http://www.w3.org/2000/svg">
<path d="M11.2908 6.88048L8.23747 7.54925C7.89388 7.62493 7.62529 7.89353 7.54961 8.23777L6.88085 11.2912C6.74996 11.8897 6.16099 12.1086 5.69467 11.9497C5.42405 11.8577 5.19497 11.6375 5.11932 11.2912L4.45056 8.23777C4.37488 7.89349 4.10629 7.6249 3.76201 7.54925L0.708638 6.88048C-0.236213 6.67391 -0.236213 5.32615 0.708638 5.11893L3.76201 4.45016C4.10629 4.37447 4.37488 4.10588 4.45056 3.76229L5.11932 0.708871C5.22567 0.222792 5.63265 -0.0130709 6.03213 0.000558395C6.40979 0.0128454 6.77998 0.249397 6.88085 0.708871L7.54961 3.76229C7.62529 4.10588 7.89388 4.37447 8.23747 4.45016L11.2908 5.11893C12.2364 5.32619 12.2364 6.67394 11.2908 6.88048Z" fill="#F9EF63"/>
<path d="M5.89983 11.9498C5.93184 11.9833 5.96595 11.9996 5.99936 11.9996C5.89573 11.9996 5.79279 11.9833 5.69464 11.9498C5.42401 11.8578 5.19497 11.6376 5.11929 11.2913L4.45053 8.23787C4.37488 7.89359 4.10629 7.62499 3.76202 7.54935L0.708638 6.88058C-0.236213 6.674 -0.236213 5.32625 0.708638 5.11902L3.76202 4.45025C4.10629 4.3746 4.37488 4.10598 4.45053 3.76242L5.11929 0.709001C5.22292 0.235863 5.6108 0 5.9994 0C5.87192 0 5.74578 0.235863 5.71171 0.709001L5.49288 3.76242C5.46834 4.10598 5.38041 4.3746 5.26725 4.45025L4.26846 5.11902C3.68926 5.59667 3.37052 6.27734 4.26846 6.88058L5.26718 7.54935C5.38034 7.62499 5.46831 7.89359 5.49281 8.23787L5.71164 11.2913C5.73621 11.6376 5.81121 11.8578 5.89983 11.9498Z" fill="#F1D333"/>
</svg>
