<svg width="435" height="403" viewBox="0 0 435 403" fill="none" xmlns="http://www.w3.org/2000/svg">
<g clip-path="url(#clip0_78_116)">
<g style="mix-blend-mode:multiply">
<path d="M141.197 115.449H417.404C424.37 115.449 430.017 121.099 430.017 128.067V341.573C430.017 348.542 424.37 354.191 417.404 354.191H141.197C134.232 354.191 128.585 348.542 128.585 341.573V128.067C128.585 121.099 134.232 115.449 141.197 115.449Z" fill="#F2F5F4"/>
</g>
<path d="M127.252 100.257H403.459C410.425 100.257 416.072 105.906 416.072 112.875V326.381C416.072 333.349 410.425 338.999 403.459 338.999H127.252C120.286 338.999 114.639 333.349 114.639 326.381V112.875C114.639 105.906 120.286 100.257 127.252 100.257Z" fill="white" stroke="#F2F5F4" stroke-miterlimit="10"/>
<g style="mix-blend-mode:multiply">
<path d="M403.459 105.589H127.252C120.289 105.589 114.639 111.241 114.639 118.207V128.003H416.072V118.207C416.072 111.241 410.422 105.589 403.459 105.589Z" fill="#F2F5F4"/>
</g>
<path d="M403.459 100.257H127.252C120.289 100.257 114.639 105.909 114.639 112.875V122.671H416.072V112.875C416.072 105.909 410.422 100.257 403.459 100.257Z" fill="white"/>
<path d="M400.575 115.285C398.468 115.285 396.76 113.576 396.76 111.469C396.76 109.361 398.468 107.652 400.575 107.652C402.682 107.652 404.39 109.361 404.39 111.469C404.39 113.576 402.682 115.285 400.575 115.285Z" fill="#D57548"/>
<path d="M381.583 111.469C381.583 113.578 383.289 115.285 385.397 115.285C387.506 115.285 389.212 113.578 389.212 111.469C389.212 109.36 387.506 107.652 385.397 107.652C383.289 107.652 381.583 109.36 381.583 111.469Z" fill="#FFB72F"/>
<path d="M366.396 111.469C366.396 113.578 368.103 115.285 370.211 115.285C372.319 115.285 374.026 113.578 374.026 111.469C374.026 109.36 372.319 107.652 370.211 107.652C368.103 107.652 366.396 109.36 366.396 111.469Z" fill="#AABC95"/>
<path d="M206.462 141.963H148.344" stroke="#F2F5F4" stroke-width="5" stroke-linecap="round" stroke-linejoin="round"/>
<path d="M206.462 153.239H148.344" stroke="#F2F5F4" stroke-width="5" stroke-linecap="round" stroke-linejoin="round"/>
<path d="M206.462 164.514H148.344" stroke="#F2F5F4" stroke-width="5" stroke-linecap="round" stroke-linejoin="round"/>
<path d="M206.462 175.799H148.344" stroke="#F2F5F4" stroke-width="5" stroke-linecap="round" stroke-linejoin="round"/>
<path d="M206.462 187.075H148.344" stroke="#F2F5F4" stroke-width="5" stroke-linecap="round" stroke-linejoin="round"/>
<path d="M393.547 209.626H148.344" stroke="#F2F5F4" stroke-width="5" stroke-linecap="round" stroke-linejoin="round"/>
<path d="M393.547 220.902H148.344" stroke="#F2F5F4" stroke-width="5" stroke-linecap="round" stroke-linejoin="round"/>
<path d="M393.547 232.186H148.344" stroke="#F2F5F4" stroke-width="5" stroke-linecap="round" stroke-linejoin="round"/>
<path d="M393.547 243.462H148.344" stroke="#F2F5F4" stroke-width="5" stroke-linecap="round" stroke-linejoin="round"/>
<path d="M393.547 254.738H148.344" stroke="#F2F5F4" stroke-width="5" stroke-linecap="round" stroke-linejoin="round"/>
<path d="M289.678 272.934H202.017" stroke="#F2F5F4" stroke-width="5" stroke-linecap="round" stroke-linejoin="round"/>
<path d="M289.678 284.209H202.017" stroke="#F2F5F4" stroke-width="5" stroke-linecap="round" stroke-linejoin="round"/>
<path d="M289.678 295.494H202.017" stroke="#F2F5F4" stroke-width="5" stroke-linecap="round" stroke-linejoin="round"/>
<path d="M289.678 306.77H228.393" stroke="#F2F5F4" stroke-width="5" stroke-linecap="round" stroke-linejoin="round"/>
<path d="M289.678 318.045H228.393" stroke="#F2F5F4" stroke-width="5" stroke-linecap="round" stroke-linejoin="round"/>
<path d="M216.346 173.086C212.479 156.446 222.827 139.82 239.461 135.951C256.094 132.082 272.713 142.435 276.581 159.074C280.449 175.714 270.1 192.34 253.467 196.209C236.833 200.078 220.214 189.725 216.346 173.086Z" stroke="#F2F5F4" stroke-width="5" stroke-linecap="round" stroke-linejoin="round"/>
<path d="M246.463 135.143V166.076L223.756 187.075" stroke="#F2F5F4" stroke-width="5" stroke-linecap="round" stroke-linejoin="round"/>
<path d="M333.628 303.57C329.761 286.93 340.109 270.304 356.743 266.435C373.376 262.566 389.996 272.919 393.863 289.558C397.731 306.198 387.382 322.824 370.749 326.693C354.115 330.562 337.496 320.209 333.628 303.57Z" stroke="#F2F5F4" stroke-width="5" stroke-linecap="round" stroke-linejoin="round"/>
<path d="M363.74 265.62V296.553L341.033 317.552" stroke="#F2F5F4" stroke-width="5" stroke-linecap="round" stroke-linejoin="round"/>
<path d="M137.392 269.656H193.128V319.141H137.392V269.656Z" stroke="#F2F5F4" stroke-width="5" stroke-linecap="round" stroke-linejoin="round"/>
<path d="M394.643 141.333L343.844 190.818H394.643V141.333Z" stroke="#F2F5F4" stroke-width="5" stroke-linecap="round" stroke-linejoin="round"/>
<g style="mix-blend-mode:multiply">
<path d="M139.874 94.4412H20.7538C13.7878 94.4412 8.14087 100.09 8.14087 107.059V177.68C8.14087 184.648 13.7878 190.297 20.7538 190.297H139.874C146.84 190.297 152.487 184.648 152.487 177.68V107.059C152.487 100.09 146.84 94.4412 139.874 94.4412Z" fill="#F2F5F4"/>
</g>
<path d="M151.09 84.7178H31.9704C25.0044 84.7178 19.3574 90.3669 19.3574 97.3355V167.956C19.3574 174.925 25.0044 180.574 31.9704 180.574H151.09C158.056 180.574 163.703 174.925 163.703 167.956V97.3355C163.703 90.3669 158.056 84.7178 151.09 84.7178Z" fill="white" stroke="#F1F1F3" stroke-miterlimit="10"/>
<g style="mix-blend-mode:multiply">
<path d="M31.9704 90.0405H151.09C158.054 90.0405 163.703 95.692 163.703 102.658V112.455H19.3574V102.658C19.3574 95.692 25.0068 90.0405 31.9704 90.0405Z" fill="#F2F5F4"/>
</g>
<path d="M31.9704 84.7178H151.09C158.054 84.7178 163.703 90.3693 163.703 97.3355V107.132H19.3574V97.3355C19.3574 90.3693 25.0068 84.7178 31.9704 84.7178Z" fill="white" stroke="#F1F1F3" stroke-miterlimit="10"/>
<path d="M82.2212 95.9204H101.579" stroke="#E3E9E7" stroke-width="5" stroke-linecap="round" stroke-linejoin="round"/>
<path d="M110.678 95.9204H150.013" stroke="#E3E9E7" stroke-width="5" stroke-linecap="round" stroke-linejoin="round"/>
<path d="M38.6694 95.9204C38.6694 98.0294 36.9627 99.7367 34.8545 99.7367C32.7462 99.7367 31.0396 98.0294 31.0396 95.9204C31.0396 93.8113 32.7462 92.104 34.8545 92.104C36.9627 92.104 38.6694 93.8113 38.6694 95.9204Z" fill="#D57548"/>
<path d="M53.8468 95.9204C53.8468 98.0294 52.1402 99.7367 50.0319 99.7367C47.9237 99.7367 46.217 98.0294 46.217 95.9204C46.217 93.8113 47.9237 92.104 50.0319 92.104C52.1402 92.104 53.8468 93.8113 53.8468 95.9204Z" fill="#FFB72F"/>
<path d="M69.0334 95.9204C69.0334 98.0294 67.3267 99.7367 65.2185 99.7367C63.1102 99.7367 61.4036 98.0294 61.4036 95.9204C61.4036 93.8113 63.1102 92.104 65.2185 92.104C67.3267 92.104 69.0334 93.8113 69.0334 95.9204Z" fill="#AABC95"/>
<path d="M153.757 126.296H31.3401" stroke="#E3E9E7" stroke-width="5" stroke-linecap="round" stroke-linejoin="round"/>
<path d="M153.757 146.033H31.3401" stroke="#E3E9E7" stroke-width="5" stroke-linecap="round" stroke-linejoin="round"/>
<path d="M87.1255 156.061H31.3402" stroke="#E3E9E7" stroke-width="5" stroke-linecap="round" stroke-linejoin="round"/>
<path d="M103.422 168.596H31.34" stroke="#E3E9E7" stroke-width="5" stroke-linecap="round" stroke-linejoin="round"/>
<path d="M153.757 136.631H31.3401" stroke="#E3E9E7" stroke-width="5" stroke-linecap="round" stroke-linejoin="round"/>
<path d="M243.607 309.089H347.211C370.238 306.751 365.72 281.379 339.782 269.318C339.162 269.017 338.514 268.725 337.866 268.451L253.564 265.2C252.113 266.004 250.579 266.908 249.046 267.921C248.964 267.976 248.891 268.031 248.8 268.076C233.056 278.457 215.442 298.717 243.607 309.079V309.089Z" fill="#C43F00"/>
<path d="M353.271 338.998H232.928C240.677 298.333 255.882 276.686 255.882 276.686L329.378 272.303C346.819 289.504 351.866 319.999 353.271 338.998Z" fill="black"/>
<path d="M197.508 249.36C200.812 275.654 249.411 278.202 241.115 241.261L197.508 249.36Z" fill="#B22900"/>
<path d="M201.351 238.322L231.788 266.433C241.727 256.153 278.571 201.938 285.47 176.584C288.427 165.729 282.559 154.398 271.963 150.618C267.564 149.048 262.937 149.002 258.711 150.235C254.102 151.577 249.968 154.426 247.084 158.552L201.342 238.312L201.351 238.322Z" fill="#B22900"/>
<path d="M168.838 169.32L176.301 174.622C177.888 175.749 178.26 177.949 177.134 179.536L172.669 185.826C171.542 187.413 169.343 187.786 167.757 186.659L160.293 181.357C158.707 180.23 158.334 178.03 159.461 176.443L163.926 170.153C165.052 168.566 167.251 168.193 168.838 169.32Z" fill="#450000"/>
<path d="M144.191 175.16C157.515 183.569 169.216 231.72 196.796 252.272C198.348 253.422 199.972 254.335 201.624 255.048C215.88 261.019 232.91 250.501 232.91 233.848L212.476 215.177L166.45 173.124L144.182 175.169L144.191 175.16Z" fill="#EFBFA9"/>
<path d="M201.634 255.039C215.889 261.01 232.919 250.492 232.919 233.839L212.485 215.168C225.755 240.084 218.545 258.499 201.652 255.029C201.652 255.029 201.646 255.033 201.634 255.039Z" fill="#ECB298"/>
<path d="M166.46 173.115L171.525 185.541C149.448 196.46 133.686 186.198 123.93 184.737L136.844 158.562L166.46 173.124V173.115Z" fill="#EFBFA9"/>
<path d="M128.885 170.339C129.369 170.65 129.816 171.051 130.172 171.553C130.264 171.69 130.355 171.818 130.428 171.964C131.277 173.416 131.249 175.178 130.455 176.575C130.154 177.114 129.743 177.597 129.232 177.99L126.029 180.473L121.493 183.97C120.845 184.472 120.106 184.765 119.357 184.865C118.299 185.02 117.231 184.792 116.318 184.217C115.834 183.906 115.396 183.495 115.04 182.993C113.745 181.167 114.009 178.702 115.57 177.168C115.652 177.077 115.752 176.995 115.844 176.922L123.391 170.677C123.464 170.613 123.537 170.558 123.619 170.503C125.207 169.335 127.297 169.335 128.867 170.339H128.885Z" fill="#EFBFA9"/>
<path d="M98.6128 158.616C98.2386 156.37 99.8723 154.289 102.145 154.124L121.712 152.7L140.924 158.242L137.675 174.758L116.51 162.286L102.309 161.839C100.465 161.784 98.9231 160.433 98.6219 158.616H98.6128Z" fill="#EFBFA9"/>
<path d="M140.924 158.251L136.99 157.11L122.105 159.73L119.586 164.103L138.596 174.804L140.924 158.251Z" fill="#E89076"/>
<path d="M118.864 190.991C119.814 192.297 121.42 193.046 123.136 192.826L132.846 191.521C135.338 191.183 137.136 188.91 136.88 186.399C136.807 185.678 136.552 185.02 136.196 184.436C136.132 184.317 136.068 184.226 135.995 184.135C135.94 184.062 135.876 183.97 135.803 183.897C134.781 182.646 133.138 181.971 131.432 182.272L121.785 183.888C120.416 184.135 119.266 184.975 118.627 186.116C118.536 186.28 118.454 186.454 118.372 186.627C118.08 187.257 117.952 187.988 118.025 188.727C118.107 189.585 118.408 190.343 118.864 190.973V190.991Z" fill="#EFBFA9"/>
<path d="M118.627 186.125C119.303 186.664 120.142 187.011 121.082 187.084L130.839 187.832C133.275 188.024 136.223 186.454 136.196 183.158C135.174 181.916 133.138 181.98 131.441 182.281L121.794 183.897C120.425 184.144 119.275 184.984 118.636 186.125H118.627Z" fill="#E89076"/>
<path d="M121.84 181.478C122.506 182.555 123.62 183.359 124.979 183.578L131.66 184.5C134.152 184.902 136.506 183.231 136.972 180.766C137.163 179.67 136.99 178.62 136.497 177.716C136.461 177.625 136.406 177.525 136.351 177.451C135.63 176.274 134.425 175.434 132.947 175.251L126.221 174.63C125.071 174.493 123.948 174.804 123.072 175.434C122.15 176.073 121.493 177.05 121.256 178.228C121.019 179.396 121.256 180.537 121.84 181.496V181.478Z" fill="#E89076"/>
<path d="M134.608 178.529C134.663 178.611 134.727 178.693 134.781 178.784C134.854 178.894 134.9 179.004 134.964 179.095C135.393 179.898 135.584 180.811 135.484 181.779C135.219 184.281 133.002 186.125 130.483 185.924L120.726 185.194C120.252 185.148 119.805 185.048 119.376 184.874C118.591 184.555 117.906 184.016 117.423 183.35C116.765 182.446 116.437 181.323 116.583 180.136C116.674 179.46 116.893 178.858 117.222 178.31C117.486 177.899 117.806 177.525 118.189 177.214C119.011 176.52 120.106 176.119 121.256 176.164L130.455 176.575L131.049 176.602C132.527 176.675 133.787 177.415 134.608 178.529Z" fill="#EFBFA9"/>
<path d="M130.373 176.52L130.966 176.548C132.445 176.621 133.704 177.36 134.526 178.474C134.58 178.556 134.644 178.638 134.699 178.73C134.772 178.839 134.818 178.949 134.882 179.04C133.905 180.83 131.806 181.816 129.725 181.323L125.956 180.419L117.797 178.465C117.568 178.41 117.34 178.346 117.14 178.246C116.492 177.99 115.953 177.598 115.497 177.114C115.579 177.022 115.679 176.94 115.771 176.867L123.318 170.622C123.391 170.558 123.473 170.504 123.546 170.449L130.337 171.9C131.185 173.352 131.158 175.114 130.364 176.511L130.373 176.52Z" fill="#E89076"/>
<path d="M129.424 163.51C130.108 163.948 130.683 164.551 131.076 165.318C132.235 167.573 131.377 170.33 129.178 171.553L126.412 173.087L120.599 176.274C119.732 176.758 118.764 176.922 117.852 176.794C117.194 176.73 116.565 176.493 115.999 176.137C115.314 175.699 114.748 175.087 114.374 174.311C113.334 172.202 114.091 169.645 116.108 168.44L118.837 166.824L121.73 165.099L124.532 163.437C126.111 162.487 127.991 162.588 129.433 163.501L129.424 163.51Z" fill="#EFBFA9"/>
<path d="M121.393 173.927C121.885 175.096 122.862 176.064 124.167 176.484L130.629 178.41C133.029 179.186 135.612 177.899 136.442 175.534C136.798 174.475 136.789 173.416 136.442 172.448C136.424 172.357 136.378 172.247 136.342 172.165C135.803 170.887 134.745 169.873 133.321 169.472L126.768 167.828C125.655 167.518 124.496 167.655 123.528 168.139C122.524 168.623 121.712 169.499 121.301 170.613C120.891 171.736 120.945 172.896 121.383 173.927H121.393Z" fill="#E89076"/>
<path d="M116.665 175.032C117.249 176.164 118.299 177.05 119.631 177.36L129.169 179.579C131.624 180.163 134.097 178.684 134.745 176.255C135.019 175.178 134.918 174.119 134.508 173.179C134.48 173.087 134.425 172.987 134.389 172.905C133.759 171.672 132.618 170.75 131.167 170.449L121.557 168.513C120.416 168.294 119.275 168.513 118.354 169.079C117.386 169.645 116.656 170.576 116.327 171.727C115.999 172.877 116.154 174.037 116.665 175.032Z" fill="#EFBFA9"/>
<path d="M160.966 175.461L139.281 162.944L124.295 165.929L129.57 173.434L135.749 174.046C135.749 174.046 145.012 192.315 160.956 175.47L160.966 175.461Z" fill="#E89076"/>
<path d="M124.304 165.929L120.581 173.973C119.768 175.717 120.517 177.798 122.251 178.629C123.793 179.369 125.646 178.903 126.641 177.515L129.579 173.434L124.304 165.929Z" fill="#E89076"/>
<path d="M166.46 173.115L140.914 158.251L123.218 161.711L129.415 170.586L136.707 171.334C136.707 171.334 147.568 192.936 166.46 173.115Z" fill="#EFBFA9"/>
<path d="M121.721 165.108L127.498 170.768L126.403 173.087L124.961 176.127C124.888 176.292 124.797 176.456 124.715 176.593C123.747 178.127 121.885 178.866 120.106 178.364C119.157 178.109 118.381 177.543 117.842 176.794C117.13 175.826 116.848 174.566 117.167 173.325L118.828 166.824L121.721 165.098V165.108Z" fill="#E89076"/>
<path d="M123.218 161.711L118.792 171.188C117.833 173.252 118.7 175.699 120.745 176.694C122.561 177.579 124.751 177.031 125.938 175.388L129.424 170.577L123.227 161.702L123.218 161.711Z" fill="#EFBFA9"/>
<path d="M166.934 172.567L154.266 191.539L158.355 197.912L173.797 178.054L166.934 172.567Z" fill="#450000"/>
<path d="M241.115 298.781L320.726 298.917L349.648 298.972C349.648 298.972 344.382 286.19 339.783 269.318C335.922 255.139 332.545 238.084 333.157 223.275C333.513 214.428 334.672 205.134 334.663 195.602C334.653 189.549 339.71 147.697 334.663 143.844C323.026 134.969 289.568 133.554 291.576 135.453L265.365 150.363C263.895 155.393 249.703 175.078 247.422 186.481C247.23 187.339 247.075 188.234 246.929 189.11C246.472 192.096 246.18 195.145 246.208 198.259C246.199 199.126 246.217 200.039 246.336 200.961C246.39 202.276 246.536 203.646 246.755 204.979C248.033 212.867 251.702 220.7 259.377 227.575L259.259 228.105L259.241 228.224L254.148 248.027L249.037 267.939L248.9 268.469L241.115 298.799V298.781Z" fill="#C43F00"/>
<path d="M248.799 268.085L248.909 268.451L317.842 289.121L320.726 298.918L322.716 305.656L328.036 309.079H347.202C370.229 306.742 365.711 281.37 339.773 269.309C335.913 255.13 332.536 238.075 333.147 223.266C333.503 214.419 334.662 205.125 334.653 195.593L308.396 168.422L309.053 232.506L263.822 240.266L254.148 247.99L249.037 267.903C248.955 267.958 248.882 268.012 248.79 268.058L248.799 268.085Z" fill="#B22900"/>
<mask id="mask0_78_116" style="mask-type:luminance" maskUnits="userSpaceOnUse" x="246" y="134" width="89" height="156">
<path d="M247.796 289.121L332.335 287.606C332.335 287.606 331.815 255.696 333.166 223.275C333.741 208.813 336.488 193.137 332.709 177.223C322.716 135.38 289.577 133.545 291.594 135.444L265.373 150.363C263.913 155.384 249.721 175.069 247.431 186.481C247.248 187.33 247.084 188.225 246.947 189.102C246.491 192.087 246.199 195.137 246.226 198.25C246.226 199.117 246.244 200.039 246.354 200.952C246.408 202.276 246.554 203.646 246.764 204.97C248.051 212.858 251.711 220.691 259.396 227.566L259.268 228.096L259.25 228.215L247.796 289.121Z" fill="white"/>
</mask>
<g mask="url(#mask0_78_116)">
<path d="M290.417 206.02L305.348 229.347L320.27 206.02L305.348 182.701L290.417 206.02Z" stroke="#EAA105" stroke-miterlimit="10"/>
<path d="M260.728 206.02L275.65 229.347L290.581 206.02L275.65 182.701L260.728 206.02Z" stroke="#EAA105" stroke-miterlimit="10"/>
<path d="M231.03 206.02L245.961 229.347L260.883 206.02L245.961 182.701L231.03 206.02Z" stroke="#EAA105" stroke-miterlimit="10"/>
</g>
<path d="M245.569 87.895C235.932 87.895 228.119 80.0794 228.119 70.4383C228.119 60.7973 235.932 52.9817 245.569 52.9817C255.206 52.9817 263.019 60.7973 263.019 70.4383C263.019 80.0794 255.206 87.895 245.569 87.895Z" fill="#450000"/>
<path d="M263.339 68.1467C253.701 68.1467 245.889 60.3311 245.889 50.69C245.889 41.049 253.701 33.2334 263.339 33.2334C272.976 33.2334 280.789 41.049 280.789 50.69C280.789 60.3311 272.976 68.1467 263.339 68.1467Z" fill="#450000"/>
<path d="M286.155 74.5012C276.518 74.5012 268.705 66.6856 268.705 57.0445C268.705 47.4035 276.518 39.5879 286.155 39.5879C295.792 39.5879 303.605 47.4035 303.605 57.0445C303.605 66.6856 295.792 74.5012 286.155 74.5012Z" fill="#450000"/>
<path d="M308.049 67.6993C315.095 85.7585 312.603 97.2532 301.223 104.758L290.444 92.9895L296.897 64.6772L308.058 67.7084L308.049 67.6993Z" fill="#450000"/>
<path d="M301.944 92.9895L297.846 136.96L265.109 159.1L264.644 104.886L301.944 92.9895Z" fill="#EFBFA9"/>
<path d="M307.292 105.279L299.534 118.837L294.679 108.501L307.292 105.279Z" fill="#450000"/>
<path d="M264.954 140.575C264.954 140.575 285.151 136.932 285.735 114.135L264.652 121.001L264.963 140.575H264.954Z" fill="#E89076"/>
<path d="M251.456 60.9795C241.69 72.9581 240.412 88.7348 240.412 88.7348L250.999 90.4056L259.049 65.0332L251.465 60.9795H251.456Z" fill="#450000"/>
<path d="M298.631 75.0032L295.482 87.4749L294.04 93.1629L290.18 108.428C288.099 116.673 281.893 123.237 273.788 125.794L261.194 129.765C250.269 133.207 239.044 125.629 238.031 114.217C237.282 105.845 237.291 96.0754 240.476 85.6945C244.182 73.6429 253.847 64.2207 265.346 60.4591L265.392 60.4408L267.409 59.8382L267.628 59.7835C268.632 59.5187 269.672 59.3087 270.713 59.1352C273.177 58.697 275.714 58.5144 278.288 58.5874L286.438 58.8248C294.743 59.0622 300.685 66.9323 298.649 74.9941L298.631 75.0032Z" fill="#EFBFA9"/>
<path d="M241.27 104.859C235.408 104.859 230.656 99.5895 230.656 93.0899C230.656 86.5903 235.408 81.3213 241.27 81.3213C247.132 81.3213 251.884 86.5903 251.884 93.0899C251.884 99.5895 247.132 104.859 241.27 104.859Z" stroke="white" stroke-miterlimit="10"/>
<path d="M245.259 95.5641C244.967 98.5496 245.843 101.079 247.203 101.216C248.562 101.343 249.904 99.0335 250.187 96.0389C250.479 93.0534 249.603 90.5243 248.243 90.3874C246.883 90.2596 245.542 92.5695 245.259 95.5641Z" fill="black"/>
<path d="M253.892 91.1178C251.155 97.7005 246.646 99.0518 243.506 99.0974C241.489 99.1248 239.838 100.686 239.673 102.695C239.463 105.342 240.823 107.871 243.16 109.14L251.419 113.632C256.055 115.185 261.011 112.409 262.116 107.643L265.857 91.5104L253.892 91.1086V91.1178Z" fill="#EFBFA9"/>
<path d="M248.371 112.582L248.873 111.66L243.415 108.693C241.261 107.524 240.002 105.196 240.203 102.749C240.339 101.006 241.772 99.6635 243.515 99.6361C246.92 99.5904 251.565 98.1022 254.385 91.3277L253.409 90.926C250.817 97.171 246.591 98.5405 243.497 98.577C241.206 98.6135 239.336 100.366 239.153 102.658C238.925 105.516 240.403 108.246 242.913 109.615L248.371 112.582Z" fill="#E89076"/>
<path d="M263.393 98.2668C263.101 101.252 263.978 103.781 265.337 103.918C266.697 104.046 268.039 101.736 268.322 98.7415C268.614 95.756 267.738 93.227 266.378 93.09C265.018 92.9622 263.676 95.2721 263.393 98.2668Z" fill="black"/>
<path d="M271.078 86.3976C277.868 89.2279 279.739 85.7402 274.865 82.7912C269.627 79.614 262.627 82.8734 271.078 86.3976Z" fill="#450000"/>
<path d="M251.511 83.2112C256.813 82.353 255.335 79.0114 250.908 78.9657C246.144 78.911 244.921 84.2886 251.511 83.2112Z" fill="#450000"/>
<path d="M251.401 114.792L263.63 113.852C263.63 113.852 262.252 120.918 258.711 121.676C254.851 122.507 251.41 114.792 251.41 114.792H251.401Z" fill="white"/>
<path d="M268.121 110.273C262.259 110.273 257.506 105.004 257.506 98.504C257.506 92.0043 262.259 86.7354 268.121 86.7354C273.983 86.7354 278.735 92.0043 278.735 98.504C278.735 105.004 273.983 110.273 268.121 110.273Z" stroke="white" stroke-miterlimit="10"/>
<path d="M278.726 96.3037L290.6 92.9438" stroke="white" stroke-miterlimit="10"/>
<path d="M280.998 58.7062C274.582 73.8621 286.657 94.5964 311.983 93.09C322.643 71.5431 322.187 52.2787 280.998 58.7062Z" fill="#450000"/>
<path d="M289.705 94.7698C315.131 59.82 328.338 115.166 290.964 112.263L289.705 94.7698Z" fill="#EFBFA9"/>
<path d="M289.97 72.3921L289.495 101.745L291.96 103.389L301.214 75.1676L289.97 72.3921Z" fill="#450000"/>
<path d="M288.573 61.8744C268.248 69.8358 249.721 63.253 249.721 63.253C249.721 63.253 256.475 46.9924 288.573 61.8744Z" fill="#450000"/>
<path d="M314.265 65.2067C314.265 54.8715 325.673 59.8291 317.842 66.5215C331.578 64.6681 321.183 81.7047 314.858 75.7519" fill="#450000"/>
<path d="M263.849 159.675C259.441 135.691 281.993 130.614 299.032 123.612L308.405 135.672L263.849 159.675Z" fill="white"/>
<path d="M344.09 228.397C326.092 224.919 309.528 229.958 318.389 247.753L345.778 249.369L344.09 228.406V228.397Z" fill="#C43F00"/>
<path d="M348.106 279.909C396.705 292.481 388.847 240.339 359.916 232.524L348.106 279.909Z" fill="#C43F00"/>
<path d="M345.925 266.743L374.856 271.007C380.031 229.995 367.874 185.258 340.659 149.176C334.307 140.749 322.533 138.64 313.644 144.328C305.987 149.24 302.555 158.671 305.266 167.354L345.916 266.743H345.925Z" fill="#C43F00"/>
<path d="M202.172 207.571L204.426 204.714V204.732C204.7 204.422 205.056 204.193 205.521 204.129L248.9 198.396C250.168 198.231 251.428 198.734 252.24 199.72L298.84 256.801C299.653 257.805 299.142 259.311 297.882 259.604L268.002 266.57C266.779 266.853 265.492 266.497 264.588 265.62L205.01 207.562H202.172V207.571Z" fill="#E5EBEA"/>
<path d="M296.632 259.594L250.032 202.513C249.219 201.518 247.96 201.025 246.691 201.19L203.313 206.923C201.871 207.115 201.277 208.886 202.327 209.9L262.38 268.414C263.283 269.291 264.57 269.647 265.793 269.364L295.674 262.397C296.933 262.105 297.444 260.599 296.632 259.594Z" fill="white"/>
<path d="M238.669 231.684C241.188 235.874 246.162 239.207 249.785 239.125C253.408 239.043 254.312 235.591 251.793 231.401C249.274 227.21 244.3 223.878 240.677 223.96C237.054 224.042 236.15 227.493 238.669 231.684Z" fill="#E5EBEA"/>
<path d="M245.149 207.27C245.733 208.247 246.901 209.023 247.741 209.005C248.589 208.987 248.799 208.183 248.206 207.197C247.622 206.22 246.454 205.444 245.614 205.462C244.765 205.481 244.555 206.284 245.149 207.27Z" fill="#E5EBEA"/>
<path d="M263.995 261.767L224.531 234.825L275.22 238.641L279.519 255.623L263.995 261.767Z" fill="#EFBFA9"/>
<path d="M271.223 240.403L278.36 239.399C280.468 239.097 281.728 236.897 280.916 234.925L280.66 234.313C279.118 230.588 274.71 229 271.141 230.88C268.75 232.14 267.326 234.697 267.509 237.39C267.636 239.28 269.343 240.659 271.214 240.394L271.223 240.403Z" fill="#EFBFA9"/>
<path d="M255.553 240.093L224.531 234.834L224.166 233.921C222.715 230.324 219.767 227.557 216.099 226.352C215.514 226.151 215.131 225.594 215.149 225.001C215.149 224.909 215.168 224.818 215.186 224.718C215.743 222.243 217.951 220.582 220.379 220.637C220.78 220.646 221.191 220.719 221.611 220.819L223.455 221.458L223.637 221.522C226.813 222.627 229.232 225.211 230.126 228.443L254.75 239.727L255.553 240.093Z" fill="#EFBFA9"/>
<path d="M244.035 241.389L229.889 236.505C227.89 230.451 224.495 228.123 220.826 226.918C220.242 226.717 219.859 226.16 219.877 225.567C219.877 225.476 219.895 225.384 219.914 225.284C220.333 223.385 221.739 221.97 223.446 221.449L223.628 221.513C226.804 222.618 229.223 225.202 230.117 228.434L232.791 234.998L244.026 241.38L244.035 241.389Z" fill="#E89076"/>
<path d="M232.8 235.007L232.435 234.094C230.993 230.506 228.036 227.74 224.367 226.525C223.692 226.297 223.29 225.594 223.445 224.9C224.093 222.015 227.005 220.235 229.87 220.993L231.897 221.696C235.063 222.8 237.5 225.393 238.395 228.625L263.821 240.266L232.791 234.998L232.8 235.007Z" fill="#EFBFA9"/>
<path d="M336.214 241.389L273.688 247.725L263.986 261.767C263.986 261.767 306.735 283.223 346.801 280.557C364.132 279.407 370.201 256.974 355.799 247.269L353.536 245.744C348.443 242.311 342.31 240.777 336.205 241.389H336.214Z" fill="#EFBFA9"/>
<path d="M350.834 314.274L279.109 324.217L275.184 298.982L345.359 298.972L350.834 314.274Z" fill="white"/>
<path d="M269.626 298.981L265.081 324.217L239.089 314.274L244.565 298.981H269.626Z" fill="white"/>
<path d="M212.777 365.604V403H22.725C18.0979 403 14.1552 399.85 12.6767 395.44C12.266 394.235 12.047 392.93 12.047 391.569V377.034C12.047 375.592 12.3025 374.222 12.7497 372.953C14.283 368.662 18.1709 365.613 22.725 365.613H212.777V365.604Z" fill="#B22900"/>
<path d="M120.224 372.953V395.45H12.6857C12.275 394.244 12.0559 392.939 12.0559 391.578V377.043C12.0559 375.601 12.3115 374.231 12.7587 372.962H120.224V372.953Z" fill="#C43F00"/>
<path d="M86.547 392.492C81.9652 392.492 78.2509 388.776 78.2509 384.192C78.2509 379.609 81.9652 375.893 86.547 375.893C91.1287 375.893 94.843 379.609 94.843 384.192C94.843 388.776 91.1287 392.492 86.547 392.492Z" fill="#FFB72F"/>
<path d="M209.683 365.604H123.847C115.268 365.604 108.305 372.57 108.305 381.152V387.452C108.305 396.034 115.268 403 123.847 403H209.683V365.604Z" fill="#C43F00"/>
<path d="M214.876 365.604H198.494V371.209H214.876C216.318 371.209 217.495 369.959 217.495 368.406C217.495 366.863 216.327 365.604 214.876 365.604Z" fill="#C43F00"/>
<path d="M215.168 397.394H198.494V403H215.168C216.455 403 217.495 401.959 217.495 400.672V399.732C217.495 398.444 216.455 397.403 215.168 397.403V397.394Z" fill="#C43F00"/>
<path d="M212.777 371.209H125.91C119.905 371.209 115.031 376.085 115.031 382.092V386.502C115.031 392.51 119.905 397.385 125.91 397.385H212.777V371.2V371.209Z" fill="#E9EEEC"/>
<path d="M212.777 374.651H128.128C123.273 374.651 119.33 378.596 119.33 383.453V391.487C119.33 394.747 121.977 397.394 125.235 397.394H212.777V374.651Z" fill="white"/>
<mask id="mask1_78_116" style="mask-type:luminance" maskUnits="userSpaceOnUse" x="119" y="374" width="94" height="24">
<path d="M212.777 374.651H125.034C121.885 374.651 119.33 377.208 119.33 380.358V393.386C119.33 395.596 121.128 397.394 123.336 397.394H212.777V374.651Z" fill="white"/>
</mask>
<g mask="url(#mask1_78_116)">
<path d="M118.563 379.363H212.777" stroke="#F1F4F6" stroke-miterlimit="10"/>
<path d="M115.36 383.991H212.777" stroke="#F1F4F6" stroke-miterlimit="10"/>
<path d="M115.36 388.62H212.777" stroke="#F1F4F6" stroke-miterlimit="10"/>
<path d="M115.36 393.249H212.777" stroke="#F1F4F6" stroke-miterlimit="10"/>
</g>
<path d="M29.3053 395.44H39.8921C41.3797 399.85 45.3133 403 49.9404 403H29.7707C25.1435 403 21.21 399.859 19.7223 395.44H29.3053Z" fill="#EAA105"/>
<path d="M29.7707 365.604H49.9404C45.3863 365.604 41.5075 368.653 39.9651 372.944H19.7954C21.3377 368.653 25.2165 365.604 29.7707 365.604Z" fill="#EAA105"/>
<path d="M19.7953 372.944H39.9651C39.5088 374.213 39.2624 375.592 39.2624 377.034V391.569C39.2624 392.93 39.4814 394.235 39.8921 395.44H19.7223C19.3117 394.235 19.0926 392.93 19.0926 391.569V377.034C19.0926 375.592 19.339 374.213 19.7953 372.944Z" fill="#FFB72F"/>
<path d="M142.155 379.308V395.44L136.816 392.172L131.477 395.44V379.308" fill="#DEE5E3"/>
<path d="M146.162 392.172L140.102 388.912L135.475 392.172L131.477 379.308H142.155L146.162 392.172Z" fill="#EAA105"/>
<path d="M31.6327 338.597V365.695H193.684C197.636 365.695 200.995 363.412 202.254 360.217C202.601 359.34 202.792 358.4 202.792 357.414V346.878C202.792 345.837 202.573 344.833 202.19 343.92C200.885 340.815 197.563 338.597 193.684 338.597H31.6327Z" fill="#EAA105"/>
<path d="M110.559 343.919V360.217H202.254C202.601 359.34 202.792 358.4 202.792 357.414V346.878C202.792 345.837 202.573 344.832 202.19 343.919H110.559Z" fill="#FFB72F"/>
<path d="M134.498 349.379H191.521C192.756 349.379 193.757 350.381 193.757 351.616V352.52C193.757 353.755 192.756 354.757 191.521 354.757H134.498C133.263 354.757 132.262 353.755 132.262 352.52V351.616C132.262 350.381 133.263 349.379 134.498 349.379Z" fill="#C43F00"/>
<path d="M34.2703 365.704H109.446C115.661 365.704 120.708 360.655 120.708 354.437V349.872C120.708 343.655 115.661 338.606 109.446 338.606H34.2703V365.704Z" fill="#FFB72F"/>
<path d="M29.8439 338.597H43.8167V342.66H29.8439C28.6118 342.66 27.6078 341.747 27.6078 340.633C27.6078 339.51 28.6118 338.606 29.8439 338.606V338.597Z" fill="#FFB72F"/>
<path d="M29.3054 365.704H43.8166V361.641H29.3054C28.3745 361.641 27.6169 362.399 27.6169 363.33V364.015C27.6169 364.946 28.3745 365.704 29.3054 365.704Z" fill="#FFB72F"/>
<path d="M31.6417 342.66V361.632H105.503C107.128 361.632 108.652 361.221 109.984 360.5C112.96 358.902 114.986 355.752 114.986 352.137C114.986 349.516 113.918 347.152 112.202 345.435C110.486 343.709 108.113 342.65 105.494 342.65H31.6326L31.6417 342.66Z" fill="#E9EEEC"/>
<path d="M31.6416 345.161V361.641H105.503C107.128 361.641 108.652 361.23 109.984 360.509C110.806 359.742 111.317 358.655 111.317 357.441V356.072C111.317 350.046 106.434 345.161 100.41 345.161H31.6416Z" fill="white"/>
<mask id="mask2_78_116" style="mask-type:luminance" maskUnits="userSpaceOnUse" x="31" y="345" width="81" height="17">
<path d="M31.6417 361.641H107.684C109.692 361.641 111.317 360.016 111.317 358.007V355.232C111.317 349.671 106.808 345.161 101.25 345.161H31.6326L31.6326 361.641H31.6417Z" fill="white"/>
</mask>
<g mask="url(#mask2_78_116)">
<path d="M111.974 348.567H31.6324" stroke="#F1F4F6" stroke-miterlimit="10"/>
<path d="M114.712 351.917H31.6324" stroke="#F1F4F6" stroke-miterlimit="10"/>
<path d="M114.712 355.277H31.6324" stroke="#F1F4F6" stroke-miterlimit="10"/>
<path d="M114.712 358.628H31.6324" stroke="#F1F4F6" stroke-miterlimit="10"/>
</g>
<path d="M22.0679 301.41V338.597H200.365C206.48 338.597 211.919 335.639 215.296 331.083C217.596 327.988 218.956 324.144 218.956 319.999C218.956 315.854 217.596 312.019 215.296 308.924C214.748 308.194 214.155 307.509 213.507 306.861C210.148 303.501 205.494 301.419 200.365 301.419H22.0679V301.41Z" fill="#450000"/>
<path d="M104.18 308.924V331.083H215.296C217.596 327.988 218.956 324.144 218.956 319.999C218.956 315.854 217.596 312.019 215.296 308.924H104.18Z" fill="#5E2222"/>
<path d="M25.3625 338.597H117.723C126.257 338.597 133.175 331.667 133.175 323.14V316.876C133.175 308.34 126.248 301.419 117.723 301.419H25.3625L25.3625 338.606V338.597Z" fill="#5E2222"/>
<path d="M19.841 301.41H37.2637V306.979H19.841C18.2986 306.979 17.0574 305.729 17.0574 304.195C17.0574 302.652 18.3077 301.41 19.841 301.41Z" fill="#5E2222"/>
<path d="M19.3665 338.588H37.2637V333.018H19.3665C18.0887 333.018 17.0483 334.059 17.0483 335.337V336.278C17.0483 337.556 18.0887 338.597 19.3665 338.597V338.588Z" fill="#5E2222"/>
<path d="M22.0771 306.989V333.018H113.014C119.832 333.018 125.417 327.778 125.983 321.104C126.011 320.748 126.029 320.373 126.029 319.999C126.029 316.411 124.578 313.151 122.214 310.796C119.85 308.44 116.61 306.979 113.014 306.979H22.0771V306.989Z" fill="#F2F5F4"/>
<path d="M22.0771 311.198V333.018H113.014C119.832 333.018 125.417 327.778 125.983 321.104C125.737 318.492 124.587 316.155 122.834 314.393C120.863 312.421 118.134 311.198 115.123 311.198H22.0771Z" fill="white"/>
<mask id="mask3_78_116" style="mask-type:luminance" maskUnits="userSpaceOnUse" x="22" y="306" width="105" height="28">
<path d="M22.0679 333.018H112.394C119.914 333.018 126.029 326.91 126.029 319.378V317.808C126.029 311.837 121.182 306.979 115.205 306.979H22.0679L22.0679 333.018Z" fill="white"/>
</mask>
<g mask="url(#mask3_78_116)">
<path d="M122.278 313.343H22.0772" stroke="#F1F4F6" stroke-miterlimit="10"/>
<path d="M125.691 318.529H22.0771" stroke="#F1F4F6" stroke-miterlimit="10"/>
<path d="M125.691 323.715H22.0771" stroke="#F1F4F6" stroke-miterlimit="10"/>
<path d="M125.691 328.901H22.0771" stroke="#F1F4F6" stroke-miterlimit="10"/>
</g>
<path d="M96.3858 313.343V331.083L102.254 327.495L108.123 331.083V313.343" fill="#DEE5E3"/>
<path d="M91.9868 327.495L98.6401 323.907L103.724 327.495L108.123 313.343H96.3858L91.9868 327.495Z" fill="#C43F00"/>
<path d="M171.452 338.597H191.904C198.019 338.597 203.459 335.639 206.835 331.083C209.135 327.988 210.495 324.144 210.495 319.999C210.495 315.854 209.135 312.019 206.835 308.924C206.288 308.194 205.695 307.509 205.047 306.861C201.688 303.501 197.033 301.419 191.904 301.419H171.452C176.581 301.419 181.235 303.501 184.594 306.861C185.242 307.509 185.835 308.194 186.383 308.924C188.683 312.019 190.042 315.854 190.042 319.999C190.042 324.144 188.683 327.988 186.383 331.083C183.006 335.639 177.566 338.597 171.452 338.597Z" fill="#B22900"/>
<path d="M157.753 338.597H166.578C172.693 338.597 178.132 335.639 181.509 331.083C183.809 327.988 185.169 324.144 185.169 319.999C185.169 315.854 183.809 312.019 181.509 308.924C180.962 308.194 180.368 307.509 179.72 306.861C176.362 303.501 171.707 301.419 166.578 301.419H157.753C162.882 301.419 167.536 303.501 170.895 306.861C171.543 307.509 172.136 308.194 172.684 308.924C174.984 312.019 176.344 315.854 176.344 319.999C176.344 324.144 174.984 327.988 172.684 331.083C169.307 335.639 163.868 338.597 157.753 338.597Z" fill="#B22900"/>
<path d="M190.042 319.999C190.042 324.144 188.683 327.988 186.383 331.083H206.835C209.135 327.988 210.495 324.144 210.495 319.999C210.495 315.854 209.135 312.019 206.835 308.924H186.383C188.683 312.019 190.042 315.854 190.042 319.999Z" fill="#C43F00"/>
<path d="M176.344 319.999C176.344 324.144 174.984 327.988 172.684 331.083H181.509C183.809 327.988 185.169 324.144 185.169 319.999C185.169 315.854 183.809 312.019 181.509 308.924H172.684C174.984 312.019 176.344 315.854 176.344 319.999Z" fill="#C43F00"/>
<path d="M120.945 338.597H129.771C135.886 338.597 141.325 335.639 144.702 331.083C147.002 327.988 148.362 324.144 148.362 319.999C148.362 315.854 147.002 312.019 144.702 308.924C144.154 308.194 143.561 307.509 142.913 306.861C139.554 303.501 134.9 301.419 129.771 301.419H120.945C126.074 301.419 130.729 303.501 134.088 306.861C134.736 307.509 135.329 308.194 135.876 308.924C138.176 312.019 139.536 315.854 139.536 319.999C139.536 324.144 138.176 327.988 135.876 331.083C132.5 335.639 127.06 338.597 120.945 338.597Z" fill="#B22900"/>
<path d="M139.536 319.999C139.536 324.144 138.176 327.988 135.876 331.083H144.702C147.002 327.988 148.362 324.144 148.362 319.999C148.362 315.854 147.002 312.019 144.702 308.924H135.876C138.176 312.019 139.536 315.854 139.536 319.999Z" fill="#C43F00"/>
<g style="mix-blend-mode:multiply">
<path d="M149.575 217.386H74.5185C69.8183 217.386 66.0034 213.57 66.0034 208.868C66.0034 204.166 69.8183 200.35 74.5185 200.35H149.575C154.276 200.35 158.091 204.166 158.091 208.868C158.091 213.57 154.276 217.386 149.575 217.386Z" fill="#F2F5F4"/>
</g>
<g style="mix-blend-mode:multiply">
<path d="M74.1717 224.389H148.654C153.866 224.389 158.091 228.616 158.091 233.83V288.929C158.091 294.143 153.866 298.37 148.654 298.37H74.1717C68.9599 298.37 64.7348 294.143 64.7348 288.929V233.83C64.7348 228.616 68.9599 224.389 74.1717 224.389Z" fill="#F2F5F4"/>
</g>
<path d="M60.5094 219.212H134.991C140.203 219.212 144.428 223.439 144.428 228.653V283.753C144.428 288.966 140.203 293.193 134.991 293.193H60.5094C55.2975 293.193 51.0725 288.966 51.0725 283.753V228.653C51.0725 223.439 55.2975 219.212 60.5094 219.212Z" fill="white" stroke="#F1F1F3" stroke-miterlimit="10"/>
<path d="M135.922 212.2H60.8652C56.165 212.2 52.3501 208.384 52.3501 203.682C52.3501 198.98 56.165 195.164 60.8652 195.164H135.922C140.622 195.164 144.437 198.98 144.437 203.682C144.437 208.384 140.622 212.2 135.922 212.2Z" fill="white" stroke="#F1F1F3" stroke-miterlimit="10"/>
<path d="M130.035 203.691C130.035 205.8 131.742 207.508 133.85 207.508C135.959 207.508 137.665 205.8 137.665 203.691C137.665 201.582 135.959 199.875 133.85 199.875C131.742 199.875 130.035 201.582 130.035 203.691Z" fill="#D57548"/>
<path d="M114.849 203.691C114.849 205.8 116.556 207.508 118.664 207.508C120.772 207.508 122.479 205.8 122.479 203.691C122.479 201.582 120.772 199.875 118.664 199.875C116.556 199.875 114.849 201.582 114.849 203.691Z" fill="#FFB72F"/>
<path d="M99.6622 203.691C99.6622 205.8 101.369 207.508 103.477 207.508C105.585 207.508 107.292 205.8 107.292 203.691C107.292 201.582 105.585 199.875 103.477 199.875C101.369 199.875 99.6622 201.582 99.6622 203.691Z" fill="#AABC95"/>
<path d="M133.202 234.131H63.5757" stroke="#E3E9E7" stroke-width="5" stroke-linecap="round" stroke-linejoin="round"/>
<path d="M133.509 242.552L63.3068 242.552" stroke="#E3E9E7" stroke-width="5" stroke-linecap="round" stroke-linejoin="round"/>
<path d="M133.509 251.327L63.3068 251.327" stroke="#E3E9E7" stroke-width="5" stroke-linecap="round" stroke-linejoin="round"/>
<path d="M133.509 260.728L63.3068 260.728" stroke="#E3E9E7" stroke-width="5" stroke-linecap="round" stroke-linejoin="round"/>
<path d="M110.317 269.502H63.3068" stroke="#E3E9E7" stroke-width="5" stroke-linecap="round" stroke-linejoin="round"/>
<path d="M110.317 279.531H63.3068" stroke="#E3E9E7" stroke-width="5" stroke-linecap="round" stroke-linejoin="round"/>
<path d="M120.133 272.404H131.076V283.351H120.133V272.404Z" stroke="#FFB72F" stroke-width="3" stroke-miterlimit="10"/>
<path d="M167.5 115.751C168.121 115.742 168.732 115.751 169.325 115.769" stroke="#EAA105" stroke-miterlimit="10"/>
<path d="M171.224 115.915C194.378 118.353 203.714 147.414 193.009 163.382" stroke="#EAA105" stroke-miterlimit="10"/>
<path d="M192.47 164.14C192.115 164.633 191.731 165.108 191.339 165.564" stroke="#EAA105" stroke-miterlimit="10"/>
<path d="M190.435 160.46C187.624 161.017 185.799 163.747 186.365 166.559C186.922 169.371 189.65 171.197 192.461 170.631C195.272 170.065 197.098 167.344 196.532 164.532C195.975 161.72 193.246 159.894 190.435 160.46Z" fill="#EAA105"/>
<path d="M43.7346 239.225C43.1323 239.362 42.5299 239.472 41.9367 239.563" stroke="#AABC95" stroke-miterlimit="10"/>
<path d="M40.0474 239.801C16.8659 241.964 2.00781 215.305 9.37295 197.538" stroke="#AABC95" stroke-miterlimit="10"/>
<path d="M9.74711 196.688C10.0027 196.141 10.2765 195.593 10.5776 195.063" stroke="#AABC95" stroke-miterlimit="10"/>
<path d="M12.4669 199.893C15.1136 198.797 16.3639 195.757 15.2687 193.119C14.1735 190.471 11.1344 189.22 8.4968 190.316C5.85009 191.411 4.59974 194.452 5.69493 197.09C6.79012 199.729 9.82928 200.989 12.4669 199.893Z" fill="#AABC95"/>
<path d="M94.8982 73.6065C94.7065 73.0222 94.5331 72.4287 94.378 71.8535" stroke="#D7E0DD" stroke-miterlimit="10"/>
<path d="M93.9582 70.0001C89.4954 47.1385 114.53 29.691 132.929 35.2512" stroke="#D7E0DD" stroke-miterlimit="10"/>
<path d="M133.814 35.5342C134.389 35.735 134.955 35.9542 135.511 36.2007" stroke="#D7E0DD" stroke-miterlimit="10"/>
<path d="M130.903 38.5653C132.262 41.0852 135.402 42.0347 137.921 40.6744C140.44 39.314 141.389 36.1733 140.029 33.6534C138.669 31.1335 135.53 30.184 133.011 31.5443C130.492 32.9047 129.543 36.0454 130.903 38.5653Z" fill="#D7E0DD"/>
<path d="M371.068 76.3911H351.163" stroke="#D7E0DD" stroke-width="5" stroke-linecap="round" stroke-linejoin="round"/>
<path d="M371.068 86.5984H359.961" stroke="#D7E0DD" stroke-width="5" stroke-linecap="round" stroke-linejoin="round"/>
<path d="M193.438 70.3835H124.952" stroke="#D7E0DD" stroke-width="5" stroke-linecap="round" stroke-linejoin="round"/>
<path d="M193.438 80.2258H168.668" stroke="#D7E0DD" stroke-width="5" stroke-linecap="round" stroke-linejoin="round"/>
<path d="M29.1594 263.192H8.39646" stroke="#D7E0DD" stroke-width="5" stroke-linecap="round" stroke-linejoin="round"/>
<path d="M38.8611 263.192H36.1048" stroke="#D7E0DD" stroke-width="5" stroke-linecap="round" stroke-linejoin="round"/>
<path d="M19.1477 271.4H8.3966" stroke="#D7E0DD" stroke-width="5" stroke-linecap="round" stroke-linejoin="round"/>
<path d="M216.336 26.7054V39.5696L227.945 53.4107H179.182C164.443 53.4107 152.487 41.4504 152.487 26.7054C152.487 11.9604 164.443 0 179.182 0H189.641C204.38 0 216.336 11.9604 216.336 26.7054Z" fill="#D7E0DD"/>
<path d="M195.765 32.7039C195.765 35.3242 197.892 37.4515 200.511 37.4515C203.13 37.4515 205.257 35.3242 205.257 32.7039C205.257 30.0836 203.13 27.9563 200.511 27.9563C197.892 27.9563 195.765 30.0836 195.765 32.7039Z" fill="#F2F5F4"/>
<path d="M179.638 32.7039C179.638 35.3242 181.765 37.4515 184.384 37.4515C187.004 37.4515 189.13 35.3242 189.13 32.7039C189.13 30.0836 187.004 27.9563 184.384 27.9563C181.765 27.9563 179.638 30.0836 179.638 32.7039Z" fill="#F2F5F4"/>
<path d="M163.512 32.7039C163.512 35.3242 165.638 37.4515 168.258 37.4515C170.877 37.4515 173.003 35.3242 173.003 32.7039C173.003 30.0836 170.877 27.9563 168.258 27.9563C165.638 27.9563 163.512 30.0836 163.512 32.7039Z" fill="#F2F5F4"/>
<path d="M233.449 379.299C229.134 379.299 225.637 375.8 225.637 371.483C225.637 367.167 229.134 363.668 233.449 363.668C237.764 363.668 241.261 367.167 241.261 371.483C241.261 375.8 237.764 379.299 233.449 379.299Z" fill="#D7E0DD"/>
<path d="M51.5015 65.8094C48.6839 65.8094 46.3997 63.5244 46.3997 60.7057C46.3997 57.887 48.6839 55.6021 51.5015 55.6021C54.3191 55.6021 56.6033 57.887 56.6033 60.7057C56.6033 63.5244 54.3191 65.8094 51.5015 65.8094Z" fill="#D7E0DD"/>
<path d="M408.935 78.9566C404.993 78.9566 401.798 75.7601 401.798 71.8169C401.798 67.8738 404.993 64.6772 408.935 64.6772C412.876 64.6772 416.072 67.8738 416.072 71.8169C416.072 75.7601 412.876 78.9566 408.935 78.9566Z" fill="#D7E0DD"/>
<path d="M362.134 366.745C362.134 364.27 364.132 362.271 366.606 362.271C369.079 362.271 371.078 364.27 371.078 366.745C371.078 369.219 369.079 371.218 366.606 371.218C364.132 371.218 362.134 369.219 362.134 366.745Z" fill="#D7E0DD"/>
<path d="M288.573 355.122C288.573 356.811 289.942 358.181 291.631 358.181C293.319 358.181 294.688 356.811 294.688 355.122C294.688 353.433 293.319 352.063 291.631 352.063C289.942 352.063 288.573 353.433 288.573 355.122Z" fill="#AABC95"/>
<path d="M240.823 17.0915C240.823 15.4025 242.192 14.033 243.881 14.033C245.569 14.033 246.938 15.4025 246.938 17.0915C246.938 18.7806 245.569 20.1501 243.881 20.1501C242.192 20.1501 240.823 18.7806 240.823 17.0915Z" fill="#AABC95"/>
<path d="M74.1719 44.3629C74.1719 42.6647 75.55 41.2952 77.2384 41.2952C78.9268 41.2952 80.3049 42.6738 80.3049 44.3629C80.3049 46.0519 78.9268 47.4306 77.2384 47.4306C75.55 47.4306 74.1719 46.0519 74.1719 44.3629Z" fill="#AABC95"/>
<path d="M425.499 199.82C425.499 202.45 427.626 204.577 430.254 204.577C432.883 204.577 435.009 202.45 435.009 199.82C435.009 197.191 432.883 195.063 430.254 195.063C427.626 195.063 425.499 197.191 425.499 199.82Z" fill="#AABC95"/>
<path d="M2.6226e-05 284.501C2.6226e-05 285.962 1.18648 287.149 2.64673 287.149C4.10698 287.149 5.29346 285.962 5.29346 284.501C5.29346 283.04 4.10698 281.854 2.64673 281.854C1.18648 281.854 2.6226e-05 283.04 2.6226e-05 284.501Z" fill="#AABC95"/>
<path d="M346.363 24.3225C340.683 24.3225 336.078 19.7157 336.078 14.033C336.078 8.3502 340.683 3.74341 346.363 3.74341C352.044 3.74341 356.649 8.3502 356.649 14.033C356.649 19.7157 352.044 24.3225 346.363 24.3225Z" fill="#D7E0DD"/>
<path d="M345.211 45.4948C343.9 39.9656 347.317 34.4196 352.844 33.1075C358.371 31.7953 363.915 35.2139 365.227 40.7431C366.538 46.2723 363.121 51.8183 357.594 53.1305C352.067 54.4426 346.523 51.024 345.211 45.4948Z" fill="#D7E0DD"/>
<path d="M309.897 37.7314C305.88 33.7131 305.88 27.1981 309.897 23.1797C313.914 19.1614 320.426 19.1614 324.443 23.1797C328.46 27.1981 328.46 33.7131 324.443 37.7314C320.426 41.7497 313.914 41.7497 309.897 37.7314Z" fill="#D7E0DD"/>
<path d="M355.225 43.1213L346.363 14.033" stroke="#D7E0DD" stroke-width="5" stroke-linecap="round" stroke-linejoin="round"/>
<path d="M317.167 30.4488L344.939 14.033" stroke="#D7E0DD" stroke-width="5" stroke-linecap="round" stroke-linejoin="round"/>
<path d="M355.225 43.1212L317.167 30.4487" stroke="#D7E0DD" stroke-width="5" stroke-linecap="round" stroke-linejoin="round"/>
</g>
<defs>
<clipPath id="clip0_78_116">
<rect width="435" height="403" fill="white" transform="matrix(-1 0 0 1 435 0)"/>
</clipPath>
</defs>
</svg>
